STARTFONT 2.1
FONT Latin
SIZE 12 72 72
FONTBOUNDINGBOX 7 12 0 0
STARTPROPERTIES 1
BITCOUNT 1
ENDPROPERTIES
CHARS 1209
STARTCHAR  0020
ENCODING  32
SWIDTH  1000 0
DWIDTH  3 0
BBX  0 0 0 0
BITMAP
ENDCHAR
STARTCHAR  0021
ENCODING  33
SWIDTH  1000 0
DWIDTH  3 0
BBX  2 8 0 0
BITMAP
40
40
40
40
40
40
00
40
ENDCHAR
STARTCHAR  0022
ENCODING  34
SWIDTH  1000 0
DWIDTH  5 0
BBX  4 3 0 5
BITMAP
50
50
50
ENDCHAR
STARTCHAR  0023
ENCODING  35
SWIDTH  1000 0
DWIDTH  7 0
BBX  7 8 0 0
BITMAP
24
24
FE
48
48
FE
48
50
ENDCHAR
STARTCHAR  0024
ENCODING  36
SWIDTH  1000 0
DWIDTH  7 0
BBX  6 10 0 -1
BITMAP
10
78
54
50
38
1C
54
54
38
10
ENDCHAR
STARTCHAR  0025
ENCODING  37
SWIDTH  1000 0
DWIDTH  11 0
BBX  10 8 0 0
BITMAP
7100
4A00
4A00
3400
0580
0A40
0A40
1380
ENDCHAR
STARTCHAR  0026
ENCODING  38
SWIDTH  1000 0
DWIDTH  8 0
BBX  8 9 0 -1
BITMAP
38
24
2C
10
6A
46
46
3B
00
ENDCHAR
STARTCHAR  0027
ENCODING  39
SWIDTH  1000 0
DWIDTH  3 0
BBX  2 3 0 5
BITMAP
40
40
40
ENDCHAR
STARTCHAR  0028
ENCODING  40
SWIDTH  1000 0
DWIDTH  4 0
BBX  4 10 0 -2
BITMAP
00
20
40
40
40
40
40
40
20
00
ENDCHAR
STARTCHAR  0029
ENCODING  41
SWIDTH  1000 0
DWIDTH  4 0
BBX  3 10 1 -2
BITMAP
80
40
40
20
20
20
20
40
40
80
ENDCHAR
STARTCHAR  002A
ENCODING  42
SWIDTH  1000 0
DWIDTH  5 0
BBX  5 4 0 4
BITMAP
20
F0
60
00
ENDCHAR
STARTCHAR  002B
ENCODING  43
SWIDTH  1000 0
DWIDTH  7 0
BBX  7 5 0 1
BITMAP
10
10
7C
10
10
ENDCHAR
STARTCHAR  002C
ENCODING  44
SWIDTH  1000 0
DWIDTH  3 0
BBX  2 3 0 -2
BITMAP
40
40
00
ENDCHAR
STARTCHAR  002D
ENCODING  45
SWIDTH  1000 0
DWIDTH  5 0
BBX  3 1 1 2
BITMAP
E0
ENDCHAR
STARTCHAR  002E
ENCODING  46
SWIDTH  1000 0
DWIDTH  3 0
BBX  2 1 0 0
BITMAP
40
ENDCHAR
STARTCHAR  002F
ENCODING  47
SWIDTH  1000 0
DWIDTH  3 0
BBX  4 8 0 0
BITMAP
20
20
20
40
40
40
80
80
ENDCHAR
STARTCHAR  0030
ENCODING  48
SWIDTH  1000 0
DWIDTH  8 0
BBX  7 8 0 0
BITMAP
3C
64
42
42
42
42
44
3C
ENDCHAR
STARTCHAR  0031
ENCODING  49
SWIDTH  1000 0
DWIDTH  7 0
BBX  4 8 1 0
BITMAP
10
30
50
10
10
10
10
10
ENDCHAR
STARTCHAR  0032
ENCODING  50
SWIDTH  1000 0
DWIDTH  7 0
BBX  6 8 0 0
BITMAP
78
C4
04
0C
18
20
40
FC
ENDCHAR
STARTCHAR  0033
ENCODING  51
SWIDTH  1000 0
DWIDTH  6 0
BBX  6 8 0 0
BITMAP
38
44
04
18
04
04
44
38
ENDCHAR
STARTCHAR  0034
ENCODING  52
SWIDTH  1000 0
DWIDTH  7 0
BBX  7 8 0 0
BITMAP
08
18
28
28
48
FC
08
08
ENDCHAR
STARTCHAR  0035
ENCODING  53
SWIDTH  1000 0
DWIDTH  6 0
BBX  6 8 0 0
BITMAP
7C
40
78
4C
04
04
4C
78
ENDCHAR
STARTCHAR  0036
ENCODING  54
SWIDTH  1000 0
DWIDTH  7 0
BBX  7 8 0 0
BITMAP
3C
66
40
5C
66
42
42
3C
ENDCHAR
STARTCHAR  0037
ENCODING  55
SWIDTH  1000 0
DWIDTH  7 0
BBX  7 8 0 0
BITMAP
7C
0C
08
10
10
20
20
20
ENDCHAR
STARTCHAR  0038
ENCODING  56
SWIDTH  1000 0
DWIDTH  7 0
BBX  7 8 0 0
BITMAP
38
44
44
38
46
42
42
3C
ENDCHAR
STARTCHAR  0039
ENCODING  57
SWIDTH  1000 0
DWIDTH  7 0
BBX  7 8 0 0
BITMAP
3C
44
42
46
3A
02
44
38
ENDCHAR
STARTCHAR  003A
ENCODING  58
SWIDTH  1000 0
DWIDTH  3 0
BBX  2 6 0 0
BITMAP
40
00
00
00
00
40
ENDCHAR
STARTCHAR  003B
ENCODING  59
SWIDTH  1000 0
DWIDTH  3 0
BBX  2 8 0 -2
BITMAP
40
00
00
00
00
40
40
00
ENDCHAR
STARTCHAR  003C
ENCODING  60
SWIDTH  1000 0
DWIDTH  7 0
BBX  6 6 1 1
BITMAP
04
38
C0
C0
38
04
ENDCHAR
STARTCHAR  003D
ENCODING  61
SWIDTH  1000 0
DWIDTH  7 0
BBX  7 3 0 3
BITMAP
7C
00
7C
ENDCHAR
STARTCHAR  003E
ENCODING  62
SWIDTH  1000 0
DWIDTH  7 0
BBX  6 6 1 1
BITMAP
80
60
18
18
60
80
ENDCHAR
STARTCHAR  003F
ENCODING  63
SWIDTH  1000 0
DWIDTH  7 0
BBX  6 8 0 0
BITMAP
38
44
04
0C
18
10
00
10
ENDCHAR
STARTCHAR  0040
ENCODING  64
SWIDTH  1000 0
DWIDTH  13 0
BBX  13 10 0 -2
BITMAP
0F80
1060
2EB0
4990
5190
5110
5120
6FC0
3030
0FC0
ENDCHAR
STARTCHAR  0041
ENCODING  65
SWIDTH  1000 0
DWIDTH  8 0
BBX  10 8 -1 0
BITMAP
0C00
0C00
1600
1200
3200
3F00
2100
4180
ENDCHAR
STARTCHAR  0042
ENCODING  66
SWIDTH  1000 0
DWIDTH  8 0
BBX  7 8 0 0
BITMAP
7C
42
42
7C
42
42
42
7C
ENDCHAR
STARTCHAR  0043
ENCODING  67
SWIDTH  1000 0
DWIDTH  9 0
BBX  9 8 0 0
BITMAP
1E00
2100
4000
4000
4000
4100
2100
1E00
ENDCHAR
STARTCHAR  0044
ENCODING  68
SWIDTH  1000 0
DWIDTH  9 0
BBX  8 8 0 0
BITMAP
7C
42
41
41
41
41
42
7C
ENDCHAR
STARTCHAR  0045
ENCODING  69
SWIDTH  1000 0
DWIDTH  8 0
BBX  8 8 0 0
BITMAP
7E
40
40
7E
40
40
40
7E
ENDCHAR
STARTCHAR  0046
ENCODING  70
SWIDTH  1000 0
DWIDTH  7 0
BBX  7 8 0 0
BITMAP
7E
40
40
7C
40
40
40
40
ENDCHAR
STARTCHAR  0047
ENCODING  71
SWIDTH  1000 0
DWIDTH  10 0
BBX  9 8 0 0
BITMAP
1E00
2100
4000
4000
4780
4080
2080
1F00
ENDCHAR
STARTCHAR  0048
ENCODING  72
SWIDTH  1000 0
DWIDTH  9 0
BBX  8 8 0 0
BITMAP
41
41
41
7F
41
41
41
41
ENDCHAR
STARTCHAR  0049
ENCODING  73
SWIDTH  1000 0
DWIDTH  3 0
BBX  2 8 0 0
BITMAP
40
40
40
40
40
40
40
40
ENDCHAR
STARTCHAR  004A
ENCODING  74
SWIDTH  1000 0
DWIDTH  7 0
BBX  6 8 0 0
BITMAP
04
04
04
04
04
04
44
38
ENDCHAR
STARTCHAR  004B
ENCODING  75
SWIDTH  1000 0
DWIDTH  8 0
BBX  8 8 0 0
BITMAP
42
44
48
70
68
44
46
43
ENDCHAR
STARTCHAR  004C
ENCODING  76
SWIDTH  1000 0
DWIDTH  7 0
BBX  7 8 0 0
BITMAP
40
40
40
40
40
40
40
7C
ENDCHAR
STARTCHAR  004D
ENCODING  77
SWIDTH  1000 0
DWIDTH  10 0
BBX  9 8 0 0
BITMAP
6180
6180
6280
5280
5280
5480
4C80
4C80
ENDCHAR
STARTCHAR  004E
ENCODING  78
SWIDTH  1000 0
DWIDTH  9 0
BBX  8 8 0 0
BITMAP
41
61
51
59
4D
45
43
43
ENDCHAR
STARTCHAR  004F
ENCODING  79
SWIDTH  1000 0
DWIDTH  9 0
BBX  9 8 0 0
BITMAP
1E00
2100
4080
4080
4080
4080
2100
1E00
ENDCHAR
STARTCHAR  0050
ENCODING  80
SWIDTH  1000 0
DWIDTH  7 0
BBX  7 8 0 0
BITMAP
7C
42
42
42
7C
40
40
40
ENDCHAR
STARTCHAR  0051
ENCODING  81
SWIDTH  1000 0
DWIDTH  10 0
BBX  10 9 0 -1
BITMAP
1E00
2100
4080
4080
4080
4080
2700
1F00
0000
ENDCHAR
STARTCHAR  0052
ENCODING  82
SWIDTH  1000 0
DWIDTH  9 0
BBX  9 8 0 0
BITMAP
7E00
4100
4100
7E00
4400
4200
4300
4100
ENDCHAR
STARTCHAR  0053
ENCODING  83
SWIDTH  1000 0
DWIDTH  8 0
BBX  7 8 0 0
BITMAP
3C
44
40
78
0E
42
42
3C
ENDCHAR
STARTCHAR  0054
ENCODING  84
SWIDTH  1000 0
DWIDTH  7 0
BBX  7 8 0 0
BITMAP
FE
10
10
10
10
10
10
10
ENDCHAR
STARTCHAR  0055
ENCODING  85
SWIDTH  1000 0
DWIDTH  9 0
BBX  8 8 0 0
BITMAP
41
41
41
41
41
41
43
3E
ENDCHAR
STARTCHAR  0056
ENCODING  86
SWIDTH  1000 0
DWIDTH  8 0
BBX  8 8 0 0
BITMAP
81
42
42
24
24
24
18
18
ENDCHAR
STARTCHAR  0057
ENCODING  87
SWIDTH  1000 0
DWIDTH  11 0
BBX  12 8 0 0
BITMAP
8620
4620
4A40
4A40
4940
3140
3180
3080
ENDCHAR
STARTCHAR  0058
ENCODING  88
SWIDTH  1000 0
DWIDTH  8 0
BBX  8 8 0 0
BITMAP
42
24
3C
18
18
24
66
C3
ENDCHAR
STARTCHAR  0059
ENCODING  89
SWIDTH  1000 0
DWIDTH  7 0
BBX  9 8 -1 0
BITMAP
4100
2200
3600
1400
0800
0800
0800
0800
ENDCHAR
STARTCHAR  005A
ENCODING  90
SWIDTH  1000 0
DWIDTH  8 0
BBX  7 8 1 0
BITMAP
FE
04
08
10
30
60
C0
FE
ENDCHAR
STARTCHAR  005B
ENCODING  91
SWIDTH  1000 0
DWIDTH  3 0
BBX  4 10 0 -2
BITMAP
60
40
40
40
40
40
40
40
40
60
ENDCHAR
STARTCHAR  005C
ENCODING  92
SWIDTH  1000 0
DWIDTH  3 0
BBX  4 8 0 0
BITMAP
80
80
40
40
40
20
20
20
ENDCHAR
STARTCHAR  005D
ENCODING  93
SWIDTH  1000 0
DWIDTH  4 0
BBX  3 10 0 -2
BITMAP
60
20
20
20
20
20
20
20
20
60
ENDCHAR
STARTCHAR  005E
ENCODING  94
SWIDTH  1000 0
DWIDTH  6 0
BBX  6 5 0 3
BITMAP
20
30
50
48
88
ENDCHAR
STARTCHAR  005F
ENCODING  95
SWIDTH  1000 0
DWIDTH  7 0
BBX  8 1 -1 -2
BITMAP
7F
ENDCHAR
STARTCHAR  0060
ENCODING  96
SWIDTH  1000 0
DWIDTH  4 0
BBX  3 2 0 6
BITMAP
40
20
ENDCHAR
STARTCHAR  0061
ENCODING  97
SWIDTH  1000 0
DWIDTH  7 0
BBX  7 6 0 0
BITMAP
38
44
1C
64
44
7C
ENDCHAR
STARTCHAR  0062
ENCODING  98
SWIDTH  1000 0
DWIDTH  6 0
BBX  6 8 0 0
BITMAP
40
40
78
44
44
44
4C
78
ENDCHAR
STARTCHAR  0063
ENCODING  99
SWIDTH  1000 0
DWIDTH  6 0
BBX  7 6 0 0
BITMAP
38
44
40
40
44
38
ENDCHAR
STARTCHAR  0064
ENCODING  100
SWIDTH  1000 0
DWIDTH  7 0
BBX  6 8 0 0
BITMAP
04
04
3C
44
44
44
44
3C
ENDCHAR
STARTCHAR  0065
ENCODING  101
SWIDTH  1000 0
DWIDTH  7 0
BBX  7 6 0 0
BITMAP
38
44
7C
40
44
38
ENDCHAR
STARTCHAR  0066
ENCODING  102
SWIDTH  1000 0
DWIDTH  3 0
BBX  5 8 -1 0
BITMAP
38
20
70
20
20
20
20
20
ENDCHAR
STARTCHAR  0067
ENCODING  103
SWIDTH  1000 0
DWIDTH  7 0
BBX  6 8 0 -2
BITMAP
3C
44
44
44
44
3C
44
38
ENDCHAR
STARTCHAR  0068
ENCODING  104
SWIDTH  1000 0
DWIDTH  7 0
BBX  6 8 0 0
BITMAP
40
40
78
44
44
44
44
44
ENDCHAR
STARTCHAR  0069
ENCODING  105
SWIDTH  1000 0
DWIDTH  3 0
BBX  2 8 0 0
BITMAP
40
00
40
40
40
40
40
40
ENDCHAR
STARTCHAR  006A
ENCODING  106
SWIDTH  1000 0
DWIDTH  3 0
BBX  3 10 -1 -2
BITMAP
20
00
20
20
20
20
20
20
20
60
ENDCHAR
STARTCHAR  006B
ENCODING  107
SWIDTH  1000 0
DWIDTH  6 0
BBX  7 8 0 0
BITMAP
40
40
48
50
70
50
48
4C
ENDCHAR
STARTCHAR  006C
ENCODING  108
SWIDTH  1000 0
DWIDTH  3 0
BBX  2 8 0 0
BITMAP
40
40
40
40
40
40
40
40
ENDCHAR
STARTCHAR  006D
ENCODING  109
SWIDTH  1000 0
DWIDTH  11 0
BBX  10 6 0 0
BITMAP
7B80
4440
4440
4440
4440
4440
ENDCHAR
STARTCHAR  006E
ENCODING  110
SWIDTH  1000 0
DWIDTH  7 0
BBX  6 6 0 0
BITMAP
78
44
44
44
44
44
ENDCHAR
STARTCHAR  006F
ENCODING  111
SWIDTH  1000 0
DWIDTH  7 0
BBX  7 6 0 0
BITMAP
3C
46
42
42
46
3C
ENDCHAR
STARTCHAR  0070
ENCODING  112
SWIDTH  1000 0
DWIDTH  6 0
BBX  6 8 0 -2
BITMAP
78
44
44
44
44
78
40
40
ENDCHAR
STARTCHAR  0071
ENCODING  113
SWIDTH  1000 0
DWIDTH  7 0
BBX  6 8 0 -2
BITMAP
3C
4C
44
44
44
3C
04
04
ENDCHAR
STARTCHAR  0072
ENCODING  114
SWIDTH  1000 0
DWIDTH  4 0
BBX  5 6 0 0
BITMAP
70
40
40
40
40
40
ENDCHAR
STARTCHAR  0073
ENCODING  115
SWIDTH  1000 0
DWIDTH  6 0
BBX  6 6 0 0
BITMAP
78
44
70
0C
44
78
ENDCHAR
STARTCHAR  0074
ENCODING  116
SWIDTH  1000 0
DWIDTH  3 0
BBX  4 9 0 0
BITMAP
00
40
40
E0
40
40
40
40
60
ENDCHAR
STARTCHAR  0075
ENCODING  117
SWIDTH  1000 0
DWIDTH  7 0
BBX  6 6 0 0
BITMAP
44
44
44
44
44
3C
ENDCHAR
STARTCHAR  0076
ENCODING  118
SWIDTH  1000 0
DWIDTH  6 0
BBX  6 6 0 0
BITMAP
84
48
48
30
30
30
ENDCHAR
STARTCHAR  0077
ENCODING  119
SWIDTH  1000 0
DWIDTH  9 0
BBX  9 6 0 0
BITMAP
8900
5900
5500
5600
6600
2600
ENDCHAR
STARTCHAR  0078
ENCODING  120
SWIDTH  1000 0
DWIDTH  6 0
BBX  6 6 0 0
BITMAP
48
78
30
30
48
CC
ENDCHAR
STARTCHAR  0079
ENCODING  121
SWIDTH  1000 0
DWIDTH  6 0
BBX  6 8 0 -2
BITMAP
C4
48
48
30
30
30
20
60
ENDCHAR
STARTCHAR  007A
ENCODING  122
SWIDTH  1000 0
DWIDTH  7 0
BBX  6 6 1 0
BITMAP
FC
18
10
20
40
FC
ENDCHAR
STARTCHAR  007B
ENCODING  123
SWIDTH  1000 0
DWIDTH  4 0
BBX  5 10 0 -2
BITMAP
30
20
20
20
40
20
20
20
20
30
ENDCHAR
STARTCHAR  007C
ENCODING  124
SWIDTH  1000 0
DWIDTH  3 0
BBX  2 10 0 -2
BITMAP
40
40
40
40
40
40
40
40
40
40
ENDCHAR
STARTCHAR  007D
ENCODING  125
SWIDTH  1000 0
DWIDTH  5 0
BBX  5 10 0 -2
BITMAP
60
20
20
20
10
20
20
20
20
40
ENDCHAR
STARTCHAR  007E
ENCODING  126
SWIDTH  1000 0
DWIDTH  8 0
BBX  6 2 1 3
BITMAP
E0
1C
ENDCHAR
STARTCHAR  00A0
ENCODING  160
SWIDTH  1000 0
DWIDTH  3 0
BBX  0 0 0 0
BITMAP
ENDCHAR
STARTCHAR  00A1
ENCODING  161
SWIDTH  1000 0
DWIDTH  4 0
BBX  2 8 1 -2
BITMAP
40
00
40
40
40
40
40
40
ENDCHAR
STARTCHAR  00A2
ENCODING  162
SWIDTH  1000 0
DWIDTH  7 0
BBX  7 12 0 -3
BITMAP
00
00
08
38
54
50
50
54
38
20
20
00
ENDCHAR
STARTCHAR  00A3
ENCODING  163
SWIDTH  1000 0
DWIDTH  7 0
BBX  7 9 0 -1
BITMAP
3C
44
40
F8
20
20
40
FC
00
ENDCHAR
STARTCHAR  00A4
ENCODING  164
SWIDTH  1000 0
DWIDTH  7 0
BBX  7 7 0 1
BITMAP
00
7C
44
44
44
7C
00
ENDCHAR
STARTCHAR  00A5
ENCODING  165
SWIDTH  1000 0
DWIDTH  7 0
BBX  7 8 0 0
BITMAP
C4
44
28
28
FC
FC
10
10
ENDCHAR
STARTCHAR  00A6
ENCODING  166
SWIDTH  1000 0
DWIDTH  3 0
BBX  2 10 0 -2
BITMAP
40
40
40
40
00
00
40
40
40
40
ENDCHAR
STARTCHAR  00A7
ENCODING  167
SWIDTH  1000 0
DWIDTH  7 0
BBX  7 10 0 -2
BITMAP
38
24
30
78
46
62
1C
0C
24
38
ENDCHAR
STARTCHAR  00A8
ENCODING  168
SWIDTH  1000 0
DWIDTH  4 0
BBX  4 1 0 7
BITMAP
50
ENDCHAR
STARTCHAR  00A9
ENCODING  169
SWIDTH  1000 0
DWIDTH  10 0
BBX  10 8 0 0
BITMAP
1F00
2E80
50C0
5040
5040
4EC0
2080
1F00
ENDCHAR
STARTCHAR  00AA
ENCODING  170
SWIDTH  1000 0
DWIDTH  5 0
BBX  4 4 1 4
BITMAP
60
10
F0
F0
ENDCHAR
STARTCHAR  00AB
ENCODING  171
SWIDTH  1000 0
DWIDTH  7 0
BBX  6 5 0 0
BITMAP
24
28
50
28
24
ENDCHAR
STARTCHAR  00AC
ENCODING  172
SWIDTH  1000 0
DWIDTH  7 0
BBX  6 4 0 2
BITMAP
FC
04
04
00
ENDCHAR
STARTCHAR  00AD
ENCODING  173
SWIDTH  1000 0
DWIDTH  5 0
BBX  3 1 1 2
BITMAP
E0
ENDCHAR
STARTCHAR  00AE
ENCODING  174
SWIDTH  1000 0
DWIDTH  10 0
BBX  10 8 0 0
BITMAP
1F00
2080
5EC0
5C40
5440
52C0
2080
1F00
ENDCHAR
STARTCHAR  00AF
ENCODING  175
SWIDTH  1000 0
DWIDTH  7 0
BBX  8 1 -1 9
BITMAP
7F
ENDCHAR
STARTCHAR  00B0
ENCODING  176
SWIDTH  1000 0
DWIDTH  5 0
BBX  4 3 0 5
BITMAP
70
50
20
ENDCHAR
STARTCHAR  00B1
ENCODING  177
SWIDTH  1000 0
DWIDTH  7 0
BBX  7 7 0 0
BITMAP
10
10
7C
10
10
00
7C
ENDCHAR
STARTCHAR  00B2
ENCODING  178
SWIDTH  1000 0
DWIDTH  4 0
BBX  5 4 0 4
BITMAP
70
10
20
70
ENDCHAR
STARTCHAR  00B3
ENCODING  179
SWIDTH  1000 0
DWIDTH  4 0
BBX  4 5 0 3
BITMAP
70
10
20
10
70
ENDCHAR
STARTCHAR  00B4
ENCODING  180
SWIDTH  1000 0
DWIDTH  4 0
BBX  3 2 1 6
BITMAP
40
80
ENDCHAR
STARTCHAR  00B5
ENCODING  181
SWIDTH  1000 0
DWIDTH  7 0
BBX  6 8 0 -2
BITMAP
44
44
44
44
44
7C
40
40
ENDCHAR
STARTCHAR  00B6
ENCODING  182
SWIDTH  1000 0
DWIDTH  7 0
BBX  7 10 0 -2
BITMAP
7E
F4
F4
74
14
14
14
14
14
14
ENDCHAR
STARTCHAR  00B7
ENCODING  183
SWIDTH  1000 0
DWIDTH  4 0
BBX  2 1 1 4
BITMAP
40
ENDCHAR
STARTCHAR  00B8
ENCODING  184
SWIDTH  1000 0
DWIDTH  4 0
BBX  3 2 0 -2
BITMAP
40
E0
ENDCHAR
STARTCHAR  00B9
ENCODING  185
SWIDTH  1000 0
DWIDTH  4 0
BBX  3 4 0 4
BITMAP
20
20
20
20
ENDCHAR
STARTCHAR  00BA
ENCODING  186
SWIDTH  1000 0
DWIDTH  5 0
BBX  5 4 0 4
BITMAP
70
48
48
30
ENDCHAR
STARTCHAR  00BB
ENCODING  187
SWIDTH  1000 0
DWIDTH  7 0
BBX  6 5 0 0
BITMAP
50
28
34
28
50
ENDCHAR
STARTCHAR  00BC
ENCODING  188
SWIDTH  1000 0
DWIDTH  10 0
BBX  10 8 0 0
BITMAP
2100
2200
2200
2400
0880
1180
1280
23C0
ENDCHAR
STARTCHAR  00BD
ENCODING  189
SWIDTH  1000 0
DWIDTH  10 0
BBX  10 8 0 0
BITMAP
2100
2100
2200
2400
09C0
1040
2080
23C0
ENDCHAR
STARTCHAR  00BE
ENCODING  190
SWIDTH  1000 0
DWIDTH  11 0
BBX  11 9 0 -1
BITMAP
7080
1100
2100
1200
6400
08C0
0940
11E0
2040
ENDCHAR
STARTCHAR  00BF
ENCODING  191
SWIDTH  1000 0
DWIDTH  7 0
BBX  7 8 0 -2
BITMAP
10
00
10
30
60
40
44
38
ENDCHAR
STARTCHAR  00C0
ENCODING  192
SWIDTH  1000 0
DWIDTH  8 0
BBX  10 10 -1 0
BITMAP
0800
0400
0C00
0C00
1600
1200
3200
3F00
2100
4180
ENDCHAR
STARTCHAR  00C1
ENCODING  193
SWIDTH  1000 0
DWIDTH  8 0
BBX  10 10 -1 0
BITMAP
0400
0800
0C00
0C00
1600
1200
3200
3F00
2100
4180
ENDCHAR
STARTCHAR  00C2
ENCODING  194
SWIDTH  1000 0
DWIDTH  8 0
BBX  10 10 -1 0
BITMAP
0C00
1200
0C00
0C00
1600
1200
3200
3F00
2100
4180
ENDCHAR
STARTCHAR  00C3
ENCODING  195
SWIDTH  1000 0
DWIDTH  8 0
BBX  10 10 -1 0
BITMAP
1E00
0000
0C00
0C00
1600
1200
3200
3F00
2100
4180
ENDCHAR
STARTCHAR  00C4
ENCODING  196
SWIDTH  1000 0
DWIDTH  7 0
BBX  9 10 -1 0
BITMAP
1400
0000
0800
1400
1400
3400
2200
3E00
6300
4100
ENDCHAR
STARTCHAR  00C5
ENCODING  197
SWIDTH  1000 0
DWIDTH  8 0
BBX  9 10 0 0
BITMAP
1800
2800
1800
1800
3C00
2400
2600
7E00
4200
C100
ENDCHAR
STARTCHAR  00C6
ENCODING  198
SWIDTH  1000 0
DWIDTH  12 0
BBX  12 8 0 0
BITMAP
0FE0
0A00
1200
33E0
2200
7E00
4200
C3E0
ENDCHAR
STARTCHAR  00C7
ENCODING  199
SWIDTH  1000 0
DWIDTH  9 0
BBX  9 10 0 -2
BITMAP
1E00
2100
4000
4000
4000
4100
2100
1E00
0C00
1C00
ENDCHAR
STARTCHAR  00C8
ENCODING  200
SWIDTH  1000 0
DWIDTH  8 0
BBX  8 10 0 0
BITMAP
10
08
7E
40
40
7E
40
40
40
7E
ENDCHAR
STARTCHAR  00C9
ENCODING  201
SWIDTH  1000 0
DWIDTH  8 0
BBX  8 10 0 0
BITMAP
08
10
7E
40
40
7E
40
40
40
7E
ENDCHAR
STARTCHAR  00CA
ENCODING  202
SWIDTH  1000 0
DWIDTH  8 0
BBX  8 10 0 0
BITMAP
18
24
7E
40
40
7E
40
40
40
7E
ENDCHAR
STARTCHAR  00CB
ENCODING  203
SWIDTH  1000 0
DWIDTH  8 0
BBX  8 10 0 0
BITMAP
14
00
7E
40
40
7E
40
40
40
7F
ENDCHAR
STARTCHAR  00CC
ENCODING  204
SWIDTH  1000 0
DWIDTH  3 0
BBX  3 10 0 0
BITMAP
C0
40
40
40
40
40
40
40
40
40
ENDCHAR
STARTCHAR  00CD
ENCODING  205
SWIDTH  1000 0
DWIDTH  3 0
BBX  3 10 0 0
BITMAP
40
40
40
40
40
40
40
40
40
40
ENDCHAR
STARTCHAR  00CE
ENCODING  206
SWIDTH  1000 0
DWIDTH  3 0
BBX  5 10 -1 0
BITMAP
60
50
20
20
20
20
20
20
20
20
ENDCHAR
STARTCHAR  00CF
ENCODING  207
SWIDTH  1000 0
DWIDTH  4 0
BBX  4 10 0 0
BITMAP
50
00
20
20
20
20
20
20
20
20
ENDCHAR
STARTCHAR  00D0
ENCODING  208
SWIDTH  1000 0
DWIDTH  9 0
BBX  9 8 -1 0
BITMAP
3E00
2100
2080
7880
2080
2080
2100
3E00
ENDCHAR
STARTCHAR  00D1
ENCODING  209
SWIDTH  1000 0
DWIDTH  9 0
BBX  8 10 0 0
BITMAP
1E
00
41
61
51
59
49
45
43
43
ENDCHAR
STARTCHAR  00D2
ENCODING  210
SWIDTH  1000 0
DWIDTH  9 0
BBX  9 11 0 0
BITMAP
1800
0800
0000
1E00
2100
4080
4080
4080
4080
2100
1E00
ENDCHAR
STARTCHAR  00D3
ENCODING  211
SWIDTH  1000 0
DWIDTH  9 0
BBX  9 11 0 0
BITMAP
0400
0C00
0000
1E00
2100
4080
4080
4080
4080
2100
1E00
ENDCHAR
STARTCHAR  00D4
ENCODING  212
SWIDTH  1000 0
DWIDTH  9 0
BBX  9 11 0 0
BITMAP
0800
1C00
0000
1E00
2100
4080
4080
4080
4080
2100
1E00
ENDCHAR
STARTCHAR  00D5
ENCODING  213
SWIDTH  1000 0
DWIDTH  9 0
BBX  9 10 0 0
BITMAP
1E00
0000
1E00
2100
4080
4080
4080
4080
2100
1E00
ENDCHAR
STARTCHAR  00D6
ENCODING  214
SWIDTH  1000 0
DWIDTH  9 0
BBX  9 10 0 0
BITMAP
1200
0000
1E00
2100
4080
4080
4080
4080
2100
1E00
ENDCHAR
STARTCHAR  00D7
ENCODING  215
SWIDTH  1000 0
DWIDTH  7 0
BBX  7 6 0 1
BITMAP
00
6C
38
38
6C
00
ENDCHAR
STARTCHAR  00D8
ENCODING  216
SWIDTH  1000 0
DWIDTH  10 0
BBX  10 10 0 -1
BITMAP
0000
1E80
2100
4280
4480
4880
5080
2100
5E00
0000
ENDCHAR
STARTCHAR  00D9
ENCODING  217
SWIDTH  1000 0
DWIDTH  9 0
BBX  8 11 0 0
BITMAP
10
08
00
41
41
41
41
41
41
43
3E
ENDCHAR
STARTCHAR  00DA
ENCODING  218
SWIDTH  1000 0
DWIDTH  9 0
BBX  8 11 0 0
BITMAP
0C
08
00
41
41
41
41
41
41
43
3E
ENDCHAR
STARTCHAR  00DB
ENCODING  219
SWIDTH  1000 0
DWIDTH  9 0
BBX  8 11 0 0
BITMAP
08
14
00
41
41
41
41
41
41
63
3E
ENDCHAR
STARTCHAR  00DC
ENCODING  220
SWIDTH  1000 0
DWIDTH  9 0
BBX  8 10 0 0
BITMAP
14
00
41
41
41
41
41
41
43
3E
ENDCHAR
STARTCHAR  00DD
ENCODING  221
SWIDTH  1000 0
DWIDTH  7 0
BBX  9 10 -1 0
BITMAP
0C00
0800
4100
2200
3600
1400
0800
0800
0800
0800
ENDCHAR
STARTCHAR  00DE
ENCODING  222
SWIDTH  1000 0
DWIDTH  7 0
BBX  7 8 0 0
BITMAP
40
40
7C
42
42
7C
40
40
ENDCHAR
STARTCHAR  00DF
ENCODING  223
SWIDTH  1000 0
DWIDTH  7 0
BBX  7 8 0 0
BITMAP
38
44
44
48
4C
46
52
5C
ENDCHAR
STARTCHAR  00E0
ENCODING  224
SWIDTH  1000 0
DWIDTH  7 0
BBX  7 8 0 0
BITMAP
10
00
38
44
1C
64
44
7C
ENDCHAR
STARTCHAR  00E1
ENCODING  225
SWIDTH  1000 0
DWIDTH  7 0
BBX  7 8 0 0
BITMAP
18
00
38
44
1C
64
44
7C
ENDCHAR
STARTCHAR  00E2
ENCODING  226
SWIDTH  1000 0
DWIDTH  7 0
BBX  7 8 0 0
BITMAP
10
00
38
44
1C
64
44
7C
ENDCHAR
STARTCHAR  00E3
ENCODING  227
SWIDTH  1000 0
DWIDTH  7 0
BBX  7 8 0 0
BITMAP
38
00
38
44
1C
64
44
7C
ENDCHAR
STARTCHAR  00E4
ENCODING  228
SWIDTH  1000 0
DWIDTH  7 0
BBX  7 8 0 0
BITMAP
28
00
38
44
1C
64
44
7C
ENDCHAR
STARTCHAR  00E5
ENCODING  229
SWIDTH  1000 0
DWIDTH  7 0
BBX  7 8 0 0
BITMAP
10
10
38
44
1C
64
44
7C
ENDCHAR
STARTCHAR  00E6
ENCODING  230
SWIDTH  1000 0
DWIDTH  11 0
BBX  11 6 0 0
BITMAP
3BC0
4460
3FE0
4400
4460
7BC0
ENDCHAR
STARTCHAR  00E7
ENCODING  231
SWIDTH  1000 0
DWIDTH  7 0
BBX  7 8 0 -2
BITMAP
3C
44
40
40
44
38
18
38
ENDCHAR
STARTCHAR  00E8
ENCODING  232
SWIDTH  1000 0
DWIDTH  7 0
BBX  7 8 0 0
BITMAP
10
00
38
44
7C
40
44
38
ENDCHAR
STARTCHAR  00E9
ENCODING  233
SWIDTH  1000 0
DWIDTH  7 0
BBX  7 8 0 0
BITMAP
08
00
38
44
7C
40
44
38
ENDCHAR
STARTCHAR  00EA
ENCODING  234
SWIDTH  1000 0
DWIDTH  7 0
BBX  7 8 0 0
BITMAP
18
00
38
44
7C
40
44
38
ENDCHAR
STARTCHAR  00EB
ENCODING  235
SWIDTH  1000 0
DWIDTH  7 0
BBX  7 8 0 0
BITMAP
28
00
38
44
7C
40
44
38
ENDCHAR
STARTCHAR  00EC
ENCODING  236
SWIDTH  1000 0
DWIDTH  3 0
BBX  4 8 -1 0
BITMAP
60
20
20
20
20
20
20
20
ENDCHAR
STARTCHAR  00ED
ENCODING  237
SWIDTH  1000 0
DWIDTH  3 0
BBX  3 8 0 0
BITMAP
60
40
40
40
40
40
40
40
ENDCHAR
STARTCHAR  00EE
ENCODING  238
SWIDTH  1000 0
DWIDTH  3 0
BBX  5 8 -1 0
BITMAP
70
00
20
20
20
20
20
20
ENDCHAR
STARTCHAR  00EF
ENCODING  239
SWIDTH  1000 0
DWIDTH  4 0
BBX  5 8 0 0
BITMAP
50
00
20
20
20
20
20
20
ENDCHAR
STARTCHAR  00F0
ENCODING  240
SWIDTH  1000 0
DWIDTH  7 0
BBX  7 8 0 0
BITMAP
1C
2C
3C
46
42
42
46
3C
ENDCHAR
STARTCHAR  00F1
ENCODING  241
SWIDTH  1000 0
DWIDTH  7 0
BBX  6 8 0 0
BITMAP
38
00
78
44
44
44
44
44
ENDCHAR
STARTCHAR  00F2
ENCODING  242
SWIDTH  1000 0
DWIDTH  7 0
BBX  7 8 0 0
BITMAP
10
00
3C
46
42
42
46
3C
ENDCHAR
STARTCHAR  00F3
ENCODING  243
SWIDTH  1000 0
DWIDTH  7 0
BBX  7 8 0 0
BITMAP
08
00
3C
46
42
42
46
3C
ENDCHAR
STARTCHAR  00F4
ENCODING  244
SWIDTH  1000 0
DWIDTH  7 0
BBX  7 8 0 0
BITMAP
18
00
3C
46
42
42
46
3C
ENDCHAR
STARTCHAR  00F5
ENCODING  245
SWIDTH  1000 0
DWIDTH  7 0
BBX  7 8 0 0
BITMAP
3C
00
3C
46
42
42
46
3C
ENDCHAR
STARTCHAR  00F6
ENCODING  246
SWIDTH  1000 0
DWIDTH  7 0
BBX  7 8 0 0
BITMAP
28
00
3C
46
42
42
46
3C
ENDCHAR
STARTCHAR  00F7
ENCODING  247
SWIDTH  1000 0
DWIDTH  7 0
BBX  7 4 0 2
BITMAP
10
7C
00
10
ENDCHAR
STARTCHAR  00F8
ENCODING  248
SWIDTH  1000 0
DWIDTH  8 0
BBX  7 8 0 -1
BITMAP
00
3E
46
4A
52
66
7C
00
ENDCHAR
STARTCHAR  00F9
ENCODING  249
SWIDTH  1000 0
DWIDTH  7 0
BBX  6 8 0 0
BITMAP
10
10
44
44
44
44
44
3C
ENDCHAR
STARTCHAR  00FA
ENCODING  250
SWIDTH  1000 0
DWIDTH  7 0
BBX  6 8 0 0
BITMAP
18
10
44
44
44
44
44
3C
ENDCHAR
STARTCHAR  00FB
ENCODING  251
SWIDTH  1000 0
DWIDTH  7 0
BBX  6 8 0 0
BITMAP
30
00
44
44
44
44
44
3C
ENDCHAR
STARTCHAR  00FC
ENCODING  252
SWIDTH  1000 0
DWIDTH  7 0
BBX  6 8 0 0
BITMAP
28
00
44
44
44
44
44
3C
ENDCHAR
STARTCHAR  00FD
ENCODING  253
SWIDTH  1000 0
DWIDTH  6 0
BBX  6 10 0 -2
BITMAP
10
10
C4
48
48
30
30
30
20
60
ENDCHAR
STARTCHAR  00FE
ENCODING  254
SWIDTH  1000 0
DWIDTH  6 0
BBX  6 10 0 -2
BITMAP
40
40
78
44
44
44
44
78
40
40
ENDCHAR
STARTCHAR  00FF
ENCODING  255
SWIDTH  1000 0
DWIDTH  6 0
BBX  7 10 0 -2
BITMAP
28
00
44
4C
28
28
10
10
10
60
ENDCHAR
STARTCHAR  0100
ENCODING  256
SWIDTH  1000 0
DWIDTH  8 0
BBX  10 10 -1 0
BITMAP
1E00
0000
0C00
0C00
1600
1200
3200
3F00
2100
4180
ENDCHAR
STARTCHAR  0101
ENCODING  257
SWIDTH  1000 0
DWIDTH  7 0
BBX  7 8 0 0
BITMAP
38
00
38
44
1C
64
44
7C
ENDCHAR
STARTCHAR  0102
ENCODING  258
SWIDTH  1000 0
DWIDTH  8 0
BBX  10 10 -1 0
BITMAP
1200
0C00
0C00
0C00
1600
1200
3200
3F00
2100
4180
ENDCHAR
STARTCHAR  0103
ENCODING  259
SWIDTH  1000 0
DWIDTH  7 0
BBX  7 8 0 0
BITMAP
38
00
38
44
1C
64
44
7C
ENDCHAR
STARTCHAR  0104
ENCODING  260
SWIDTH  1000 0
DWIDTH  8 0
BBX  9 10 -1 -2
BITMAP
0C00
0C00
1200
1200
3E00
2100
2100
4080
0100
0180
ENDCHAR
STARTCHAR  0105
ENCODING  261
SWIDTH  1000 0
DWIDTH  7 0
BBX  7 8 0 -2
BITMAP
38
44
1C
64
44
7C
00
04
ENDCHAR
STARTCHAR  0106
ENCODING  262
SWIDTH  1000 0
DWIDTH  9 0
BBX  9 11 0 0
BITMAP
0400
0800
0000
1E00
2100
4000
4000
4000
4100
2100
1E00
ENDCHAR
STARTCHAR  0107
ENCODING  263
SWIDTH  1000 0
DWIDTH  6 0
BBX  7 8 0 0
BITMAP
18
00
38
44
40
40
44
38
ENDCHAR
STARTCHAR  0108
ENCODING  264
SWIDTH  1000 0
DWIDTH  9 0
BBX  9 11 0 0
BITMAP
0800
1C00
1600
1E00
2100
4000
4000
4000
4100
2100
1E00
ENDCHAR
STARTCHAR  0109
ENCODING  265
SWIDTH  1000 0
DWIDTH  6 0
BBX  7 8 0 0
BITMAP
18
00
38
44
40
40
44
38
ENDCHAR
STARTCHAR  010A
ENCODING  266
SWIDTH  1000 0
DWIDTH  8 0
BBX  8 10 0 0
BITMAP
08
00
1C
22
40
40
40
41
23
1C
ENDCHAR
STARTCHAR  010B
ENCODING  267
SWIDTH  1000 0
DWIDTH  6 0
BBX  6 8 0 0
BITMAP
10
00
38
4C
40
40
4C
38
ENDCHAR
STARTCHAR  010C
ENCODING  268
SWIDTH  1000 0
DWIDTH  9 0
BBX  9 11 0 0
BITMAP
1600
0C00
0800
1E00
2100
4000
4000
4000
4100
2100
1E00
ENDCHAR
STARTCHAR  010D
ENCODING  269
SWIDTH  1000 0
DWIDTH  6 0
BBX  7 8 0 0
BITMAP
28
10
38
44
40
40
44
38
ENDCHAR
STARTCHAR  010E
ENCODING  270
SWIDTH  1000 0
DWIDTH  9 0
BBX  8 10 0 0
BITMAP
28
10
7C
42
41
41
41
41
42
7C
ENDCHAR
STARTCHAR  010F
ENCODING  271
SWIDTH  1000 0
DWIDTH  8 0
BBX  8 8 0 0
BITMAP
05
05
3C
44
44
44
44
3C
ENDCHAR
STARTCHAR  0110
ENCODING  272
SWIDTH  1000 0
DWIDTH  9 0
BBX  9 8 -1 0
BITMAP
3E00
2100
2080
7880
2080
2080
2100
3E00
ENDCHAR
STARTCHAR  0111
ENCODING  273
SWIDTH  1000 0
DWIDTH  7 0
BBX  7 8 0 0
BITMAP
1E
04
3C
44
44
44
44
3C
ENDCHAR
STARTCHAR  0112
ENCODING  274
SWIDTH  1000 0
DWIDTH  8 0
BBX  8 10 0 0
BITMAP
3C
00
7E
40
40
7E
40
40
40
7E
ENDCHAR
STARTCHAR  0113
ENCODING  275
SWIDTH  1000 0
DWIDTH  7 0
BBX  7 8 0 0
BITMAP
38
00
38
44
7C
40
44
38
ENDCHAR
STARTCHAR  0114
ENCODING  276
SWIDTH  1000 0
DWIDTH  8 0
BBX  8 10 0 0
BITMAP
18
00
7E
40
40
7E
40
40
40
7E
ENDCHAR
STARTCHAR  0115
ENCODING  277
SWIDTH  1000 0
DWIDTH  7 0
BBX  7 8 0 0
BITMAP
38
00
38
44
7C
40
44
38
ENDCHAR
STARTCHAR  0116
ENCODING  278
SWIDTH  1000 0
DWIDTH  8 0
BBX  8 10 0 0
BITMAP
08
00
7E
40
40
7E
40
40
40
7E
ENDCHAR
STARTCHAR  0117
ENCODING  279
SWIDTH  1000 0
DWIDTH  7 0
BBX  7 8 0 0
BITMAP
10
00
38
44
7C
40
44
38
ENDCHAR
STARTCHAR  0118
ENCODING  280
SWIDTH  1000 0
DWIDTH  8 0
BBX  8 10 0 -2
BITMAP
7E
40
40
7E
40
40
40
7E
00
06
ENDCHAR
STARTCHAR  0119
ENCODING  281
SWIDTH  1000 0
DWIDTH  7 0
BBX  7 8 0 -2
BITMAP
38
44
7C
40
44
38
00
18
ENDCHAR
STARTCHAR  011A
ENCODING  282
SWIDTH  1000 0
DWIDTH  8 0
BBX  8 10 0 0
BITMAP
28
10
7E
40
40
7E
40
40
40
7E
ENDCHAR
STARTCHAR  011B
ENCODING  283
SWIDTH  1000 0
DWIDTH  7 0
BBX  7 8 0 0
BITMAP
28
10
38
44
7C
40
44
38
ENDCHAR
STARTCHAR  011C
ENCODING  284
SWIDTH  1000 0
DWIDTH  10 0
BBX  9 10 0 0
BITMAP
0C00
1A00
1E00
2100
4000
4000
4780
4080
2080
1F00
ENDCHAR
STARTCHAR  011D
ENCODING  285
SWIDTH  1000 0
DWIDTH  7 0
BBX  6 10 0 -2
BITMAP
10
00
3C
44
44
44
44
3C
44
38
ENDCHAR
STARTCHAR  011E
ENCODING  286
SWIDTH  1000 0
DWIDTH  10 0
BBX  9 10 0 0
BITMAP
0E00
0000
1E00
2100
4000
4000
4780
4080
2080
1F00
ENDCHAR
STARTCHAR  011F
ENCODING  287
SWIDTH  1000 0
DWIDTH  7 0
BBX  6 10 0 -2
BITMAP
38
00
3C
44
44
44
44
3C
44
38
ENDCHAR
STARTCHAR  0120
ENCODING  288
SWIDTH  1000 0
DWIDTH  10 0
BBX  9 10 0 0
BITMAP
0400
0000
1E00
2100
4000
4000
4780
4080
2080
1F00
ENDCHAR
STARTCHAR  0121
ENCODING  289
SWIDTH  1000 0
DWIDTH  7 0
BBX  6 10 0 -2
BITMAP
10
00
3C
44
44
44
44
3C
44
38
ENDCHAR
STARTCHAR  0122
ENCODING  290
SWIDTH  1000 0
DWIDTH  10 0
BBX  9 10 0 -2
BITMAP
1E00
2100
4000
4000
4780
4080
2080
1F00
0400
0C00
ENDCHAR
STARTCHAR  0123
ENCODING  291
SWIDTH  1000 0
DWIDTH  7 0
BBX  6 12 0 -2
BITMAP
00
10
10
00
3C
44
44
44
44
3C
44
78
ENDCHAR
STARTCHAR  0124
ENCODING  292
SWIDTH  1000 0
DWIDTH  9 0
BBX  8 10 0 0
BITMAP
1C
16
41
41
41
7F
41
41
41
41
ENDCHAR
STARTCHAR  0125
ENCODING  293
SWIDTH  1000 0
DWIDTH  7 0
BBX  6 10 0 0
BITMAP
18
2C
40
40
78
44
44
44
44
44
ENDCHAR
STARTCHAR  0126
ENCODING  294
SWIDTH  1000 0
DWIDTH  9 0
BBX  9 8 0 0
BITMAP
4100
FF80
4100
7F00
4100
4100
4100
4100
ENDCHAR
STARTCHAR  0127
ENCODING  295
SWIDTH  1000 0
DWIDTH  7 0
BBX  6 8 0 0
BITMAP
F0
40
78
44
44
44
44
44
ENDCHAR
STARTCHAR  0128
ENCODING  296
SWIDTH  1000 0
DWIDTH  3 0
BBX  5 10 -1 0
BITMAP
70
00
20
20
20
20
20
20
20
20
ENDCHAR
STARTCHAR  0129
ENCODING  297
SWIDTH  1000 0
DWIDTH  3 0
BBX  5 8 -1 0
BITMAP
70
00
20
20
20
20
20
20
ENDCHAR
STARTCHAR  012A
ENCODING  298
SWIDTH  1000 0
DWIDTH  3 0
BBX  5 10 -1 0
BITMAP
70
00
20
20
20
20
20
20
20
20
ENDCHAR
STARTCHAR  012B
ENCODING  299
SWIDTH  1000 0
DWIDTH  3 0
BBX  5 8 -1 0
BITMAP
70
00
20
20
20
20
20
20
ENDCHAR
STARTCHAR  012C
ENCODING  300
SWIDTH  1000 0
DWIDTH  3 0
BBX  5 10 -1 0
BITMAP
50
70
20
20
20
20
20
20
20
20
ENDCHAR
STARTCHAR  012D
ENCODING  301
SWIDTH  1000 0
DWIDTH  3 0
BBX  5 8 -1 0
BITMAP
70
00
20
20
20
20
20
20
ENDCHAR
STARTCHAR  012E
ENCODING  302
SWIDTH  1000 0
DWIDTH  3 0
BBX  3 10 0 -2
BITMAP
40
40
40
40
40
40
40
40
00
C0
ENDCHAR
STARTCHAR  012F
ENCODING  303
SWIDTH  1000 0
DWIDTH  3 0
BBX  3 10 0 -2
BITMAP
40
00
40
40
40
40
40
40
00
C0
ENDCHAR
STARTCHAR  0130
ENCODING  304
SWIDTH  1000 0
DWIDTH  3 0
BBX  2 10 0 0
BITMAP
40
00
40
40
40
40
40
40
40
40
ENDCHAR
STARTCHAR  0131
ENCODING  305
SWIDTH  1000 0
DWIDTH  3 0
BBX  2 6 0 0
BITMAP
40
40
40
40
40
40
ENDCHAR
STARTCHAR  0132
ENCODING  306
SWIDTH  1000 0
DWIDTH  9 0
BBX  8 8 0 0
BITMAP
41
41
41
41
41
41
51
4E
ENDCHAR
STARTCHAR  0133
ENCODING  307
SWIDTH  1000 0
DWIDTH  6 0
BBX  5 10 0 -2
BITMAP
48
00
48
48
48
48
48
48
08
38
ENDCHAR
STARTCHAR  0134
ENCODING  308
SWIDTH  1000 0
DWIDTH  7 0
BBX  8 11 0 0
BITMAP
04
0A
00
04
04
04
04
04
04
44
38
ENDCHAR
STARTCHAR  0135
ENCODING  309
SWIDTH  1000 0
DWIDTH  3 0
BBX  5 10 -1 -2
BITMAP
60
00
20
20
20
20
20
20
20
60
ENDCHAR
STARTCHAR  0136
ENCODING  310
SWIDTH  1000 0
DWIDTH  8 0
BBX  8 10 0 -2
BITMAP
42
44
48
70
68
44
46
43
0C
1C
ENDCHAR
STARTCHAR  0137
ENCODING  311
SWIDTH  1000 0
DWIDTH  6 0
BBX  6 10 0 -2
BITMAP
40
40
48
50
70
50
48
4C
18
38
ENDCHAR
STARTCHAR  0138
ENCODING  312
SWIDTH  1000 0
DWIDTH  6 0
BBX  7 6 0 0
BITMAP
48
50
70
50
48
4C
ENDCHAR
STARTCHAR  0139
ENCODING  313
SWIDTH  1000 0
DWIDTH  7 0
BBX  7 10 0 0
BITMAP
30
20
40
40
40
40
40
40
40
7C
ENDCHAR
STARTCHAR  013A
ENCODING  314
SWIDTH  1000 0
DWIDTH  3 0
BBX  3 10 0 0
BITMAP
40
40
40
40
40
40
40
40
40
40
ENDCHAR
STARTCHAR  013B
ENCODING  315
SWIDTH  1000 0
DWIDTH  7 0
BBX  7 10 0 -2
BITMAP
40
40
40
40
40
40
40
7C
18
18
ENDCHAR
STARTCHAR  013C
ENCODING  316
SWIDTH  1000 0
DWIDTH  3 0
BBX  3 10 0 -2
BITMAP
40
40
40
40
40
40
40
40
60
E0
ENDCHAR
STARTCHAR  013D
ENCODING  317
SWIDTH  1000 0
DWIDTH  7 0
BBX  7 8 0 0
BITMAP
48
40
40
40
40
40
40
7C
ENDCHAR
STARTCHAR  013E
ENCODING  318
SWIDTH  1000 0
DWIDTH  4 0
BBX  4 8 0 0
BITMAP
60
40
40
40
40
40
40
40
ENDCHAR
STARTCHAR  013F
ENCODING  319
SWIDTH  1000 0
DWIDTH  7 0
BBX  7 8 0 0
BITMAP
40
40
40
50
40
40
40
7C
ENDCHAR
STARTCHAR  0140
ENCODING  320
SWIDTH  1000 0
DWIDTH  4 0
BBX  4 8 0 0
BITMAP
40
40
40
50
40
40
40
40
ENDCHAR
STARTCHAR  0141
ENCODING  321
SWIDTH  1000 0
DWIDTH  7 0
BBX  7 8 0 0
BITMAP
40
40
50
60
C0
40
40
7C
ENDCHAR
STARTCHAR  0142
ENCODING  322
SWIDTH  1000 0
DWIDTH  3 0
BBX  3 8 0 0
BITMAP
40
40
40
60
C0
40
40
40
ENDCHAR
STARTCHAR  0143
ENCODING  323
SWIDTH  1000 0
DWIDTH  9 0
BBX  8 10 0 0
BITMAP
08
08
41
61
51
59
49
45
43
43
ENDCHAR
STARTCHAR  0144
ENCODING  324
SWIDTH  1000 0
DWIDTH  7 0
BBX  6 8 0 0
BITMAP
10
00
78
44
44
44
44
44
ENDCHAR
STARTCHAR  0145
ENCODING  325
SWIDTH  1000 0
DWIDTH  9 0
BBX  8 10 0 -2
BITMAP
41
61
51
59
4D
45
43
43
0C
0C
ENDCHAR
STARTCHAR  0146
ENCODING  326
SWIDTH  1000 0
DWIDTH  7 0
BBX  6 8 0 -2
BITMAP
78
44
44
44
44
44
10
38
ENDCHAR
STARTCHAR  0147
ENCODING  327
SWIDTH  1000 0
DWIDTH  9 0
BBX  8 10 0 0
BITMAP
14
08
41
61
51
59
49
45
43
43
ENDCHAR
STARTCHAR  0148
ENCODING  328
SWIDTH  1000 0
DWIDTH  7 0
BBX  6 8 0 0
BITMAP
28
10
78
44
44
44
44
44
ENDCHAR
STARTCHAR  0149
ENCODING  329
SWIDTH  1000 0
DWIDTH  7 0
BBX  7 8 0 0
BITMAP
80
00
3C
22
22
22
22
22
ENDCHAR
STARTCHAR  014A
ENCODING  330
SWIDTH  1000 0
DWIDTH  9 0
BBX  8 8 0 0
BITMAP
5E
62
41
41
41
41
42
4E
ENDCHAR
STARTCHAR  014B
ENCODING  331
SWIDTH  1000 0
DWIDTH  7 0
BBX  6 8 0 -2
BITMAP
78
44
44
44
44
44
04
0C
ENDCHAR
STARTCHAR  014C
ENCODING  332
SWIDTH  1000 0
DWIDTH  9 0
BBX  9 10 0 0
BITMAP
1E00
0000
1E00
2100
4080
4080
4080
4080
2100
1E00
ENDCHAR
STARTCHAR  014D
ENCODING  333
SWIDTH  1000 0
DWIDTH  7 0
BBX  7 8 0 0
BITMAP
3C
00
3C
46
42
42
46
3C
ENDCHAR
STARTCHAR  014E
ENCODING  334
SWIDTH  1000 0
DWIDTH  9 0
BBX  9 10 0 0
BITMAP
0C00
0000
1E00
2100
4080
4080
4080
4080
2100
1E00
ENDCHAR
STARTCHAR  014F
ENCODING  335
SWIDTH  1000 0
DWIDTH  7 0
BBX  7 8 0 0
BITMAP
3C
00
3C
46
42
42
46
3C
ENDCHAR
STARTCHAR  0150
ENCODING  336
SWIDTH  1000 0
DWIDTH  9 0
BBX  9 11 0 0
BITMAP
0A00
1400
0000
1E00
2100
4080
4080
4080
4080
2100
1E00
ENDCHAR
STARTCHAR  0151
ENCODING  337
SWIDTH  1000 0
DWIDTH  7 0
BBX  7 8 0 0
BITMAP
14
2C
3C
46
42
42
46
3C
ENDCHAR
STARTCHAR  0152
ENCODING  338
SWIDTH  1000 0
DWIDTH  12 0
BBX  12 8 0 0
BITMAP
1DF0
6300
4100
41E0
4100
4100
6300
1DF0
ENDCHAR
STARTCHAR  0153
ENCODING  339
SWIDTH  1000 0
DWIDTH  12 0
BBX  12 6 0 0
BITMAP
3DC0
4620
43E0
4200
4620
3DC0
ENDCHAR
STARTCHAR  0154
ENCODING  340
SWIDTH  1000 0
DWIDTH  9 0
BBX  9 10 0 0
BITMAP
1800
1000
7E00
4100
4100
7E00
4400
4200
4300
4100
ENDCHAR
STARTCHAR  0155
ENCODING  341
SWIDTH  1000 0
DWIDTH  4 0
BBX  5 8 0 0
BITMAP
20
00
70
40
40
40
40
40
ENDCHAR
STARTCHAR  0156
ENCODING  342
SWIDTH  1000 0
DWIDTH  9 0
BBX  9 10 0 -2
BITMAP
7E00
4100
4100
7E00
4400
4200
4300
4100
0C00
1C00
ENDCHAR
STARTCHAR  0157
ENCODING  343
SWIDTH  1000 0
DWIDTH  4 0
BBX  5 8 0 -2
BITMAP
70
40
40
40
40
40
20
60
ENDCHAR
STARTCHAR  0158
ENCODING  344
SWIDTH  1000 0
DWIDTH  9 0
BBX  9 10 0 0
BITMAP
2800
1000
7E00
4100
4100
7E00
4400
4200
4300
4100
ENDCHAR
STARTCHAR  0159
ENCODING  345
SWIDTH  1000 0
DWIDTH  4 0
BBX  5 8 0 0
BITMAP
50
20
70
40
40
40
40
40
ENDCHAR
STARTCHAR  015A
ENCODING  346
SWIDTH  1000 0
DWIDTH  8 0
BBX  7 11 0 0
BITMAP
18
10
00
3C
44
40
78
0E
42
42
3C
ENDCHAR
STARTCHAR  015B
ENCODING  347
SWIDTH  1000 0
DWIDTH  6 0
BBX  6 8 0 0
BITMAP
10
00
78
44
70
0C
44
78
ENDCHAR
STARTCHAR  015C
ENCODING  348
SWIDTH  1000 0
DWIDTH  8 0
BBX  7 11 0 0
BITMAP
10
18
28
3C
44
40
78
0E
42
42
3C
ENDCHAR
STARTCHAR  015D
ENCODING  349
SWIDTH  1000 0
DWIDTH  6 0
BBX  6 8 0 0
BITMAP
38
00
78
44
70
0C
44
78
ENDCHAR
STARTCHAR  015E
ENCODING  350
SWIDTH  1000 0
DWIDTH  8 0
BBX  7 10 0 -2
BITMAP
3C
46
40
38
0E
42
46
3C
18
18
ENDCHAR
STARTCHAR  015F
ENCODING  351
SWIDTH  1000 0
DWIDTH  6 0
BBX  6 8 0 -2
BITMAP
78
44
70
0C
44
78
10
30
ENDCHAR
STARTCHAR  0160
ENCODING  352
SWIDTH  1000 0
DWIDTH  8 0
BBX  7 11 0 0
BITMAP
28
18
10
3C
44
40
78
0E
42
42
3C
ENDCHAR
STARTCHAR  0161
ENCODING  353
SWIDTH  1000 0
DWIDTH  6 0
BBX  6 8 0 0
BITMAP
28
10
78
44
70
0C
44
78
ENDCHAR
STARTCHAR  0162
ENCODING  354
SWIDTH  1000 0
DWIDTH  7 0
BBX  8 10 0 -2
BITMAP
FE
10
10
10
10
10
10
10
10
38
ENDCHAR
STARTCHAR  0163
ENCODING  355
SWIDTH  1000 0
DWIDTH  3 0
BBX  4 11 0 -2
BITMAP
00
40
40
E0
40
40
40
40
60
20
60
ENDCHAR
STARTCHAR  0164
ENCODING  356
SWIDTH  1000 0
DWIDTH  7 0
BBX  7 10 0 0
BITMAP
28
10
FE
10
10
10
10
10
10
10
ENDCHAR
STARTCHAR  0165
ENCODING  357
SWIDTH  1000 0
DWIDTH  5 0
BBX  5 8 0 0
BITMAP
50
40
E0
40
40
40
40
60
ENDCHAR
STARTCHAR  0166
ENCODING  358
SWIDTH  1000 0
DWIDTH  7 0
BBX  7 8 0 0
BITMAP
FE
10
10
10
7C
10
10
10
ENDCHAR
STARTCHAR  0167
ENCODING  359
SWIDTH  1000 0
DWIDTH  3 0
BBX  4 9 0 0
BITMAP
00
40
40
E0
40
E0
40
40
60
ENDCHAR
STARTCHAR  0168
ENCODING  360
SWIDTH  1000 0
DWIDTH  9 0
BBX  8 10 0 0
BITMAP
1E
00
41
41
41
41
41
41
43
3E
ENDCHAR
STARTCHAR  0169
ENCODING  361
SWIDTH  1000 0
DWIDTH  7 0
BBX  6 8 0 0
BITMAP
38
00
44
44
44
44
44
3C
ENDCHAR
STARTCHAR  016A
ENCODING  362
SWIDTH  1000 0
DWIDTH  9 0
BBX  8 10 0 0
BITMAP
1E
00
41
41
41
41
41
41
43
3E
ENDCHAR
STARTCHAR  016B
ENCODING  363
SWIDTH  1000 0
DWIDTH  7 0
BBX  6 8 0 0
BITMAP
38
00
44
44
44
44
44
3C
ENDCHAR
STARTCHAR  016C
ENCODING  364
SWIDTH  1000 0
DWIDTH  9 0
BBX  8 10 0 0
BITMAP
1C
00
41
41
41
41
41
41
63
3E
ENDCHAR
STARTCHAR  016D
ENCODING  365
SWIDTH  1000 0
DWIDTH  7 0
BBX  6 8 0 0
BITMAP
38
00
44
44
44
44
44
3C
ENDCHAR
STARTCHAR  016E
ENCODING  366
SWIDTH  1000 0
DWIDTH  9 0
BBX  8 11 0 0
BITMAP
08
14
08
41
41
41
41
41
41
43
3E
ENDCHAR
STARTCHAR  016F
ENCODING  367
SWIDTH  1000 0
DWIDTH  7 0
BBX  6 8 0 0
BITMAP
30
10
44
44
44
44
44
3C
ENDCHAR
STARTCHAR  0170
ENCODING  368
SWIDTH  1000 0
DWIDTH  9 0
BBX  8 11 0 0
BITMAP
1A
14
00
41
41
41
41
41
41
43
3E
ENDCHAR
STARTCHAR  0171
ENCODING  369
SWIDTH  1000 0
DWIDTH  7 0
BBX  6 8 0 0
BITMAP
28
28
44
44
44
44
44
3C
ENDCHAR
STARTCHAR  0172
ENCODING  370
SWIDTH  1000 0
DWIDTH  9 0
BBX  8 10 0 -2
BITMAP
41
41
41
41
41
41
63
3E
08
0C
ENDCHAR
STARTCHAR  0173
ENCODING  371
SWIDTH  1000 0
DWIDTH  7 0
BBX  7 8 0 -2
BITMAP
44
44
44
44
44
7C
08
0C
ENDCHAR
STARTCHAR  0174
ENCODING  372
SWIDTH  1000 0
DWIDTH  11 0
BBX  12 10 0 0
BITMAP
0600
0A00
8620
4620
4A40
4A40
4940
3140
3180
3080
ENDCHAR
STARTCHAR  0175
ENCODING  373
SWIDTH  1000 0
DWIDTH  9 0
BBX  9 8 0 0
BITMAP
1800
0000
8900
5900
5500
5600
6600
2600
ENDCHAR
STARTCHAR  0176
ENCODING  374
SWIDTH  1000 0
DWIDTH  7 0
BBX  9 10 -1 0
BITMAP
0C00
1400
4100
2200
3600
1400
0800
0800
0800
0800
ENDCHAR
STARTCHAR  0177
ENCODING  375
SWIDTH  1000 0
DWIDTH  6 0
BBX  6 10 0 -2
BITMAP
30
00
C4
48
48
30
30
30
20
60
ENDCHAR
STARTCHAR  0178
ENCODING  376
SWIDTH  1000 0
DWIDTH  7 0
BBX  9 10 -1 0
BITMAP
1400
0000
4100
2200
3600
1400
0800
0800
0800
0800
ENDCHAR
STARTCHAR  0179
ENCODING  377
SWIDTH  1000 0
DWIDTH  8 0
BBX  7 10 1 0
BITMAP
10
20
FE
04
08
10
30
60
C0
FE
ENDCHAR
STARTCHAR  017A
ENCODING  378
SWIDTH  1000 0
DWIDTH  7 0
BBX  6 8 1 0
BITMAP
10
00
FC
18
10
20
40
FC
ENDCHAR
STARTCHAR  017B
ENCODING  379
SWIDTH  1000 0
DWIDTH  8 0
BBX  9 10 0 0
BITMAP
0800
0000
7F00
0200
0400
0C00
1800
3000
6000
7F00
ENDCHAR
STARTCHAR  017C
ENCODING  380
SWIDTH  1000 0
DWIDTH  6 0
BBX  7 8 0 0
BITMAP
10
00
7C
08
10
30
60
7C
ENDCHAR
STARTCHAR  017D
ENCODING  381
SWIDTH  1000 0
DWIDTH  8 0
BBX  7 10 1 0
BITMAP
28
10
FE
04
08
10
30
60
C0
FE
ENDCHAR
STARTCHAR  017E
ENCODING  382
SWIDTH  1000 0
DWIDTH  7 0
BBX  6 8 1 0
BITMAP
30
00
FC
18
10
20
40
FC
ENDCHAR
STARTCHAR  017F
ENCODING  383
SWIDTH  1000 0
DWIDTH  3 0
BBX  4 8 0 0
BITMAP
70
40
40
40
40
40
40
40
ENDCHAR
STARTCHAR  0180
ENCODING  384
SWIDTH  1000 0
DWIDTH  6 0
BBX  6 8 0 0
BITMAP
F0
40
78
44
44
44
4C
78
ENDCHAR
STARTCHAR  0181
ENCODING  385
SWIDTH  1000 0
DWIDTH  10 0
BBX  9 8 0 0
BITMAP
7F00
5080
1080
1F00
1080
1080
1080
1F00
ENDCHAR
STARTCHAR  0182
ENCODING  386
SWIDTH  1000 0
DWIDTH  7 0
BBX  7 8 0 0
BITMAP
7C
40
40
7C
42
42
42
7C
ENDCHAR
STARTCHAR  0183
ENCODING  387
SWIDTH  1000 0
DWIDTH  6 0
BBX  6 8 0 0
BITMAP
78
40
78
44
44
44
4C
78
ENDCHAR
STARTCHAR  0184
ENCODING  388
SWIDTH  1000 0
DWIDTH  7 0
BBX  8 8 -1 0
BITMAP
20
60
20
3E
21
21
21
3E
ENDCHAR
STARTCHAR  0185
ENCODING  389
SWIDTH  1000 0
DWIDTH  6 0
BBX  6 8 0 0
BITMAP
40
C0
78
44
44
44
4C
78
ENDCHAR
STARTCHAR  0186
ENCODING  390
SWIDTH  1000 0
DWIDTH  9 0
BBX  8 8 0 0
BITMAP
3C
42
C1
01
01
01
42
3C
ENDCHAR
STARTCHAR  0187
ENCODING  391
SWIDTH  1000 0
DWIDTH  9 0
BBX  11 9 0 0
BITMAP
00C0
1F00
2100
4000
4000
4000
4180
2100
1E00
ENDCHAR
STARTCHAR  0188
ENCODING  392
SWIDTH  1000 0
DWIDTH  7 0
BBX  8 7 0 0
BITMAP
03
3C
44
40
40
44
38
ENDCHAR
STARTCHAR  0189
ENCODING  393
SWIDTH  1000 0
DWIDTH  9 0
BBX  9 8 -1 0
BITMAP
3E00
2100
2080
7880
2080
2080
2100
3E00
ENDCHAR
STARTCHAR  018A
ENCODING  394
SWIDTH  1000 0
DWIDTH  11 0
BBX  10 8 0 0
BITMAP
7F00
5080
1040
1040
1040
1040
1080
1F00
ENDCHAR
STARTCHAR  018B
ENCODING  395
SWIDTH  1000 0
DWIDTH  8 0
BBX  7 8 0 0
BITMAP
3E
02
02
3E
42
42
42
3E
ENDCHAR
STARTCHAR  018C
ENCODING  396
SWIDTH  1000 0
DWIDTH  7 0
BBX  6 8 0 0
BITMAP
3C
04
3C
44
44
44
44
3C
ENDCHAR
STARTCHAR  018D
ENCODING  397
SWIDTH  1000 0
DWIDTH  7 0
BBX  7 8 0 -2
BITMAP
3C
46
42
42
46
3C
08
7C
ENDCHAR
STARTCHAR  018E
ENCODING  398
SWIDTH  1000 0
DWIDTH  8 0
BBX  7 8 0 0
BITMAP
7E
02
02
7E
02
02
02
7E
ENDCHAR
STARTCHAR  018F
ENCODING  399
SWIDTH  1000 0
DWIDTH  9 0
BBX  9 8 0 0
BITMAP
1E00
2100
0080
7F80
4080
4080
2100
1E00
ENDCHAR
STARTCHAR  0190
ENCODING  400
SWIDTH  1000 0
DWIDTH  7 0
BBX  7 8 0 0
BITMAP
38
44
40
30
40
42
44
38
ENDCHAR
STARTCHAR  0191
ENCODING  401
SWIDTH  1000 0
DWIDTH  7 0
BBX  8 10 -1 -2
BITMAP
3F
20
20
3E
20
20
20
20
20
60
ENDCHAR
STARTCHAR  0192
ENCODING  402
SWIDTH  1000 0
DWIDTH  7 0
BBX  7 10 0 -2
BITMAP
0C
18
38
10
10
10
30
20
20
E0
ENDCHAR
STARTCHAR  0193
ENCODING  403
SWIDTH  1000 0
DWIDTH  10 0
BBX  11 9 0 0
BITMAP
00E0
1F80
2180
4000
4000
4780
4080
2080
1F00
ENDCHAR
STARTCHAR  0194
ENCODING  404
SWIDTH  1000 0
DWIDTH  7 0
BBX  9 10 -1 -2
BITMAP
4100
2200
2200
1600
1400
1C00
0800
1C00
1400
1C00
ENDCHAR
STARTCHAR  0195
ENCODING  405
SWIDTH  1000 0
DWIDTH  11 0
BBX  10 8 0 0
BITMAP
4000
4000
7840
4440
4440
4440
4440
4380
ENDCHAR
STARTCHAR  0196
ENCODING  406
SWIDTH  1000 0
DWIDTH  3 0
BBX  2 8 0 0
BITMAP
40
40
40
40
40
40
40
40
ENDCHAR
STARTCHAR  0197
ENCODING  407
SWIDTH  1000 0
DWIDTH  3 0
BBX  4 8 -1 0
BITMAP
20
20
20
70
20
20
20
20
ENDCHAR
STARTCHAR  0198
ENCODING  408
SWIDTH  1000 0
DWIDTH  8 0
BBX  8 8 0 0
BITMAP
72
44
48
70
68
44
46
43
ENDCHAR
STARTCHAR  0199
ENCODING  409
SWIDTH  1000 0
DWIDTH  6 0
BBX  7 8 0 0
BITMAP
70
40
48
50
70
50
48
4C
ENDCHAR
STARTCHAR  019A
ENCODING  410
SWIDTH  1000 0
DWIDTH  3 0
BBX  3 8 0 0
BITMAP
40
40
40
E0
40
40
40
40
ENDCHAR
STARTCHAR  019B
ENCODING  411
SWIDTH  1000 0
DWIDTH  6 0
BBX  6 8 0 0
BITMAP
30
60
30
30
30
48
48
84
ENDCHAR
STARTCHAR  019C
ENCODING  412
SWIDTH  1000 0
DWIDTH  11 0
BBX  10 8 0 0
BITMAP
4440
4440
4440
4440
4440
4440
4440
7FC0
ENDCHAR
STARTCHAR  019D
ENCODING  413
SWIDTH  1000 0
DWIDTH  9 0
BBX  9 10 -1 -2
BITMAP
2080
3080
2880
2C80
2680
2280
2180
2180
2000
6000
ENDCHAR
STARTCHAR  019E
ENCODING  414
SWIDTH  1000 0
DWIDTH  7 0
BBX  6 8 0 -2
BITMAP
78
44
44
44
44
44
04
04
ENDCHAR
STARTCHAR  019F
ENCODING  415
SWIDTH  1000 0
DWIDTH  10 0
BBX  8 8 1 0
BITMAP
3C
42
81
FF
81
C3
42
3C
ENDCHAR
STARTCHAR  01A0
ENCODING  416
SWIDTH  1000 0
DWIDTH  11 0
BBX  11 8 0 0
BITMAP
1E40
2140
4080
4080
4080
4080
2100
1E00
ENDCHAR
STARTCHAR  01A1
ENCODING  417
SWIDTH  1000 0
DWIDTH  8 0
BBX  8 6 0 0
BITMAP
3D
47
42
42
46
3C
ENDCHAR
STARTCHAR  01A2
ENCODING  418
SWIDTH  1000 0
DWIDTH  11 0
BBX  10 10 0 -2
BITMAP
1FC0
2140
4140
4140
4140
4140
2140
1F40
0040
0040
ENDCHAR
STARTCHAR  01A3
ENCODING  419
SWIDTH  1000 0
DWIDTH  9 0
BBX  8 8 0 -2
BITMAP
3F
45
45
45
45
3D
01
01
ENDCHAR
STARTCHAR  01A4
ENCODING  420
SWIDTH  1000 0
DWIDTH  9 0
BBX  9 8 0 0
BITMAP
7F00
5080
1080
1080
1F00
1000
1000
1000
ENDCHAR
STARTCHAR  01A5
ENCODING  421
SWIDTH  1000 0
DWIDTH  6 0
BBX  6 10 0 -2
BITMAP
60
40
78
44
44
44
44
78
40
40
ENDCHAR
STARTCHAR  01A6
ENCODING  422
SWIDTH  1000 0
DWIDTH  7 0
BBX  8 10 0 -2
BITMAP
40
7C
42
42
42
7C
48
4C
04
02
ENDCHAR
STARTCHAR  01A7
ENCODING  423
SWIDTH  1000 0
DWIDTH  8 0
BBX  8 8 0 0
BITMAP
3C
42
02
1C
70
43
43
3E
ENDCHAR
STARTCHAR  01A8
ENCODING  424
SWIDTH  1000 0
DWIDTH  6 0
BBX  7 6 0 0
BITMAP
38
44
1C
60
44
38
ENDCHAR
STARTCHAR  01A9
ENCODING  425
SWIDTH  1000 0
DWIDTH  7 0
BBX  7 8 1 0
BITMAP
FC
40
20
30
30
60
C0
FC
ENDCHAR
STARTCHAR  01AA
ENCODING  426
SWIDTH  1000 0
DWIDTH  4 0
BBX  5 10 0 -2
BITMAP
E0
60
20
20
20
20
20
20
20
30
ENDCHAR
STARTCHAR  01AB
ENCODING  427
SWIDTH  1000 0
DWIDTH  3 0
BBX  3 11 0 -2
BITMAP
00
40
40
E0
40
40
40
40
60
20
60
ENDCHAR
STARTCHAR  01AC
ENCODING  428
SWIDTH  1000 0
DWIDTH  8 0
BBX  8 8 0 0
BITMAP
7F
48
08
08
08
08
08
08
ENDCHAR
STARTCHAR  01AD
ENCODING  429
SWIDTH  1000 0
DWIDTH  3 0
BBX  4 8 0 0
BITMAP
70
40
E0
40
40
40
40
60
ENDCHAR
STARTCHAR  01AE
ENCODING  430
SWIDTH  1000 0
DWIDTH  7 0
BBX  7 10 0 -2
BITMAP
FE
10
10
10
10
10
10
10
10
18
ENDCHAR
STARTCHAR  01AF
ENCODING  431
SWIDTH  1000 0
DWIDTH  10 0
BBX  10 8 0 0
BITMAP
4140
4140
4180
4100
4100
4100
6300
3E00
ENDCHAR
STARTCHAR  01B0
ENCODING  432
SWIDTH  1000 0
DWIDTH  8 0
BBX  8 6 0 0
BITMAP
45
45
46
44
44
3C
ENDCHAR
STARTCHAR  01B1
ENCODING  433
SWIDTH  1000 0
DWIDTH  9 0
BBX  9 8 0 0
BITMAP
7700
2200
4100
4100
4100
4100
2200
1C00
ENDCHAR
STARTCHAR  01B2
ENCODING  434
SWIDTH  1000 0
DWIDTH  9 0
BBX  8 9 0 0
BITMAP
00
46
41
41
41
41
43
62
3C
ENDCHAR
STARTCHAR  01B3
ENCODING  435
SWIDTH  1000 0
DWIDTH  10 0
BBX  10 8 0 0
BITMAP
41C0
2200
3600
1400
0800
0800
0800
0800
ENDCHAR
STARTCHAR  01B4
ENCODING  436
SWIDTH  1000 0
DWIDTH  6 0
BBX  9 10 0 -2
BITMAP
0300
0400
C400
4800
4800
3800
3000
3000
2000
6000
ENDCHAR
STARTCHAR  01B5
ENCODING  437
SWIDTH  1000 0
DWIDTH  8 0
BBX  7 8 1 0
BITMAP
FE
0C
18
FE
20
40
C0
FE
ENDCHAR
STARTCHAR  01B6
ENCODING  438
SWIDTH  1000 0
DWIDTH  7 0
BBX  6 6 1 0
BITMAP
FC
18
FC
60
40
FC
ENDCHAR
STARTCHAR  01B7
ENCODING  439
SWIDTH  1000 0
DWIDTH  7 0
BBX  7 10 0 -2
BITMAP
7E
04
08
10
0C
02
02
02
C4
78
ENDCHAR
STARTCHAR  01B8
ENCODING  440
SWIDTH  1000 0
DWIDTH  8 0
BBX  8 10 0 -2
BITMAP
7E
20
10
18
70
40
40
40
62
3C
ENDCHAR
STARTCHAR  01B9
ENCODING  441
SWIDTH  1000 0
DWIDTH  7 0
BBX  7 8 0 -2
BITMAP
7C
20
10
70
40
40
44
38
ENDCHAR
STARTCHAR  01BA
ENCODING  442
SWIDTH  1000 0
DWIDTH  7 0
BBX  7 8 0 -2
BITMAP
7C
08
18
04
0C
70
46
7C
ENDCHAR
STARTCHAR  01BB
ENCODING  443
SWIDTH  1000 0
DWIDTH  7 0
BBX  6 8 0 0
BITMAP
78
C4
04
FC
10
60
40
FC
ENDCHAR
STARTCHAR  01BC
ENCODING  444
SWIDTH  1000 0
DWIDTH  6 0
BBX  6 8 0 0
BITMAP
7C
20
38
0C
04
44
4C
38
ENDCHAR
STARTCHAR  01BD
ENCODING  445
SWIDTH  1000 0
DWIDTH  5 0
BBX  6 6 -1 0
BITMAP
7C
20
38
04
44
38
ENDCHAR
STARTCHAR  01BE
ENCODING  446
SWIDTH  1000 0
DWIDTH  5 0
BBX  5 9 0 0
BITMAP
00
40
40
E0
40
60
18
88
70
ENDCHAR
STARTCHAR  01BF
ENCODING  447
SWIDTH  1000 0
DWIDTH  6 0
BBX  6 8 0 -2
BITMAP
78
44
44
44
48
50
60
40
ENDCHAR
STARTCHAR  01C0
ENCODING  448
SWIDTH  1000 0
DWIDTH  3 0
BBX  2 8 0 0
BITMAP
40
40
40
40
40
40
40
40
ENDCHAR
STARTCHAR  01C1
ENCODING  449
SWIDTH  1000 0
DWIDTH  5 0
BBX  4 8 0 0
BITMAP
50
50
50
50
50
50
50
50
ENDCHAR
STARTCHAR  01C2
ENCODING  450
SWIDTH  1000 0
DWIDTH  7 0
BBX  7 8 0 0
BITMAP
10
10
FC
10
10
FC
10
10
ENDCHAR
STARTCHAR  01C3
ENCODING  451
SWIDTH  1000 0
DWIDTH  3 0
BBX  2 8 0 0
BITMAP
40
40
40
40
40
40
00
40
ENDCHAR
STARTCHAR  01C4
ENCODING  452
SWIDTH  1000 0
DWIDTH  16 0
BBX  16 10 0 0
BITMAP
0014
0008
7C7E
4206
4104
4108
4110
4130
4260
7C7F
ENDCHAR
STARTCHAR  01C5
ENCODING  453
SWIDTH  1000 0
DWIDTH  15 0
BBX  15 8 0 0
BITMAP
7C28
4210
417C
410C
4118
4110
4220
7C7E
ENDCHAR
STARTCHAR  01C6
ENCODING  454
SWIDTH  1000 0
DWIDTH  13 0
BBX  13 8 0 0
BITMAP
04E0
0400
3CF0
4430
4420
4440
4480
3DF8
ENDCHAR
STARTCHAR  01C7
ENCODING  455
SWIDTH  1000 0
DWIDTH  13 0
BBX  12 8 0 0
BITMAP
4010
4010
4010
4010
4010
4010
4110
7CE0
ENDCHAR
STARTCHAR  01C8
ENCODING  456
SWIDTH  1000 0
DWIDTH  10 0
BBX  9 10 0 -2
BITMAP
4080
4000
4080
4080
4080
4080
4080
7C80
0080
0180
ENDCHAR
STARTCHAR  01C9
ENCODING  457
SWIDTH  1000 0
DWIDTH  6 0
BBX  5 10 0 -2
BITMAP
48
40
48
48
48
48
48
48
08
38
ENDCHAR
STARTCHAR  01CA
ENCODING  458
SWIDTH  1000 0
DWIDTH  15 0
BBX  14 8 0 0
BITMAP
4104
6104
5104
5904
4D04
4504
4344
4338
ENDCHAR
STARTCHAR  01CB
ENCODING  459
SWIDTH  1000 0
DWIDTH  12 0
BBX  11 10 0 -2
BITMAP
4120
6100
5120
5920
4D20
4520
4320
4320
0020
0060
ENDCHAR
STARTCHAR  01CC
ENCODING  460
SWIDTH  1000 0
DWIDTH  10 0
BBX  9 10 0 -2
BITMAP
0080
0000
7880
4480
4480
4480
4480
4480
0080
0380
ENDCHAR
STARTCHAR  01CD
ENCODING  461
SWIDTH  1000 0
DWIDTH  8 0
BBX  10 10 -1 0
BITMAP
1C00
0800
0C00
0C00
1600
1200
3200
3F00
2100
4180
ENDCHAR
STARTCHAR  01CE
ENCODING  462
SWIDTH  1000 0
DWIDTH  7 0
BBX  7 8 0 0
BITMAP
38
00
38
44
1C
64
44
7C
ENDCHAR
STARTCHAR  01CF
ENCODING  463
SWIDTH  1000 0
DWIDTH  3 0
BBX  5 10 -1 0
BITMAP
50
20
20
20
20
20
20
20
20
20
ENDCHAR
STARTCHAR  01D0
ENCODING  464
SWIDTH  1000 0
DWIDTH  3 0
BBX  5 8 -1 0
BITMAP
50
20
20
20
20
20
20
20
ENDCHAR
STARTCHAR  01D1
ENCODING  465
SWIDTH  1000 0
DWIDTH  9 0
BBX  9 10 0 0
BITMAP
1C00
0C00
1E00
2100
4080
4080
4080
4080
2100
1E00
ENDCHAR
STARTCHAR  01D2
ENCODING  466
SWIDTH  1000 0
DWIDTH  7 0
BBX  7 8 0 0
BITMAP
38
00
3C
46
42
42
46
3C
ENDCHAR
STARTCHAR  01D3
ENCODING  467
SWIDTH  1000 0
DWIDTH  9 0
BBX  8 10 0 0
BITMAP
14
08
41
41
41
41
41
41
63
3E
ENDCHAR
STARTCHAR  01D4
ENCODING  468
SWIDTH  1000 0
DWIDTH  7 0
BBX  6 8 0 0
BITMAP
28
10
44
44
44
44
44
3C
ENDCHAR
STARTCHAR  01D5
ENCODING  469
SWIDTH  1000 0
DWIDTH  9 0
BBX  8 11 0 0
BITMAP
1C
00
14
41
41
41
41
41
41
43
3E
ENDCHAR
STARTCHAR  01D6
ENCODING  470
SWIDTH  1000 0
DWIDTH  7 0
BBX  6 10 0 0
BITMAP
38
00
28
00
44
44
44
44
44
3C
ENDCHAR
STARTCHAR  01D7
ENCODING  471
SWIDTH  1000 0
DWIDTH  9 0
BBX  8 11 0 0
BITMAP
00
08
14
41
41
41
41
41
41
43
3E
ENDCHAR
STARTCHAR  01D8
ENCODING  472
SWIDTH  1000 0
DWIDTH  7 0
BBX  6 11 0 0
BITMAP
08
10
00
28
00
44
44
44
44
44
3C
ENDCHAR
STARTCHAR  01D9
ENCODING  473
SWIDTH  1000 0
DWIDTH  9 0
BBX  8 11 0 0
BITMAP
00
08
14
41
41
41
41
41
41
43
3E
ENDCHAR
STARTCHAR  01DA
ENCODING  474
SWIDTH  1000 0
DWIDTH  7 0
BBX  6 11 0 0
BITMAP
28
10
00
28
00
44
44
44
44
44
3C
ENDCHAR
STARTCHAR  01DB
ENCODING  475
SWIDTH  1000 0
DWIDTH  9 0
BBX  8 11 0 0
BITMAP
00
08
14
41
41
41
41
41
41
43
3E
ENDCHAR
STARTCHAR  01DC
ENCODING  476
SWIDTH  1000 0
DWIDTH  7 0
BBX  6 11 0 0
BITMAP
20
10
00
28
00
44
44
44
44
44
3C
ENDCHAR
STARTCHAR  01DD
ENCODING  477
SWIDTH  1000 0
DWIDTH  6 0
BBX  6 6 0 0
BITMAP
78
4C
04
FC
44
78
ENDCHAR
STARTCHAR  01DE
ENCODING  478
SWIDTH  1000 0
DWIDTH  8 0
BBX  10 10 -1 0
BITMAP
1C00
1000
0C00
0C00
1600
1200
3200
3F00
2100
4180
ENDCHAR
STARTCHAR  01DF
ENCODING  479
SWIDTH  1000 0
DWIDTH  7 0
BBX  7 10 0 0
BITMAP
3C
00
24
00
38
44
1C
64
44
7C
ENDCHAR
STARTCHAR  01E0
ENCODING  480
SWIDTH  1000 0
DWIDTH  8 0
BBX  10 10 -1 0
BITMAP
1C00
0000
0C00
0C00
1600
1200
3200
3F00
2100
4180
ENDCHAR
STARTCHAR  01E1
ENCODING  481
SWIDTH  1000 0
DWIDTH  7 0
BBX  7 10 0 0
BITMAP
38
00
10
00
38
44
1C
64
44
7C
ENDCHAR
STARTCHAR  01E2
ENCODING  482
SWIDTH  1000 0
DWIDTH  12 0
BBX  12 10 0 0
BITMAP
03C0
0000
0FE0
0A00
1200
33E0
2200
7E00
4200
C3E0
ENDCHAR
STARTCHAR  01E3
ENCODING  483
SWIDTH  1000 0
DWIDTH  11 0
BBX  11 8 0 0
BITMAP
0F00
0000
3BC0
4460
3FE0
4400
4460
7BC0
ENDCHAR
STARTCHAR  01E4
ENCODING  484
SWIDTH  1000 0
DWIDTH  10 0
BBX  10 8 0 0
BITMAP
1E00
2100
4000
4000
4780
4780
2180
1F00
ENDCHAR
STARTCHAR  01E5
ENCODING  485
SWIDTH  1000 0
DWIDTH  7 0
BBX  7 8 0 -2
BITMAP
3C
44
44
44
3C
7C
4C
38
ENDCHAR
STARTCHAR  01E6
ENCODING  486
SWIDTH  1000 0
DWIDTH  10 0
BBX  9 10 0 0
BITMAP
0A00
0400
1E00
2100
4000
4000
4780
4080
2080
1F00
ENDCHAR
STARTCHAR  01E7
ENCODING  487
SWIDTH  1000 0
DWIDTH  7 0
BBX  6 10 0 -2
BITMAP
28
10
3C
44
44
44
44
3C
44
38
ENDCHAR
STARTCHAR  01E8
ENCODING  488
SWIDTH  1000 0
DWIDTH  8 0
BBX  8 10 0 0
BITMAP
28
10
42
44
48
70
68
44
46
43
ENDCHAR
STARTCHAR  01E9
ENCODING  489
SWIDTH  1000 0
DWIDTH  6 0
BBX  7 10 0 0
BITMAP
30
30
40
40
48
50
70
50
48
4C
ENDCHAR
STARTCHAR  01EA
ENCODING  490
SWIDTH  1000 0
DWIDTH  9 0
BBX  9 10 0 -2
BITMAP
1E00
2100
4080
4080
4080
4080
2100
1E00
0800
0C00
ENDCHAR
STARTCHAR  01EB
ENCODING  491
SWIDTH  1000 0
DWIDTH  7 0
BBX  7 8 0 -2
BITMAP
3C
46
42
42
46
3C
10
18
ENDCHAR
STARTCHAR  01EC
ENCODING  492
SWIDTH  1000 0
DWIDTH  9 0
BBX  9 12 0 -2
BITMAP
1E00
0000
1E00
2100
4080
4080
4080
4080
2100
1E00
0800
0C00
ENDCHAR
STARTCHAR  01ED
ENCODING  493
SWIDTH  1000 0
DWIDTH  7 0
BBX  7 10 0 -2
BITMAP
3C
00
3C
46
42
42
46
3C
10
18
ENDCHAR
STARTCHAR  01EE
ENCODING  494
SWIDTH  1000 0
DWIDTH  7 0
BBX  7 13 0 -2
BITMAP
2C
18
00
7E
04
08
10
0C
02
02
02
C4
78
ENDCHAR
STARTCHAR  01EF
ENCODING  495
SWIDTH  1000 0
DWIDTH  6 0
BBX  6 10 0 -2
BITMAP
38
00
7C
08
10
38
04
04
4C
78
ENDCHAR
STARTCHAR  01F0
ENCODING  496
SWIDTH  1000 0
DWIDTH  3 0
BBX  5 10 -1 -2
BITMAP
50
20
20
20
20
20
20
20
20
60
ENDCHAR
STARTCHAR  01F1
ENCODING  497
SWIDTH  1000 0
DWIDTH  16 0
BBX  16 8 0 0
BITMAP
7C7E
4206
4104
4108
4110
4130
4260
7C7F
ENDCHAR
STARTCHAR  01F2
ENCODING  498
SWIDTH  1000 0
DWIDTH  15 0
BBX  15 8 0 0
BITMAP
7C00
4200
417C
410C
4118
4110
4220
7C7E
ENDCHAR
STARTCHAR  01F3
ENCODING  499
SWIDTH  1000 0
DWIDTH  13 0
BBX  13 8 0 0
BITMAP
0400
0400
3CF0
4430
4420
4440
4480
3DF8
ENDCHAR
STARTCHAR  01F4
ENCODING  500
SWIDTH  1000 0
DWIDTH  10 0
BBX  9 11 0 0
BITMAP
0600
0400
0000
1E00
2100
4000
4000
4780
4080
2080
1F00
ENDCHAR
STARTCHAR  01F5
ENCODING  501
SWIDTH  1000 0
DWIDTH  7 0
BBX  6 10 0 -2
BITMAP
10
00
3C
44
44
44
44
3C
44
38
ENDCHAR
STARTCHAR  01F6
ENCODING  502
SWIDTH  1000 0
DWIDTH  13 0
BBX  12 8 0 0
BITMAP
4100
4100
4110
7F10
4110
4110
4110
40E0
ENDCHAR
STARTCHAR  01F7
ENCODING  503
SWIDTH  1000 0
DWIDTH  7 0
BBX  7 10 0 -2
BITMAP
7C
42
42
42
46
44
48
50
60
40
ENDCHAR
STARTCHAR  01F8
ENCODING  504
SWIDTH  1000 0
DWIDTH  9 0
BBX  8 10 0 0
BITMAP
10
08
41
61
51
59
49
45
43
43
ENDCHAR
STARTCHAR  01F9
ENCODING  505
SWIDTH  1000 0
DWIDTH  7 0
BBX  6 8 0 0
BITMAP
30
00
78
44
44
44
44
44
ENDCHAR
STARTCHAR  01FA
ENCODING  506
SWIDTH  1000 0
DWIDTH  8 0
BBX  9 12 0 0
BITMAP
0800
0800
1800
2800
1800
1800
3C00
2400
2600
7E00
4200
C100
ENDCHAR
STARTCHAR  01FB
ENCODING  507
SWIDTH  1000 0
DWIDTH  7 0
BBX  7 11 0 0
BITMAP
08
10
00
10
10
38
44
1C
64
44
7C
ENDCHAR
STARTCHAR  01FC
ENCODING  508
SWIDTH  1000 0
DWIDTH  12 0
BBX  12 10 0 0
BITMAP
0200
0400
0FE0
0A00
1200
33E0
2200
7E00
4200
C3E0
ENDCHAR
STARTCHAR  01FD
ENCODING  509
SWIDTH  1000 0
DWIDTH  11 0
BBX  11 8 0 0
BITMAP
0200
0000
3BC0
4460
3FE0
4400
4460
7BC0
ENDCHAR
STARTCHAR  01FE
ENCODING  510
SWIDTH  1000 0
DWIDTH  10 0
BBX  10 12 0 -1
BITMAP
0400
0C00
0000
1E80
2100
4280
4480
4880
5080
2100
5E00
0000
ENDCHAR
STARTCHAR  01FF
ENCODING  511
SWIDTH  1000 0
DWIDTH  8 0
BBX  7 9 0 -1
BITMAP
08
00
3E
46
4A
52
66
7C
00
ENDCHAR
STARTCHAR  0200
ENCODING  512
SWIDTH  1000 0
DWIDTH  8 0
BBX  10 10 -1 0
BITMAP
1400
1000
0C00
0C00
1600
1200
3200
3F00
2100
4180
ENDCHAR
STARTCHAR  0201
ENCODING  513
SWIDTH  1000 0
DWIDTH  7 0
BBX  7 8 0 0
BITMAP
38
28
38
44
1C
64
44
7C
ENDCHAR
STARTCHAR  0202
ENCODING  514
SWIDTH  1000 0
DWIDTH  8 0
BBX  10 10 -1 0
BITMAP
0C00
1200
0C00
0C00
1600
1200
3200
3F00
2100
4180
ENDCHAR
STARTCHAR  0203
ENCODING  515
SWIDTH  1000 0
DWIDTH  7 0
BBX  7 8 0 0
BITMAP
38
20
38
44
1C
64
44
7C
ENDCHAR
STARTCHAR  0204
ENCODING  516
SWIDTH  1000 0
DWIDTH  8 0
BBX  8 10 0 0
BITMAP
28
28
7E
40
40
7E
40
40
40
7E
ENDCHAR
STARTCHAR  0205
ENCODING  517
SWIDTH  1000 0
DWIDTH  7 0
BBX  7 8 0 0
BITMAP
28
28
38
44
7C
40
44
38
ENDCHAR
STARTCHAR  0206
ENCODING  518
SWIDTH  1000 0
DWIDTH  8 0
BBX  8 10 0 0
BITMAP
18
24
7E
40
40
7E
40
40
40
7E
ENDCHAR
STARTCHAR  0207
ENCODING  519
SWIDTH  1000 0
DWIDTH  7 0
BBX  7 8 0 0
BITMAP
38
20
38
44
7C
40
44
38
ENDCHAR
STARTCHAR  0208
ENCODING  520
SWIDTH  1000 0
DWIDTH  3 0
BBX  5 10 -1 0
BITMAP
F0
50
20
20
20
20
20
20
20
20
ENDCHAR
STARTCHAR  0209
ENCODING  521
SWIDTH  1000 0
DWIDTH  3 0
BBX  5 8 -2 0
BITMAP
50
28
10
10
10
10
10
10
ENDCHAR
STARTCHAR  020A
ENCODING  522
SWIDTH  1000 0
DWIDTH  3 0
BBX  5 10 -1 0
BITMAP
70
50
20
20
20
20
20
20
20
20
ENDCHAR
STARTCHAR  020B
ENCODING  523
SWIDTH  1000 0
DWIDTH  3 0
BBX  5 8 -1 0
BITMAP
70
10
20
20
20
20
20
20
ENDCHAR
STARTCHAR  020C
ENCODING  524
SWIDTH  1000 0
DWIDTH  9 0
BBX  9 11 0 0
BITMAP
3400
1400
0000
1E00
2100
4080
4080
4080
4080
2100
1E00
ENDCHAR
STARTCHAR  020D
ENCODING  525
SWIDTH  1000 0
DWIDTH  7 0
BBX  7 8 0 0
BITMAP
28
28
3C
46
42
42
46
3C
ENDCHAR
STARTCHAR  020E
ENCODING  526
SWIDTH  1000 0
DWIDTH  9 0
BBX  9 10 0 0
BITMAP
0C00
1200
1E00
2100
4080
4080
4080
4080
2100
1E00
ENDCHAR
STARTCHAR  020F
ENCODING  527
SWIDTH  1000 0
DWIDTH  7 0
BBX  7 8 0 0
BITMAP
18
24
3C
46
42
42
46
3C
ENDCHAR
STARTCHAR  0210
ENCODING  528
SWIDTH  1000 0
DWIDTH  9 0
BBX  9 10 0 0
BITMAP
2800
2400
7E00
4100
4100
7E00
4400
4200
4300
4100
ENDCHAR
STARTCHAR  0211
ENCODING  529
SWIDTH  1000 0
DWIDTH  4 0
BBX  6 8 -1 0
BITMAP
50
28
38
20
20
20
20
20
ENDCHAR
STARTCHAR  0212
ENCODING  530
SWIDTH  1000 0
DWIDTH  9 0
BBX  9 10 0 0
BITMAP
1800
2400
7E00
4100
4100
7E00
4400
4200
4300
4100
ENDCHAR
STARTCHAR  0213
ENCODING  531
SWIDTH  1000 0
DWIDTH  4 0
BBX  5 8 0 0
BITMAP
70
10
70
40
40
40
40
40
ENDCHAR
STARTCHAR  0214
ENCODING  532
SWIDTH  1000 0
DWIDTH  9 0
BBX  8 11 0 0
BITMAP
2C
14
00
41
41
41
41
41
41
43
3E
ENDCHAR
STARTCHAR  0215
ENCODING  533
SWIDTH  1000 0
DWIDTH  7 0
BBX  6 8 0 0
BITMAP
50
28
44
44
44
44
44
3C
ENDCHAR
STARTCHAR  0216
ENCODING  534
SWIDTH  1000 0
DWIDTH  9 0
BBX  8 10 0 0
BITMAP
1C
04
41
41
41
41
41
41
43
3E
ENDCHAR
STARTCHAR  0217
ENCODING  535
SWIDTH  1000 0
DWIDTH  7 0
BBX  6 8 0 0
BITMAP
38
08
44
44
44
44
44
3C
ENDCHAR
STARTCHAR  0218
ENCODING  536
SWIDTH  1000 0
DWIDTH  8 0
BBX  7 12 0 -4
BITMAP
3C
44
40
78
0E
42
42
3C
00
10
10
00
ENDCHAR
STARTCHAR  0219
ENCODING  537
SWIDTH  1000 0
DWIDTH  6 0
BBX  6 10 0 -4
BITMAP
78
44
70
0C
44
78
00
10
10
00
ENDCHAR
STARTCHAR  021A
ENCODING  538
SWIDTH  1000 0
DWIDTH  7 0
BBX  7 12 0 -4
BITMAP
FE
10
10
10
10
10
10
10
00
10
10
00
ENDCHAR
STARTCHAR  021B
ENCODING  539
SWIDTH  1000 0
DWIDTH  3 0
BBX  3 13 0 -4
BITMAP
00
40
40
E0
40
40
40
40
60
00
00
00
00
ENDCHAR
STARTCHAR  021C
ENCODING  540
SWIDTH  1000 0
DWIDTH  7 0
BBX  6 11 0 -3
BITMAP
78
44
04
04
08
74
04
0C
18
60
00
ENDCHAR
STARTCHAR  021D
ENCODING  541
SWIDTH  1000 0
DWIDTH  5 0
BBX  5 9 0 -3
BITMAP
70
48
08
10
68
08
18
60
00
ENDCHAR
STARTCHAR  021E
ENCODING  542
SWIDTH  1000 0
DWIDTH  9 0
BBX  8 10 0 0
BITMAP
14
08
41
41
41
7F
41
41
41
41
ENDCHAR
STARTCHAR  021F
ENCODING  543
SWIDTH  1000 0
DWIDTH  7 0
BBX  6 10 0 0
BITMAP
28
10
40
40
78
44
44
44
44
44
ENDCHAR
STARTCHAR  0220
ENCODING  544
SWIDTH  1000 0
DWIDTH  8 0
BBX  7 10 0 -2
BITMAP
7C
42
42
42
42
42
42
42
02
02
ENDCHAR
STARTCHAR  0221
ENCODING  545
SWIDTH  1000 0
DWIDTH  9 0
BBX  9 10 0 -2
BITMAP
0400
0400
3C00
4400
4400
4400
4400
3F00
0C80
0F80
ENDCHAR
STARTCHAR  0222
ENCODING  546
SWIDTH  1000 0
DWIDTH  7 0
BBX  7 8 0 0
BITMAP
3C
42
42
3C
46
42
42
3C
ENDCHAR
STARTCHAR  0223
ENCODING  547
SWIDTH  1000 0
DWIDTH  7 0
BBX  7 9 0 0
BITMAP
00
68
44
44
38
46
42
42
3C
ENDCHAR
STARTCHAR  0224
ENCODING  548
SWIDTH  1000 0
DWIDTH  9 0
BBX  7 10 1 -2
BITMAP
7E
04
0C
18
30
60
40
FC
02
00
ENDCHAR
STARTCHAR  0225
ENCODING  549
SWIDTH  1000 0
DWIDTH  7 0
BBX  6 8 1 -2
BITMAP
FC
18
30
20
40
F8
04
00
ENDCHAR
STARTCHAR  0226
ENCODING  550
SWIDTH  1000 0
DWIDTH  7 0
BBX  9 10 -1 0
BITMAP
0800
0000
0800
1400
1400
3400
2200
3E00
4300
4100
ENDCHAR
STARTCHAR  0227
ENCODING  551
SWIDTH  1000 0
DWIDTH  7 0
BBX  7 8 0 0
BITMAP
10
00
38
44
1C
64
44
7C
ENDCHAR
STARTCHAR  0228
ENCODING  552
SWIDTH  1000 0
DWIDTH  8 0
BBX  8 10 0 -2
BITMAP
7E
40
40
7E
40
40
40
7E
10
18
ENDCHAR
STARTCHAR  0229
ENCODING  553
SWIDTH  1000 0
DWIDTH  7 0
BBX  7 8 0 -2
BITMAP
38
44
7C
40
64
38
18
18
ENDCHAR
STARTCHAR  022A
ENCODING  554
SWIDTH  1000 0
DWIDTH  9 0
BBX  9 11 0 0
BITMAP
1C00
0000
1000
1E00
2100
4080
4080
4080
4080
2100
1E00
ENDCHAR
STARTCHAR  022B
ENCODING  555
SWIDTH  1000 0
DWIDTH  7 0
BBX  7 10 0 0
BITMAP
3C
00
24
00
3C
46
42
42
46
3C
ENDCHAR
STARTCHAR  022C
ENCODING  556
SWIDTH  1000 0
DWIDTH  9 0
BBX  9 11 0 0
BITMAP
1E00
0800
1400
1E00
2100
4080
4080
4080
4080
2100
1E00
ENDCHAR
STARTCHAR  022D
ENCODING  557
SWIDTH  1000 0
DWIDTH  7 0
BBX  7 10 0 0
BITMAP
3C
00
3C
00
3C
46
42
42
46
3C
ENDCHAR
STARTCHAR  022E
ENCODING  558
SWIDTH  1000 0
DWIDTH  9 0
BBX  9 10 0 0
BITMAP
0400
0000
1E00
2100
4080
4080
4080
4080
2100
1E00
ENDCHAR
STARTCHAR  022F
ENCODING  559
SWIDTH  1000 0
DWIDTH  7 0
BBX  7 8 0 0
BITMAP
10
00
3C
46
42
42
46
3C
ENDCHAR
STARTCHAR  0230
ENCODING  560
SWIDTH  1000 0
DWIDTH  9 0
BBX  9 11 0 0
BITMAP
1C00
0000
0000
1E00
2100
4080
4080
4080
4080
2100
1E00
ENDCHAR
STARTCHAR  0231
ENCODING  561
SWIDTH  1000 0
DWIDTH  6 0
BBX  6 10 0 0
BITMAP
38
00
10
00
38
44
44
44
44
38
ENDCHAR
STARTCHAR  0232
ENCODING  562
SWIDTH  1000 0
DWIDTH  7 0
BBX  9 10 -1 0
BITMAP
1C00
0000
4100
2200
3600
1400
0800
0800
0800
0800
ENDCHAR
STARTCHAR  0233
ENCODING  563
SWIDTH  1000 0
DWIDTH  6 0
BBX  6 10 0 -2
BITMAP
78
00
C4
48
48
30
30
30
20
60
ENDCHAR
STARTCHAR  0234
ENCODING  564
SWIDTH  1000 0
DWIDTH  4 0
BBX  5 10 -1 -2
BITMAP
20
20
20
20
20
20
20
30
68
78
ENDCHAR
STARTCHAR  0235
ENCODING  565
SWIDTH  1000 0
DWIDTH  8 0
BBX  8 8 0 -2
BITMAP
78
44
44
44
44
46
0D
0F
ENDCHAR
STARTCHAR  0236
ENCODING  566
SWIDTH  1000 0
DWIDTH  4 0
BBX  5 9 -1 0
BITMAP
00
20
20
70
20
20
38
68
78
ENDCHAR
STARTCHAR  0237
ENCODING  567
SWIDTH  1000 0
DWIDTH  3 0
BBX  3 8 -1 -2
BITMAP
20
20
20
20
20
20
20
60
ENDCHAR
STARTCHAR  0238
ENCODING  568
SWIDTH  1000 0
DWIDTH  10 0
BBX  10 8 0 0
BITMAP
0400
0400
3F80
4440
4440
4440
44C0
3F80
ENDCHAR
STARTCHAR  0239
ENCODING  569
SWIDTH  1000 0
DWIDTH  10 0
BBX  10 8 0 -2
BITMAP
3F80
4440
4440
4440
4440
3F80
0400
0400
ENDCHAR
STARTCHAR  023A
ENCODING  570
SWIDTH  1000 0
DWIDTH  8 0
BBX  10 10 -1 -1
BITMAP
0100
0D00
0E00
1600
1600
3600
3F00
3100
6180
2000
ENDCHAR
STARTCHAR  023B
ENCODING  571
SWIDTH  1000 0
DWIDTH  9 0
BBX  9 10 0 -1
BITMAP
0100
1E00
2300
4400
4400
4800
5100
7100
3E00
4000
ENDCHAR
STARTCHAR  023C
ENCODING  572
SWIDTH  1000 0
DWIDTH  6 0
BBX  7 10 0 -2
BITMAP
04
04
38
4C
50
50
64
38
40
40
ENDCHAR
STARTCHAR  023D
ENCODING  573
SWIDTH  1000 0
DWIDTH  7 0
BBX  7 8 0 0
BITMAP
40
40
40
F0
40
40
40
7C
ENDCHAR
STARTCHAR  023E
ENCODING  574
SWIDTH  1000 0
DWIDTH  7 0
BBX  7 9 0 -1
BITMAP
FE
18
18
10
10
30
50
50
80
ENDCHAR
STARTCHAR  023F
ENCODING  575
SWIDTH  1000 0
DWIDTH  6 0
BBX  6 8 0 -2
BITMAP
78
44
70
0C
44
78
30
1C
ENDCHAR
STARTCHAR  0240
ENCODING  576
SWIDTH  1000 0
DWIDTH  7 0
BBX  6 8 1 -2
BITMAP
FC
18
30
20
40
C0
30
1C
ENDCHAR
STARTCHAR  0241
ENCODING  577
SWIDTH  1000 0
DWIDTH  8 0
BBX  7 8 0 0
BITMAP
7C
46
02
02
06
18
10
10
ENDCHAR
STARTCHAR  0250
ENCODING  592
SWIDTH  1000 0
DWIDTH  7 0
BBX  7 6 0 0
BITMAP
7C
44
4C
70
44
78
ENDCHAR
STARTCHAR  0251
ENCODING  593
SWIDTH  1000 0
DWIDTH  7 0
BBX  6 6 0 0
BITMAP
34
44
44
44
44
3C
ENDCHAR
STARTCHAR  0252
ENCODING  594
SWIDTH  1000 0
DWIDTH  6 0
BBX  6 6 0 0
BITMAP
78
44
44
44
44
78
ENDCHAR
STARTCHAR  0253
ENCODING  595
SWIDTH  1000 0
DWIDTH  6 0
BBX  6 8 0 0
BITMAP
60
40
78
44
44
44
4C
78
ENDCHAR
STARTCHAR  0254
ENCODING  596
SWIDTH  1000 0
DWIDTH  6 0
BBX  6 6 0 0
BITMAP
78
44
04
04
44
38
ENDCHAR
STARTCHAR  0255
ENCODING  597
SWIDTH  1000 0
DWIDTH  6 0
BBX  7 7 0 -1
BITMAP
38
44
40
5C
64
78
00
ENDCHAR
STARTCHAR  0256
ENCODING  598
SWIDTH  1000 0
DWIDTH  7 0
BBX  8 10 0 -2
BITMAP
04
04
3C
44
44
44
44
3C
04
06
ENDCHAR
STARTCHAR  0257
ENCODING  599
SWIDTH  1000 0
DWIDTH  7 0
BBX  8 8 0 0
BITMAP
07
04
3C
44
44
44
44
3C
ENDCHAR
STARTCHAR  0258
ENCODING  600
SWIDTH  1000 0
DWIDTH  6 0
BBX  6 6 0 0
BITMAP
78
44
FC
04
4C
78
ENDCHAR
STARTCHAR  0259
ENCODING  601
SWIDTH  1000 0
DWIDTH  6 0
BBX  6 6 0 0
BITMAP
78
4C
04
FC
44
78
ENDCHAR
STARTCHAR  025A
ENCODING  602
SWIDTH  1000 0
DWIDTH  10 0
BBX  10 6 0 0
BITMAP
3C00
4600
3F00
43C0
4600
3C00
ENDCHAR
STARTCHAR  025B
ENCODING  603
SWIDTH  1000 0
DWIDTH  6 0
BBX  6 6 0 0
BITMAP
78
48
30
40
48
38
ENDCHAR
STARTCHAR  025C
ENCODING  604
SWIDTH  1000 0
DWIDTH  6 0
BBX  5 6 0 0
BITMAP
70
48
30
08
48
70
ENDCHAR
STARTCHAR  025D
ENCODING  605
SWIDTH  1000 0
DWIDTH  7 0
BBX  9 6 -1 0
BITMAP
3800
0E00
1B00
0400
4400
3800
ENDCHAR
STARTCHAR  025E
ENCODING  606
SWIDTH  1000 0
DWIDTH  6 0
BBX  6 6 0 0
BITMAP
38
44
58
44
44
38
ENDCHAR
STARTCHAR  025F
ENCODING  607
SWIDTH  1000 0
DWIDTH  3 0
BBX  4 8 -1 -2
BITMAP
20
20
20
20
20
70
20
E0
ENDCHAR
STARTCHAR  0260
ENCODING  608
SWIDTH  1000 0
DWIDTH  7 0
BBX  8 10 0 -2
BITMAP
07
04
3C
44
44
44
44
3C
44
78
ENDCHAR
STARTCHAR  0261
ENCODING  609
SWIDTH  1000 0
DWIDTH  7 0
BBX  6 8 0 -2
BITMAP
3C
44
44
44
44
3C
44
38
ENDCHAR
STARTCHAR  0262
ENCODING  610
SWIDTH  1000 0
DWIDTH  7 0
BBX  6 6 0 0
BITMAP
38
44
40
5C
44
38
ENDCHAR
STARTCHAR  0263
ENCODING  611
SWIDTH  1000 0
DWIDTH  6 0
BBX  7 8 0 -2
BITMAP
44
48
28
30
10
30
30
30
ENDCHAR
STARTCHAR  0264
ENCODING  612
SWIDTH  1000 0
DWIDTH  7 0
BBX  8 6 -1 0
BITMAP
76
1C
18
18
18
18
ENDCHAR
STARTCHAR  0265
ENCODING  613
SWIDTH  1000 0
DWIDTH  7 0
BBX  6 8 0 -2
BITMAP
44
44
44
44
44
7C
04
04
ENDCHAR
STARTCHAR  0266
ENCODING  614
SWIDTH  1000 0
DWIDTH  7 0
BBX  6 8 0 0
BITMAP
70
40
78
44
44
44
44
44
ENDCHAR
STARTCHAR  0267
ENCODING  615
SWIDTH  1000 0
DWIDTH  7 0
BBX  6 10 0 -2
BITMAP
70
40
78
44
44
44
44
44
04
0C
ENDCHAR
STARTCHAR  0268
ENCODING  616
SWIDTH  1000 0
DWIDTH  3 0
BBX  3 8 0 0
BITMAP
40
00
40
40
E0
40
40
40
ENDCHAR
STARTCHAR  0269
ENCODING  617
SWIDTH  1000 0
DWIDTH  3 0
BBX  4 6 0 0
BITMAP
40
40
40
40
40
60
ENDCHAR
STARTCHAR  026A
ENCODING  618
SWIDTH  1000 0
DWIDTH  5 0
BBX  5 6 0 0
BITMAP
70
20
20
20
20
70
ENDCHAR
STARTCHAR  026B
ENCODING  619
SWIDTH  1000 0
DWIDTH  4 0
BBX  5 8 0 0
BITMAP
20
20
20
60
B0
20
20
20
ENDCHAR
STARTCHAR  026C
ENCODING  620
SWIDTH  1000 0
DWIDTH  4 0
BBX  4 8 0 0
BITMAP
20
20
60
60
70
20
20
20
ENDCHAR
STARTCHAR  026D
ENCODING  621
SWIDTH  1000 0
DWIDTH  3 0
BBX  4 10 0 -2
BITMAP
40
40
40
40
40
40
40
40
40
60
ENDCHAR
STARTCHAR  026E
ENCODING  622
SWIDTH  1000 0
DWIDTH  7 0
BBX  7 10 0 -2
BITMAP
40
40
7E
4C
58
5C
42
42
46
3C
ENDCHAR
STARTCHAR  026F
ENCODING  623
SWIDTH  1000 0
DWIDTH  11 0
BBX  10 6 0 0
BITMAP
4440
4440
4440
4440
4440
7FC0
ENDCHAR
STARTCHAR  0270
ENCODING  624
SWIDTH  1000 0
DWIDTH  11 0
BBX  10 8 0 -2
BITMAP
4440
4440
4440
4440
4440
7FC0
0040
0040
ENDCHAR
STARTCHAR  0271
ENCODING  625
SWIDTH  1000 0
DWIDTH  11 0
BBX  10 8 0 -2
BITMAP
7B80
4440
4440
4440
4440
4440
0040
01C0
ENDCHAR
STARTCHAR  0272
ENCODING  626
SWIDTH  1000 0
DWIDTH  7 0
BBX  7 8 -1 -2
BITMAP
3C
22
22
22
22
22
20
60
ENDCHAR
STARTCHAR  0273
ENCODING  627
SWIDTH  1000 0
DWIDTH  7 0
BBX  8 8 0 -2
BITMAP
78
44
44
44
44
44
04
06
ENDCHAR
STARTCHAR  0274
ENCODING  628
SWIDTH  1000 0
DWIDTH  7 0
BBX  6 6 0 0
BITMAP
44
64
54
54
4C
4C
ENDCHAR
STARTCHAR  0275
ENCODING  629
SWIDTH  1000 0
DWIDTH  7 0
BBX  7 6 0 0
BITMAP
3C
42
7E
42
46
3C
ENDCHAR
STARTCHAR  0276
ENCODING  630
SWIDTH  1000 0
DWIDTH  10 0
BBX  10 6 0 0
BITMAP
3FC0
4600
4380
4200
4600
3FC0
ENDCHAR
STARTCHAR  0277
ENCODING  631
SWIDTH  1000 0
DWIDTH  10 0
BBX  10 6 0 0
BITMAP
1F00
6080
4040
4440
4440
3B80
ENDCHAR
STARTCHAR  0278
ENCODING  632
SWIDTH  1000 0
DWIDTH  6 0
BBX  6 10 0 -2
BITMAP
10
10
38
54
54
54
54
38
10
10
ENDCHAR
STARTCHAR  0279
ENCODING  633
SWIDTH  1000 0
DWIDTH  4 0
BBX  4 6 -1 0
BITMAP
10
10
10
10
10
70
ENDCHAR
STARTCHAR  027A
ENCODING  634
SWIDTH  1000 0
DWIDTH  4 0
BBX  4 8 -1 0
BITMAP
10
10
10
10
10
10
10
70
ENDCHAR
STARTCHAR  027B
ENCODING  635
SWIDTH  1000 0
DWIDTH  4 0
BBX  6 8 -1 -2
BITMAP
10
10
10
10
10
70
10
18
ENDCHAR
STARTCHAR  027C
ENCODING  636
SWIDTH  1000 0
DWIDTH  4 0
BBX  5 8 0 -2
BITMAP
70
40
40
40
40
40
40
40
ENDCHAR
STARTCHAR  027D
ENCODING  637
SWIDTH  1000 0
DWIDTH  4 0
BBX  5 8 0 -2
BITMAP
70
40
40
40
40
40
40
60
ENDCHAR
STARTCHAR  027E
ENCODING  638
SWIDTH  1000 0
DWIDTH  4 0
BBX  5 6 0 0
BITMAP
30
40
40
40
40
40
ENDCHAR
STARTCHAR  027F
ENCODING  639
SWIDTH  1000 0
DWIDTH  4 0
BBX  4 8 -1 -2
BITMAP
60
10
10
10
10
10
10
10
ENDCHAR
STARTCHAR  0280
ENCODING  640
SWIDTH  1000 0
DWIDTH  7 0
BBX  7 6 0 0
BITMAP
78
44
44
78
48
44
ENDCHAR
STARTCHAR  0281
ENCODING  641
SWIDTH  1000 0
DWIDTH  7 0
BBX  7 6 0 0
BITMAP
44
48
78
44
44
78
ENDCHAR
STARTCHAR  0282
ENCODING  642
SWIDTH  1000 0
DWIDTH  6 0
BBX  6 8 0 -2
BITMAP
78
44
70
0C
44
78
40
60
ENDCHAR
STARTCHAR  0283
ENCODING  643
SWIDTH  1000 0
DWIDTH  3 0
BBX  5 10 -1 -2
BITMAP
38
20
20
20
20
20
20
20
20
60
ENDCHAR
STARTCHAR  0284
ENCODING  644
SWIDTH  1000 0
DWIDTH  3 0
BBX  5 10 -1 -2
BITMAP
38
20
20
20
20
20
20
70
20
E0
ENDCHAR
STARTCHAR  0285
ENCODING  645
SWIDTH  1000 0
DWIDTH  3 0
BBX  5 8 -1 -2
BITMAP
E0
20
20
20
20
20
20
30
ENDCHAR
STARTCHAR  0286
ENCODING  646
SWIDTH  1000 0
DWIDTH  4 0
BBX  6 10 -1 -2
BITMAP
1C
10
10
10
10
10
10
70
58
78
ENDCHAR
STARTCHAR  0287
ENCODING  647
SWIDTH  1000 0
DWIDTH  3 0
BBX  4 8 -1 0
BITMAP
60
20
20
20
20
70
20
20
ENDCHAR
STARTCHAR  0288
ENCODING  648
SWIDTH  1000 0
DWIDTH  3 0
BBX  4 11 0 -2
BITMAP
00
40
40
E0
40
40
40
40
40
40
60
ENDCHAR
STARTCHAR  0289
ENCODING  649
SWIDTH  1000 0
DWIDTH  7 0
BBX  7 6 0 0
BITMAP
44
44
FE
44
44
7C
ENDCHAR
STARTCHAR  028A
ENCODING  650
SWIDTH  1000 0
DWIDTH  7 0
BBX  7 6 0 0
BITMAP
66
24
42
42
46
3C
ENDCHAR
STARTCHAR  028B
ENCODING  651
SWIDTH  1000 0
DWIDTH  7 0
BBX  6 7 0 0
BITMAP
00
5C
44
44
44
4C
38
ENDCHAR
STARTCHAR  028C
ENCODING  652
SWIDTH  1000 0
DWIDTH  6 0
BBX  6 6 0 0
BITMAP
30
30
30
48
48
84
ENDCHAR
STARTCHAR  028D
ENCODING  653
SWIDTH  1000 0
DWIDTH  9 0
BBX  9 6 0 0
BITMAP
2600
6600
5600
5500
D900
8900
ENDCHAR
STARTCHAR  028E
ENCODING  654
SWIDTH  1000 0
DWIDTH  6 0
BBX  6 8 0 0
BITMAP
10
10
30
30
30
48
48
84
ENDCHAR
STARTCHAR  028F
ENCODING  655
SWIDTH  1000 0
DWIDTH  7 0
BBX  7 6 0 0
BITMAP
44
28
28
10
10
10
ENDCHAR
STARTCHAR  0290
ENCODING  656
SWIDTH  1000 0
DWIDTH  6 0
BBX  8 8 0 -2
BITMAP
7C
08
10
20
40
FC
04
06
ENDCHAR
STARTCHAR  0291
ENCODING  657
SWIDTH  1000 0
DWIDTH  8 0
BBX  6 7 1 -1
BITMAP
FC
18
10
2C
54
FC
20
ENDCHAR
STARTCHAR  0292
ENCODING  658
SWIDTH  1000 0
DWIDTH  6 0
BBX  6 8 0 -2
BITMAP
7C
08
10
38
04
04
4C
78
ENDCHAR
STARTCHAR  0293
ENCODING  659
SWIDTH  1000 0
DWIDTH  6 0
BBX  7 8 0 -2
BITMAP
7C
08
30
18
04
74
4C
7C
ENDCHAR
STARTCHAR  0294
ENCODING  660
SWIDTH  1000 0
DWIDTH  5 0
BBX  6 8 -1 0
BITMAP
38
44
04
04
04
18
10
10
ENDCHAR
STARTCHAR  0295
ENCODING  661
SWIDTH  1000 0
DWIDTH  6 0
BBX  6 8 0 0
BITMAP
38
44
40
40
40
30
10
10
ENDCHAR
STARTCHAR  0296
ENCODING  662
SWIDTH  1000 0
DWIDTH  5 0
BBX  6 8 -1 0
BITMAP
10
10
18
04
04
04
44
38
ENDCHAR
STARTCHAR  0297
ENCODING  663
SWIDTH  1000 0
DWIDTH  6 0
BBX  7 8 0 -2
BITMAP
38
44
40
40
40
40
44
38
ENDCHAR
STARTCHAR  0298
ENCODING  664
SWIDTH  1000 0
DWIDTH  10 0
BBX  10 8 0 0
BITMAP
1F00
2080
4040
4440
4040
4040
2080
1F00
ENDCHAR
STARTCHAR  0299
ENCODING  665
SWIDTH  1000 0
DWIDTH  6 0
BBX  6 6 0 0
BITMAP
78
44
44
78
44
7C
ENDCHAR
STARTCHAR  029A
ENCODING  666
SWIDTH  1000 0
DWIDTH  6 0
BBX  6 6 0 0
BITMAP
78
4C
34
44
4C
38
ENDCHAR
STARTCHAR  029B
ENCODING  667
SWIDTH  1000 0
DWIDTH  7 0
BBX  8 7 0 0
BITMAP
07
3C
44
40
5C
44
38
ENDCHAR
STARTCHAR  029C
ENCODING  668
SWIDTH  1000 0
DWIDTH  7 0
BBX  6 6 0 0
BITMAP
44
44
7C
44
44
44
ENDCHAR
STARTCHAR  029D
ENCODING  669
SWIDTH  1000 0
DWIDTH  5 0
BBX  6 10 -1 -2
BITMAP
08
00
08
08
08
08
08
7C
48
70
ENDCHAR
STARTCHAR  029E
ENCODING  670
SWIDTH  1000 0
DWIDTH  6 0
BBX  6 8 -1 -2
BITMAP
44
24
14
1C
14
24
04
04
ENDCHAR
STARTCHAR  029F
ENCODING  671
SWIDTH  1000 0
DWIDTH  5 0
BBX  5 6 0 0
BITMAP
40
40
40
40
40
70
ENDCHAR
STARTCHAR  02A0
ENCODING  672
SWIDTH  1000 0
DWIDTH  7 0
BBX  8 10 0 -2
BITMAP
07
04
3C
44
44
44
44
3C
04
04
ENDCHAR
STARTCHAR  02A1
ENCODING  673
SWIDTH  1000 0
DWIDTH  6 0
BBX  6 8 0 0
BITMAP
78
4C
04
04
0C
38
FC
30
ENDCHAR
STARTCHAR  02A2
ENCODING  674
SWIDTH  1000 0
DWIDTH  7 0
BBX  7 8 0 0
BITMAP
3C
44
40
40
40
30
7C
10
ENDCHAR
STARTCHAR  02A3
ENCODING  675
SWIDTH  1000 0
DWIDTH  12 0
BBX  12 8 0 0
BITMAP
0400
0400
3FE0
4460
44C0
4580
4500
3FF0
ENDCHAR
STARTCHAR  02A4
ENCODING  676
SWIDTH  1000 0
DWIDTH  11 0
BBX  11 10 0 -2
BITMAP
0400
0400
3FE0
44C0
4580
45C0
4420
3C20
0060
03C0
ENDCHAR
STARTCHAR  02A5
ENCODING  677
SWIDTH  1000 0
DWIDTH  13 0
BBX  13 9 0 -1
BITMAP
0400
0400
3FE0
4460
44C0
45B0
4550
3FF0
0080
ENDCHAR
STARTCHAR  02A6
ENCODING  678
SWIDTH  1000 0
DWIDTH  8 0
BBX  8 9 0 0
BITMAP
00
40
40
FE
51
5C
47
41
7E
ENDCHAR
STARTCHAR  02A7
ENCODING  679
SWIDTH  1000 0
DWIDTH  5 0
BBX  6 10 0 -2
BITMAP
5C
50
F0
50
50
50
50
70
10
30
ENDCHAR
STARTCHAR  02A8
ENCODING  680
SWIDTH  1000 0
DWIDTH  9 0
BBX  9 9 0 0
BITMAP
0000
4000
4000
EF00
5100
5000
5700
5900
6F00
ENDCHAR
STARTCHAR  02A9
ENCODING  681
SWIDTH  1000 0
DWIDTH  9 0
BBX  9 10 -1 -2
BITMAP
3000
2000
7F00
2880
2880
2880
2880
2880
0080
0180
ENDCHAR
STARTCHAR  02AA
ENCODING  682
SWIDTH  1000 0
DWIDTH  8 0
BBX  8 8 0 0
BITMAP
40
40
5E
51
5C
43
41
7E
ENDCHAR
STARTCHAR  02AB
ENCODING  683
SWIDTH  1000 0
DWIDTH  8 0
BBX  8 8 0 0
BITMAP
40
40
7E
46
4C
58
50
7F
ENDCHAR
STARTCHAR  02AC
ENCODING  684
SWIDTH  1000 0
DWIDTH  6 0
BBX  6 8 0 0
BITMAP
A4
B8
58
48
84
B8
58
48
ENDCHAR
STARTCHAR  02AD
ENCODING  685
SWIDTH  1000 0
DWIDTH  7 0
BBX  6 8 0 0
BITMAP
7C
44
00
00
00
7C
44
44
ENDCHAR
STARTCHAR  02AE
ENCODING  686
SWIDTH  1000 0
DWIDTH  9 0
BBX  8 8 0 -2
BITMAP
61
11
11
11
11
1F
01
01
ENDCHAR
STARTCHAR  02AF
ENCODING  687
SWIDTH  1000 0
DWIDTH  9 0
BBX  11 8 0 -2
BITMAP
6100
1100
1100
1100
1100
1F00
0100
00C0
ENDCHAR
STARTCHAR  0300
ENCODING  768
SWIDTH  1000 0
DWIDTH  0 0
BBX  4 2 -4 9
BITMAP
40
20
ENDCHAR
STARTCHAR  0301
ENCODING  769
SWIDTH  1000 0
DWIDTH  0 0
BBX  3 2 -3 9
BITMAP
60
40
ENDCHAR
STARTCHAR  0302
ENCODING  770
SWIDTH  1000 0
DWIDTH  0 0
BBX  4 2 -2 6
BITMAP
60
90
ENDCHAR
STARTCHAR  0303
ENCODING  771
SWIDTH  1000 0
DWIDTH  0 0
BBX  5 1 -6 8
BITMAP
70
ENDCHAR
STARTCHAR  0304
ENCODING  772
SWIDTH  1000 0
DWIDTH  0 0
BBX  4 1 -2 7
BITMAP
F0
ENDCHAR
STARTCHAR  0305
ENCODING  773
SWIDTH  1000 0
DWIDTH  0 0
BBX  8 1 -4 9
BITMAP
FF
ENDCHAR
STARTCHAR  0306
ENCODING  774
SWIDTH  1000 0
DWIDTH  0 0
BBX  4 2 -2 6
BITMAP
90
60
ENDCHAR
STARTCHAR  0307
ENCODING  775
SWIDTH  1000 0
DWIDTH  0 0
BBX  2 1 -1 7
BITMAP
40
ENDCHAR
STARTCHAR  0308
ENCODING  776
SWIDTH  1000 0
DWIDTH  0 0
BBX  4 1 -2 7
BITMAP
50
ENDCHAR
STARTCHAR  0309
ENCODING  777
SWIDTH  1000 0
DWIDTH  0 0
BBX  3 3 -3 7
BITMAP
E0
20
00
ENDCHAR
STARTCHAR  030A
ENCODING  778
SWIDTH  1000 0
DWIDTH  0 0
BBX  2 3 -1 5
BITMAP
C0
40
C0
ENDCHAR
STARTCHAR  030B
ENCODING  779
SWIDTH  1000 0
DWIDTH  0 0
BBX  6 2 -3 6
BITMAP
68
50
ENDCHAR
STARTCHAR  030C
ENCODING  780
SWIDTH  1000 0
DWIDTH  0 0
BBX  4 2 -2 6
BITMAP
60
60
ENDCHAR
STARTCHAR  030D
ENCODING  781
SWIDTH  1000 0
DWIDTH  0 0
BBX  2 2 -1 6
BITMAP
40
40
ENDCHAR
STARTCHAR  030E
ENCODING  782
SWIDTH  1000 0
DWIDTH  0 0
BBX  3 2 -2 6
BITMAP
60
60
ENDCHAR
STARTCHAR  030F
ENCODING  783
SWIDTH  1000 0
DWIDTH  0 0
BBX  6 2 -3 6
BITMAP
78
28
ENDCHAR
STARTCHAR  0310
ENCODING  784
SWIDTH  1000 0
DWIDTH  0 0
BBX  5 3 -2 6
BITMAP
20
50
60
ENDCHAR
STARTCHAR  0311
ENCODING  785
SWIDTH  1000 0
DWIDTH  0 0
BBX  4 2 -2 6
BITMAP
60
90
ENDCHAR
STARTCHAR  0312
ENCODING  786
SWIDTH  1000 0
DWIDTH  0 0
BBX  2 3 -1 6
BITMAP
00
80
80
ENDCHAR
STARTCHAR  0313
ENCODING  787
SWIDTH  1000 0
DWIDTH  0 0
BBX  2 3 -1 5
BITMAP
40
40
00
ENDCHAR
STARTCHAR  0314
ENCODING  788
SWIDTH  1000 0
DWIDTH  0 0
BBX  2 3 -1 5
BITMAP
80
80
00
ENDCHAR
STARTCHAR  0315
ENCODING  789
SWIDTH  1000 0
DWIDTH  0 0
BBX  2 3 -1 5
BITMAP
40
40
00
ENDCHAR
STARTCHAR  0316
ENCODING  790
SWIDTH  1000 0
DWIDTH  0 0
BBX  4 2 -2 -2
BITMAP
40
20
ENDCHAR
STARTCHAR  0317
ENCODING  791
SWIDTH  1000 0
DWIDTH  0 0
BBX  4 2 -2 -2
BITMAP
20
40
ENDCHAR
STARTCHAR  0318
ENCODING  792
SWIDTH  1000 0
DWIDTH  0 0
BBX  3 2 -2 -2
BITMAP
20
60
ENDCHAR
STARTCHAR  0319
ENCODING  793
SWIDTH  1000 0
DWIDTH  0 0
BBX  3 2 -1 -2
BITMAP
80
C0
ENDCHAR
STARTCHAR  031A
ENCODING  794
SWIDTH  1000 0
DWIDTH  0 0
BBX  5 3 -3 6
BITMAP
F8
08
00
ENDCHAR
STARTCHAR  031B
ENCODING  795
SWIDTH  1000 0
DWIDTH  0 0
BBX  2 3 0 5
BITMAP
40
40
80
ENDCHAR
STARTCHAR  031C
ENCODING  796
SWIDTH  1000 0
DWIDTH  0 0
BBX  2 2 -1 -2
BITMAP
80
80
ENDCHAR
STARTCHAR  031D
ENCODING  797
SWIDTH  1000 0
DWIDTH  0 0
BBX  3 2 -1 -2
BITMAP
40
E0
ENDCHAR
STARTCHAR  031E
ENCODING  798
SWIDTH  1000 0
DWIDTH  0 0
BBX  3 2 -1 -2
BITMAP
E0
40
ENDCHAR
STARTCHAR  031F
ENCODING  799
SWIDTH  1000 0
DWIDTH  0 0
BBX  4 2 -2 -2
BITMAP
00
60
ENDCHAR
STARTCHAR  0320
ENCODING  800
SWIDTH  1000 0
DWIDTH  0 0
BBX  4 1 -2 -2
BITMAP
F0
ENDCHAR
STARTCHAR  0321
ENCODING  801
SWIDTH  1000 0
DWIDTH  0 0
BBX  3 3 -2 -2
BITMAP
20
20
60
ENDCHAR
STARTCHAR  0322
ENCODING  802
SWIDTH  1000 0
DWIDTH  0 0
BBX  4 3 -1 -2
BITMAP
40
40
60
ENDCHAR
STARTCHAR  0323
ENCODING  803
SWIDTH  1000 0
DWIDTH  0 0
BBX  2 1 -5 -2
BITMAP
40
ENDCHAR
STARTCHAR  0324
ENCODING  804
SWIDTH  1000 0
DWIDTH  0 0
BBX  4 1 -2 -2
BITMAP
50
ENDCHAR
STARTCHAR  0325
ENCODING  805
SWIDTH  1000 0
DWIDTH  0 0
BBX  2 2 -1 -2
BITMAP
C0
C0
ENDCHAR
STARTCHAR  0326
ENCODING  806
SWIDTH  1000 0
DWIDTH  0 0
BBX  2 3 -1 -3
BITMAP
40
40
00
ENDCHAR
STARTCHAR  0327
ENCODING  807
SWIDTH  1000 0
DWIDTH  0 0
BBX  3 2 -2 -2
BITMAP
40
E0
ENDCHAR
STARTCHAR  0328
ENCODING  808
SWIDTH  1000 0
DWIDTH  0 0
BBX  2 3 -1 -2
BITMAP
40
80
C0
ENDCHAR
STARTCHAR  0329
ENCODING  809
SWIDTH  1000 0
DWIDTH  0 0
BBX  2 2 -1 -2
BITMAP
40
40
ENDCHAR
STARTCHAR  032A
ENCODING  810
SWIDTH  1000 0
DWIDTH  0 0
BBX  5 2 -3 -2
BITMAP
78
48
ENDCHAR
STARTCHAR  032B
ENCODING  811
SWIDTH  1000 0
DWIDTH  0 0
BBX  4 2 -2 -2
BITMAP
00
F0
ENDCHAR
STARTCHAR  032C
ENCODING  812
SWIDTH  1000 0
DWIDTH  0 0
BBX  4 2 -2 -2
BITMAP
90
60
ENDCHAR
STARTCHAR  032D
ENCODING  813
SWIDTH  1000 0
DWIDTH  0 0
BBX  4 2 -2 -2
BITMAP
60
60
ENDCHAR
STARTCHAR  032E
ENCODING  814
SWIDTH  1000 0
DWIDTH  0 0
BBX  4 2 -2 -2
BITMAP
00
60
ENDCHAR
STARTCHAR  032F
ENCODING  815
SWIDTH  1000 0
DWIDTH  0 0
BBX  4 2 -2 -2
BITMAP
60
90
ENDCHAR
STARTCHAR  0330
ENCODING  816
SWIDTH  1000 0
DWIDTH  0 0
BBX  4 1 -2 -2
BITMAP
F0
ENDCHAR
STARTCHAR  0331
ENCODING  817
SWIDTH  1000 0
DWIDTH  0 0
BBX  4 1 -2 -2
BITMAP
F0
ENDCHAR
STARTCHAR  0332
ENCODING  818
SWIDTH  1000 0
DWIDTH  0 0
BBX  8 1 -4 -2
BITMAP
7F
ENDCHAR
STARTCHAR  0333
ENCODING  819
SWIDTH  1000 0
DWIDTH  0 0
BBX  4 2 -2 -2
BITMAP
F0
F0
ENDCHAR
STARTCHAR  0334
ENCODING  820
SWIDTH  1000 0
DWIDTH  0 0
BBX  4 1 -2 1
BITMAP
F0
ENDCHAR
STARTCHAR  0335
ENCODING  821
SWIDTH  1000 0
DWIDTH  0 0
BBX  4 1 -2 1
BITMAP
F0
ENDCHAR
STARTCHAR  0336
ENCODING  822
SWIDTH  1000 0
DWIDTH  0 0
BBX  8 1 -4 1
BITMAP
7F
ENDCHAR
STARTCHAR  0337
ENCODING  823
SWIDTH  1000 0
DWIDTH  0 0
BBX  6 7 -3 -1
BITMAP
00
04
18
20
40
80
00
ENDCHAR
STARTCHAR  0338
ENCODING  824
SWIDTH  1000 0
DWIDTH  0 0
BBX  4 8 -2 0
BITMAP
10
20
20
20
40
40
40
80
ENDCHAR
STARTCHAR  0339
ENCODING  825
SWIDTH  1000 0
DWIDTH  0 0
BBX  2 2 -1 -2
BITMAP
40
40
ENDCHAR
STARTCHAR  033A
ENCODING  826
SWIDTH  1000 0
DWIDTH  0 0
BBX  5 3 -3 -2
BITMAP
00
48
78
ENDCHAR
STARTCHAR  033B
ENCODING  827
SWIDTH  1000 0
DWIDTH  0 0
BBX  3 2 -2 -2
BITMAP
60
60
ENDCHAR
STARTCHAR  033C
ENCODING  828
SWIDTH  1000 0
DWIDTH  0 0
BBX  4 2 -2 -2
BITMAP
F0
00
ENDCHAR
STARTCHAR  033D
ENCODING  829
SWIDTH  1000 0
DWIDTH  0 0
BBX  4 3 -2 6
BITMAP
00
60
60
ENDCHAR
STARTCHAR  033E
ENCODING  830
SWIDTH  1000 0
DWIDTH  0 0
BBX  2 3 0 6
BITMAP
80
80
80
ENDCHAR
STARTCHAR  033F
ENCODING  831
SWIDTH  1000 0
DWIDTH  0 0
BBX  8 2 -4 8
BITMAP
FF
FF
ENDCHAR
STARTCHAR  0340
ENCODING  832
SWIDTH  1000 0
DWIDTH  0 0
BBX  3 2 -3 6
BITMAP
40
20
ENDCHAR
STARTCHAR  0341
ENCODING  833
SWIDTH  1000 0
DWIDTH  0 0
BBX  3 2 0 6
BITMAP
40
80
ENDCHAR
STARTCHAR  0342
ENCODING  834
SWIDTH  1000 0
DWIDTH  0 0
BBX  4 1 -2 7
BITMAP
F0
ENDCHAR
STARTCHAR  0343
ENCODING  835
SWIDTH  1000 0
DWIDTH  0 0
BBX  2 3 -1 5
BITMAP
40
40
00
ENDCHAR
STARTCHAR  0344
ENCODING  836
SWIDTH  1000 0
DWIDTH  0 0
BBX  5 1 -3 7
BITMAP
48
ENDCHAR
STARTCHAR  0345
ENCODING  837
SWIDTH  1000 0
DWIDTH  0 0
BBX  2 2 -1 -2
BITMAP
00
00
ENDCHAR
STARTCHAR  0346
ENCODING  838
SWIDTH  1000 0
DWIDTH  0 0
BBX  5 3 -3 6
BITMAP
78
48
00
ENDCHAR
STARTCHAR  0347
ENCODING  839
SWIDTH  1000 0
DWIDTH  0 0
BBX  6 2 -3 -2
BITMAP
FC
FC
ENDCHAR
STARTCHAR  0348
ENCODING  840
SWIDTH  1000 0
DWIDTH  0 0
BBX  3 2 -2 -2
BITMAP
60
60
ENDCHAR
STARTCHAR  0349
ENCODING  841
SWIDTH  1000 0
DWIDTH  0 0
BBX  3 2 -1 -2
BITMAP
E0
20
ENDCHAR
STARTCHAR  034A
ENCODING  842
SWIDTH  1000 0
DWIDTH  0 0
BBX  4 3 -2 6
BITMAP
00
F0
00
ENDCHAR
STARTCHAR  034B
ENCODING  843
SWIDTH  1000 0
DWIDTH  0 0
BBX  5 4 -2 6
BITMAP
20
40
B0
20
ENDCHAR
STARTCHAR  034C
ENCODING  844
SWIDTH  1000 0
DWIDTH  0 0
BBX  4 2 -2 7
BITMAP
F0
F0
ENDCHAR
STARTCHAR  034D
ENCODING  845
SWIDTH  1000 0
DWIDTH  0 0
BBX  4 3 -2 -3
BITMAP
00
60
00
ENDCHAR
STARTCHAR  034E
ENCODING  846
SWIDTH  1000 0
DWIDTH  0 0
BBX  3 3 -1 -2
BITMAP
00
E0
40
ENDCHAR
STARTCHAR  034F
ENCODING  847
SWIDTH  1000 0
DWIDTH  0 0
BBX  10 8 -5 0
BITMAP
64C0
4040
0000
6140
6140
0000
4040
64C0
ENDCHAR
STARTCHAR  0350
ENCODING  848
SWIDTH  1000 0
DWIDTH  0 0
BBX  2 3 -1 6
BITMAP
80
40
80
ENDCHAR
STARTCHAR  0351
ENCODING  849
SWIDTH  1000 0
DWIDTH  0 0
BBX  2 3 -1 5
BITMAP
80
00
80
ENDCHAR
STARTCHAR  0352
ENCODING  850
SWIDTH  1000 0
DWIDTH  0 0
BBX  5 3 -2 7
BITMAP
70
10
20
ENDCHAR
STARTCHAR  0353
ENCODING  851
SWIDTH  1000 0
DWIDTH  0 0
BBX  4 3 -2 -3
BITMAP
60
60
00
ENDCHAR
STARTCHAR  0354
ENCODING  852
SWIDTH  1000 0
DWIDTH  0 0
BBX  2 3 -1 -3
BITMAP
40
80
00
ENDCHAR
STARTCHAR  0355
ENCODING  853
SWIDTH  1000 0
DWIDTH  0 0
BBX  2 3 -1 -3
BITMAP
80
40
00
ENDCHAR
STARTCHAR  0356
ENCODING  854
SWIDTH  1000 0
DWIDTH  0 0
BBX  5 3 -2 -3
BITMAP
80
70
00
ENDCHAR
STARTCHAR  0357
ENCODING  855
SWIDTH  1000 0
DWIDTH  0 0
BBX  2 3 -1 5
BITMAP
40
40
40
ENDCHAR
STARTCHAR  0358
ENCODING  856
SWIDTH  1000 0
DWIDTH  0 0
BBX  2 1 1 7
BITMAP
00
ENDCHAR
STARTCHAR  0359
ENCODING  857
SWIDTH  1000 0
DWIDTH  0 0
BBX  4 2 -2 -2
BITMAP
00
60
ENDCHAR
STARTCHAR  035A
ENCODING  858
SWIDTH  1000 0
DWIDTH  0 0
BBX  4 2 -2 -2
BITMAP
F0
F0
ENDCHAR
STARTCHAR  035B
ENCODING  859
SWIDTH  1000 0
DWIDTH  0 0
BBX  4 4 -2 6
BITMAP
00
40
60
20
ENDCHAR
STARTCHAR  035C
ENCODING  860
SWIDTH  1000 0
DWIDTH  0 0
BBX  11 2 -2 -2
BITMAP
4040
3F80
ENDCHAR
STARTCHAR  035D
ENCODING  861
SWIDTH  1000 0
DWIDTH  0 0
BBX  11 3 -2 7
BITMAP
0000
4040
3F80
ENDCHAR
STARTCHAR  035E
ENCODING  862
SWIDTH  1000 0
DWIDTH  0 0
BBX  8 1 -2 7
BITMAP
7F
ENDCHAR
STARTCHAR  035F
ENCODING  863
SWIDTH  1000 0
DWIDTH  0 0
BBX  8 1 -2 -2
BITMAP
7F
ENDCHAR
STARTCHAR  0360
ENCODING  864
SWIDTH  1000 0
DWIDTH  0 0
BBX  11 2 -2 6
BITMAP
3C40
4380
ENDCHAR
STARTCHAR  0361
ENCODING  865
SWIDTH  1000 0
DWIDTH  0 0
BBX  11 3 -2 6
BITMAP
1F00
20C0
0000
ENDCHAR
STARTCHAR  0362
ENCODING  866
SWIDTH  1000 0
DWIDTH  0 0
BBX  8 3 -2 -3
BITMAP
00
7F
00
ENDCHAR
STARTCHAR  0363
ENCODING  867
SWIDTH  1000 0
DWIDTH  0 0
BBX  5 4 -3 2
BITMAP
70
10
70
68
ENDCHAR
STARTCHAR  0364
ENCODING  868
SWIDTH  1000 0
DWIDTH  0 0
BBX  4 4 -2 2
BITMAP
60
F0
90
60
ENDCHAR
STARTCHAR  0365
ENCODING  869
SWIDTH  1000 0
DWIDTH  0 0
BBX  2 6 -1 2
BITMAP
40
00
40
40
40
40
ENDCHAR
STARTCHAR  0366
ENCODING  870
SWIDTH  1000 0
DWIDTH  0 0
BBX  5 4 -3 2
BITMAP
30
48
48
30
ENDCHAR
STARTCHAR  0367
ENCODING  871
SWIDTH  1000 0
DWIDTH  0 0
BBX  5 5 -2 2
BITMAP
00
48
48
48
38
ENDCHAR
STARTCHAR  0368
ENCODING  872
SWIDTH  1000 0
DWIDTH  0 0
BBX  5 4 -3 2
BITMAP
30
40
48
30
ENDCHAR
STARTCHAR  0369
ENCODING  873
SWIDTH  1000 0
DWIDTH  0 0
BBX  5 5 -3 3
BITMAP
08
78
48
48
78
ENDCHAR
STARTCHAR  036A
ENCODING  874
SWIDTH  1000 0
DWIDTH  0 0
BBX  5 5 -2 3
BITMAP
40
78
48
48
48
ENDCHAR
STARTCHAR  036B
ENCODING  875
SWIDTH  1000 0
DWIDTH  0 0
BBX  6 4 -4 3
BITMAP
7C
54
54
54
ENDCHAR
STARTCHAR  036C
ENCODING  876
SWIDTH  1000 0
DWIDTH  0 0
BBX  4 4 -2 3
BITMAP
60
40
40
40
ENDCHAR
STARTCHAR  036D
ENCODING  877
SWIDTH  1000 0
DWIDTH  0 0
BBX  3 6 -1 2
BITMAP
00
40
E0
40
40
60
ENDCHAR
STARTCHAR  036E
ENCODING  878
SWIDTH  1000 0
DWIDTH  0 0
BBX  4 4 -2 3
BITMAP
90
A0
60
60
ENDCHAR
STARTCHAR  036F
ENCODING  879
SWIDTH  1000 0
DWIDTH  0 0
BBX  4 4 -2 3
BITMAP
80
60
60
90
ENDCHAR
STARTCHAR  1D00
ENCODING  7424
SWIDTH  1000 0
DWIDTH  6 0
BBX  6 6 0 0
BITMAP
30
30
50
78
48
84
ENDCHAR
STARTCHAR  1D01
ENCODING  7425
SWIDTH  1000 0
DWIDTH  9 0
BBX  9 6 0 0
BITMAP
1F80
1400
2780
3C00
4400
4780
ENDCHAR
STARTCHAR  1D02
ENCODING  7426
SWIDTH  1000 0
DWIDTH  10 0
BBX  10 6 0 0
BITMAP
7B80
4C40
0440
FF80
4440
7F80
ENDCHAR
STARTCHAR  1D03
ENCODING  7427
SWIDTH  1000 0
DWIDTH  6 0
BBX  7 6 0 0
BITMAP
78
44
44
FC
44
7C
ENDCHAR
STARTCHAR  1D04
ENCODING  7428
SWIDTH  1000 0
DWIDTH  6 0
BBX  7 6 0 0
BITMAP
38
44
40
40
44
38
ENDCHAR
STARTCHAR  1D05
ENCODING  7429
SWIDTH  1000 0
DWIDTH  6 0
BBX  6 6 0 0
BITMAP
78
4C
44
44
4C
78
ENDCHAR
STARTCHAR  1D06
ENCODING  7430
SWIDTH  1000 0
DWIDTH  6 0
BBX  6 6 0 0
BITMAP
78
4C
44
E4
4C
78
ENDCHAR
STARTCHAR  1D07
ENCODING  7431
SWIDTH  1000 0
DWIDTH  6 0
BBX  6 6 0 0
BITMAP
78
40
78
40
40
7C
ENDCHAR
STARTCHAR  1D08
ENCODING  7432
SWIDTH  1000 0
DWIDTH  6 0
BBX  5 6 0 0
BITMAP
70
48
30
08
48
70
ENDCHAR
STARTCHAR  1D09
ENCODING  7433
SWIDTH  1000 0
DWIDTH  3 0
BBX  2 8 0 -2
BITMAP
40
40
40
40
40
40
00
40
ENDCHAR
STARTCHAR  1D0A
ENCODING  7434
SWIDTH  1000 0
DWIDTH  6 0
BBX  5 6 0 0
BITMAP
08
08
08
08
48
70
ENDCHAR
STARTCHAR  1D0B
ENCODING  7435
SWIDTH  1000 0
DWIDTH  6 0
BBX  7 6 0 0
BITMAP
48
50
70
50
48
4C
ENDCHAR
STARTCHAR  1D0C
ENCODING  7436
SWIDTH  1000 0
DWIDTH  5 0
BBX  5 6 0 0
BITMAP
40
40
40
C0
40
70
ENDCHAR
STARTCHAR  1D0D
ENCODING  7437
SWIDTH  1000 0
DWIDTH  9 0
BBX  8 6 0 0
BITMAP
63
63
55
55
59
49
ENDCHAR
STARTCHAR  1D0E
ENCODING  7438
SWIDTH  1000 0
DWIDTH  7 0
BBX  6 6 0 0
BITMAP
4C
4C
54
54
64
44
ENDCHAR
STARTCHAR  1D0F
ENCODING  7439
SWIDTH  1000 0
DWIDTH  7 0
BBX  7 6 0 0
BITMAP
3C
46
42
42
46
3C
ENDCHAR
STARTCHAR  1D10
ENCODING  7440
SWIDTH  1000 0
DWIDTH  6 0
BBX  6 6 0 0
BITMAP
78
44
04
04
44
38
ENDCHAR
STARTCHAR  1D11
ENCODING  7441
SWIDTH  1000 0
DWIDTH  8 0
BBX  8 6 0 0
BITMAP
3C
63
41
41
63
3E
ENDCHAR
STARTCHAR  1D12
ENCODING  7442
SWIDTH  1000 0
DWIDTH  8 0
BBX  8 5 0 1
BITMAP
3E
41
41
43
22
ENDCHAR
STARTCHAR  1D13
ENCODING  7443
SWIDTH  1000 0
DWIDTH  8 0
BBX  9 6 0 0
BITMAP
7C00
6300
5100
4900
6700
3F00
ENDCHAR
STARTCHAR  1D14
ENCODING  7444
SWIDTH  1000 0
DWIDTH  11 0
BBX  11 6 0 0
BITMAP
7BC0
4C60
0420
FC20
4460
7BC0
ENDCHAR
STARTCHAR  1D15
ENCODING  7445
SWIDTH  1000 0
DWIDTH  6 0
BBX  6 6 0 0
BITMAP
4C
30
4C
44
44
38
ENDCHAR
STARTCHAR  1D16
ENCODING  7446
SWIDTH  1000 0
DWIDTH  7 0
BBX  7 3 0 3
BITMAP
3C
46
42
ENDCHAR
STARTCHAR  1D17
ENCODING  7447
SWIDTH  1000 0
DWIDTH  7 0
BBX  7 3 0 0
BITMAP
42
46
3C
ENDCHAR
STARTCHAR  1D18
ENCODING  7448
SWIDTH  1000 0
DWIDTH  6 0
BBX  6 6 0 0
BITMAP
78
44
44
78
40
40
ENDCHAR
STARTCHAR  1D19
ENCODING  7449
SWIDTH  1000 0
DWIDTH  7 0
BBX  6 6 0 0
BITMAP
7C
44
44
3C
24
44
ENDCHAR
STARTCHAR  1D1A
ENCODING  7450
SWIDTH  1000 0
DWIDTH  7 0
BBX  6 6 0 0
BITMAP
44
24
3C
44
44
7C
ENDCHAR
STARTCHAR  1D1B
ENCODING  7451
SWIDTH  1000 0
DWIDTH  5 0
BBX  6 6 -1 0
BITMAP
7C
10
10
10
10
10
ENDCHAR
STARTCHAR  1D1C
ENCODING  7452
SWIDTH  1000 0
DWIDTH  7 0
BBX  6 6 0 0
BITMAP
44
44
44
44
44
38
ENDCHAR
STARTCHAR  1D1D
ENCODING  7453
SWIDTH  1000 0
DWIDTH  7 0
BBX  7 5 0 0
BITMAP
FE
04
02
02
FC
ENDCHAR
STARTCHAR  1D1E
ENCODING  7454
SWIDTH  1000 0
DWIDTH  9 0
BBX  9 5 0 0
BITMAP
3F80
4100
0080
4080
3F00
ENDCHAR
STARTCHAR  1D1F
ENCODING  7455
SWIDTH  1000 0
DWIDTH  7 0
BBX  7 8 0 -1
BITMAP
FE
02
02
FC
04
02
02
FC
ENDCHAR
STARTCHAR  1D20
ENCODING  7456
SWIDTH  1000 0
DWIDTH  6 0
BBX  6 6 0 0
BITMAP
84
48
48
30
30
30
ENDCHAR
STARTCHAR  1D21
ENCODING  7457
SWIDTH  1000 0
DWIDTH  9 0
BBX  9 6 0 0
BITMAP
8900
5900
5500
5600
6600
2600
ENDCHAR
STARTCHAR  1D22
ENCODING  7458
SWIDTH  1000 0
DWIDTH  7 0
BBX  6 6 1 0
BITMAP
FC
18
10
20
40
FC
ENDCHAR
STARTCHAR  1D23
ENCODING  7459
SWIDTH  1000 0
DWIDTH  5 0
BBX  5 6 0 0
BITMAP
F8
10
20
18
88
70
ENDCHAR
STARTCHAR  1D24
ENCODING  7460
SWIDTH  1000 0
DWIDTH  5 0
BBX  5 6 0 0
BITMAP
78
48
30
40
48
70
ENDCHAR
STARTCHAR  1D25
ENCODING  7461
SWIDTH  1000 0
DWIDTH  8 0
BBX  8 6 0 0
BITMAP
18
3C
3C
18
18
66
ENDCHAR
STARTCHAR  1D2C
ENCODING  7468
SWIDTH  1000 0
DWIDTH  5 0
BBX  6 6 0 2
BITMAP
20
50
50
78
88
80
ENDCHAR
STARTCHAR  1D2D
ENCODING  7469
SWIDTH  1000 0
DWIDTH  8 0
BBX  8 5 0 3
BITMAP
3F
28
4F
78
8F
ENDCHAR
STARTCHAR  1D2E
ENCODING  7470
SWIDTH  1000 0
DWIDTH  5 0
BBX  5 6 0 2
BITMAP
78
48
70
48
48
70
ENDCHAR
STARTCHAR  1D2F
ENCODING  7471
SWIDTH  1000 0
DWIDTH  5 0
BBX  6 6 0 2
BITMAP
78
48
F8
48
48
70
ENDCHAR
STARTCHAR  1D30
ENCODING  7472
SWIDTH  1000 0
DWIDTH  6 0
BBX  6 6 0 2
BITMAP
78
44
44
44
4C
78
ENDCHAR
STARTCHAR  1D31
ENCODING  7473
SWIDTH  1000 0
DWIDTH  6 0
BBX  6 6 0 2
BITMAP
78
40
78
40
40
7C
ENDCHAR
STARTCHAR  1D32
ENCODING  7474
SWIDTH  1000 0
DWIDTH  5 0
BBX  5 6 0 2
BITMAP
F8
08
78
08
08
F8
ENDCHAR
STARTCHAR  1D33
ENCODING  7475
SWIDTH  1000 0
DWIDTH  6 0
BBX  6 6 0 2
BITMAP
38
44
40
4C
44
38
ENDCHAR
STARTCHAR  1D34
ENCODING  7476
SWIDTH  1000 0
DWIDTH  6 0
BBX  6 5 0 3
BITMAP
44
44
7C
44
44
ENDCHAR
STARTCHAR  1D35
ENCODING  7477
SWIDTH  1000 0
DWIDTH  3 0
BBX  2 5 0 3
BITMAP
40
40
40
40
40
ENDCHAR
STARTCHAR  1D36
ENCODING  7478
SWIDTH  1000 0
DWIDTH  4 0
BBX  4 6 0 2
BITMAP
10
10
10
10
50
60
ENDCHAR
STARTCHAR  1D37
ENCODING  7479
SWIDTH  1000 0
DWIDTH  6 0
BBX  6 5 0 3
BITMAP
48
50
70
48
44
ENDCHAR
STARTCHAR  1D38
ENCODING  7480
SWIDTH  1000 0
DWIDTH  5 0
BBX  5 6 0 2
BITMAP
40
40
40
40
40
78
ENDCHAR
STARTCHAR  1D39
ENCODING  7481
SWIDTH  1000 0
DWIDTH  7 0
BBX  7 5 0 3
BITMAP
66
66
6A
5A
52
ENDCHAR
STARTCHAR  1D3A
ENCODING  7482
SWIDTH  1000 0
DWIDTH  6 0
BBX  6 5 0 3
BITMAP
44
64
54
4C
4C
ENDCHAR
STARTCHAR  1D3B
ENCODING  7483
SWIDTH  1000 0
DWIDTH  6 0
BBX  6 5 0 3
BITMAP
4C
4C
54
64
44
ENDCHAR
STARTCHAR  1D3C
ENCODING  7484
SWIDTH  1000 0
DWIDTH  7 0
BBX  7 6 0 2
BITMAP
3C
46
42
42
46
3C
ENDCHAR
STARTCHAR  1D3D
ENCODING  7485
SWIDTH  1000 0
DWIDTH  5 0
BBX  5 6 0 2
BITMAP
48
30
48
48
48
30
ENDCHAR
STARTCHAR  1D3E
ENCODING  7486
SWIDTH  1000 0
DWIDTH  6 0
BBX  6 6 0 2
BITMAP
78
44
44
78
40
40
ENDCHAR
STARTCHAR  1D3F
ENCODING  7487
SWIDTH  1000 0
DWIDTH  6 0
BBX  7 6 0 2
BITMAP
7C
44
78
48
44
00
ENDCHAR
STARTCHAR  1D40
ENCODING  7488
SWIDTH  1000 0
DWIDTH  5 0
BBX  6 6 -1 2
BITMAP
7C
10
10
10
10
10
ENDCHAR
STARTCHAR  1D41
ENCODING  7489
SWIDTH  1000 0
DWIDTH  6 0
BBX  6 6 0 2
BITMAP
44
44
44
44
44
38
ENDCHAR
STARTCHAR  1D42
ENCODING  7490
SWIDTH  1000 0
DWIDTH  7 0
BBX  8 6 0 2
BITMAP
90
9A
AA
6C
6C
04
ENDCHAR
STARTCHAR  1D43
ENCODING  7491
SWIDTH  1000 0
DWIDTH  5 0
BBX  5 4 0 2
BITMAP
70
10
70
68
ENDCHAR
STARTCHAR  1D44
ENCODING  7492
SWIDTH  1000 0
DWIDTH  5 0
BBX  5 4 0 2
BITMAP
70
50
60
70
ENDCHAR
STARTCHAR  1D45
ENCODING  7493
SWIDTH  1000 0
DWIDTH  6 0
BBX  5 4 0 2
BITMAP
78
48
48
38
ENDCHAR
STARTCHAR  1D46
ENCODING  7494
SWIDTH  1000 0
DWIDTH  7 0
BBX  7 4 0 2
BITMAP
EE
FE
92
7C
ENDCHAR
STARTCHAR  1D47
ENCODING  7495
SWIDTH  1000 0
DWIDTH  5 0
BBX  5 6 0 2
BITMAP
40
70
48
48
48
70
ENDCHAR
STARTCHAR  1D48
ENCODING  7496
SWIDTH  1000 0
DWIDTH  6 0
BBX  5 5 0 3
BITMAP
08
38
48
48
78
ENDCHAR
STARTCHAR  1D49
ENCODING  7497
SWIDTH  1000 0
DWIDTH  4 0
BBX  4 4 0 2
BITMAP
60
F0
90
60
ENDCHAR
STARTCHAR  1D4A
ENCODING  7498
SWIDTH  1000 0
DWIDTH  4 0
BBX  4 4 0 2
BITMAP
60
F0
90
60
ENDCHAR
STARTCHAR  1D4B
ENCODING  7499
SWIDTH  1000 0
DWIDTH  5 0
BBX  5 4 0 2
BITMAP
70
20
50
70
ENDCHAR
STARTCHAR  1D4C
ENCODING  7500
SWIDTH  1000 0
DWIDTH  4 0
BBX  4 4 0 2
BITMAP
70
20
10
70
ENDCHAR
STARTCHAR  1D4D
ENCODING  7501
SWIDTH  1000 0
DWIDTH  5 0
BBX  5 6 0 1
BITMAP
38
48
48
48
38
70
ENDCHAR
STARTCHAR  1D4E
ENCODING  7502
SWIDTH  1000 0
DWIDTH  3 0
BBX  2 6 0 1
BITMAP
40
40
40
40
00
40
ENDCHAR
STARTCHAR  1D4F
ENCODING  7503
SWIDTH  1000 0
DWIDTH  5 0
BBX  5 5 0 3
BITMAP
40
50
60
50
50
ENDCHAR
STARTCHAR  1D50
ENCODING  7504
SWIDTH  1000 0
DWIDTH  7 0
BBX  6 4 0 3
BITMAP
7C
54
54
54
ENDCHAR
STARTCHAR  1D51
ENCODING  7505
SWIDTH  1000 0
DWIDTH  6 0
BBX  5 6 0 1
BITMAP
78
48
48
48
08
18
ENDCHAR
STARTCHAR  1D52
ENCODING  7506
SWIDTH  1000 0
DWIDTH  5 0
BBX  5 4 0 2
BITMAP
30
48
48
30
ENDCHAR
STARTCHAR  1D53
ENCODING  7507
SWIDTH  1000 0
DWIDTH  4 0
BBX  5 4 -1 2
BITMAP
30
08
48
30
ENDCHAR
STARTCHAR  1D54
ENCODING  7508
SWIDTH  1000 0
DWIDTH  6 0
BBX  4 3 1 4
BITMAP
60
90
00
ENDCHAR
STARTCHAR  1D55
ENCODING  7509
SWIDTH  1000 0
DWIDTH  6 0
BBX  4 3 1 2
BITMAP
00
90
60
ENDCHAR
STARTCHAR  1D56
ENCODING  7510
SWIDTH  1000 0
DWIDTH  5 0
BBX  5 6 0 1
BITMAP
70
48
48
48
70
40
ENDCHAR
STARTCHAR  1D57
ENCODING  7511
SWIDTH  1000 0
DWIDTH  3 0
BBX  3 6 0 2
BITMAP
00
40
E0
40
40
60
ENDCHAR
STARTCHAR  1D58
ENCODING  7512
SWIDTH  1000 0
DWIDTH  6 0
BBX  5 5 0 2
BITMAP
00
48
48
48
38
ENDCHAR
STARTCHAR  1D59
ENCODING  7513
SWIDTH  1000 0
DWIDTH  5 0
BBX  5 3 0 3
BITMAP
F8
08
F8
ENDCHAR
STARTCHAR  1D5A
ENCODING  7514
SWIDTH  1000 0
DWIDTH  7 0
BBX  6 5 0 2
BITMAP
00
54
54
54
7C
ENDCHAR
STARTCHAR  1D5B
ENCODING  7515
SWIDTH  1000 0
DWIDTH  4 0
BBX  4 4 0 3
BITMAP
90
A0
60
40
ENDCHAR
STARTCHAR  1D5C
ENCODING  7516
SWIDTH  1000 0
DWIDTH  5 0
BBX  5 5 0 2
BITMAP
00
70
70
20
D0
ENDCHAR
STARTCHAR  1D62
ENCODING  7522
SWIDTH  1000 0
DWIDTH  3 0
BBX  2 6 0 -1
BITMAP
40
00
40
40
40
40
ENDCHAR
STARTCHAR  1D63
ENCODING  7523
SWIDTH  1000 0
DWIDTH  4 0
BBX  4 4 0 -1
BITMAP
60
40
40
40
ENDCHAR
STARTCHAR  1D64
ENCODING  7524
SWIDTH  1000 0
DWIDTH  6 0
BBX  5 5 0 -1
BITMAP
00
48
48
48
38
ENDCHAR
STARTCHAR  1D65
ENCODING  7525
SWIDTH  1000 0
DWIDTH  4 0
BBX  4 4 0 -1
BITMAP
90
A0
60
40
ENDCHAR
STARTCHAR  1D6B
ENCODING  7531
SWIDTH  1000 0
DWIDTH  11 0
BBX  11 6 0 0
BITMAP
4780
4440
47C0
4400
4440
3B80
ENDCHAR
STARTCHAR  1D6C
ENCODING  7532
SWIDTH  1000 0
DWIDTH  6 0
BBX  7 8 -1 0
BITMAP
60
B0
3C
22
22
22
26
3C
ENDCHAR
STARTCHAR  1D6D
ENCODING  7533
SWIDTH  1000 0
DWIDTH  7 0
BBX  8 8 0 0
BITMAP
0E
06
3C
44
44
44
44
3C
ENDCHAR
STARTCHAR  1D6E
ENCODING  7534
SWIDTH  1000 0
DWIDTH  3 0
BBX  5 8 -1 0
BITMAP
38
20
70
20
60
B0
20
20
ENDCHAR
STARTCHAR  1D6F
ENCODING  7535
SWIDTH  1000 0
DWIDTH  11 0
BBX  12 6 -1 0
BITMAP
3DC0
2220
3E30
63E0
2220
2220
ENDCHAR
STARTCHAR  1D70
ENCODING  7536
SWIDTH  1000 0
DWIDTH  7 0
BBX  9 6 -1 0
BITMAP
3C00
2200
2300
7F00
2200
2200
ENDCHAR
STARTCHAR  1D71
ENCODING  7537
SWIDTH  1000 0
DWIDTH  6 0
BBX  7 8 -1 -2
BITMAP
3C
22
22
22
22
3C
70
B0
ENDCHAR
STARTCHAR  1D72
ENCODING  7538
SWIDTH  1000 0
DWIDTH  4 0
BBX  6 6 -1 0
BITMAP
38
20
20
70
20
20
ENDCHAR
STARTCHAR  1D73
ENCODING  7539
SWIDTH  1000 0
DWIDTH  4 0
BBX  6 6 -1 0
BITMAP
18
20
20
70
20
20
ENDCHAR
STARTCHAR  1D74
ENCODING  7540
SWIDTH  1000 0
DWIDTH  6 0
BBX  7 6 0 0
BITMAP
78
44
70
0C
44
38
ENDCHAR
STARTCHAR  1D75
ENCODING  7541
SWIDTH  1000 0
DWIDTH  3 0
BBX  5 9 -1 0
BITMAP
00
20
20
70
20
60
B0
20
30
ENDCHAR
STARTCHAR  1D76
ENCODING  7542
SWIDTH  1000 0
DWIDTH  7 0
BBX  6 6 1 0
BITMAP
FC
18
78
B8
40
FC
ENDCHAR
STARTCHAR  1D77
ENCODING  7543
SWIDTH  1000 0
DWIDTH  6 0
BBX  6 8 0 -2
BITMAP
38
44
78
4C
44
44
44
78
ENDCHAR
STARTCHAR  1D79
ENCODING  7545
SWIDTH  1000 0
DWIDTH  7 0
BBX  7 8 0 -2
BITMAP
7C
08
18
3C
46
42
42
3C
ENDCHAR
STARTCHAR  1D7A
ENCODING  7546
SWIDTH  1000 0
DWIDTH  10 0
BBX  9 9 0 -1
BITMAP
4900
4A00
EF00
4880
5880
7880
6880
6880
8000
ENDCHAR
STARTCHAR  1D7B
ENCODING  7547
SWIDTH  1000 0
DWIDTH  3 0
BBX  3 6 0 0
BITMAP
40
40
E0
40
40
40
ENDCHAR
STARTCHAR  1D7C
ENCODING  7548
SWIDTH  1000 0
DWIDTH  3 0
BBX  3 6 0 0
BITMAP
40
40
E0
40
40
40
ENDCHAR
STARTCHAR  1D7D
ENCODING  7549
SWIDTH  1000 0
DWIDTH  6 0
BBX  7 8 0 -2
BITMAP
78
44
FC
44
4C
78
40
40
ENDCHAR
STARTCHAR  1D7E
ENCODING  7550
SWIDTH  1000 0
DWIDTH  7 0
BBX  7 6 0 0
BITMAP
44
44
FE
44
44
38
ENDCHAR
STARTCHAR  1D7F
ENCODING  7551
SWIDTH  1000 0
DWIDTH  7 0
BBX  8 6 0 0
BITMAP
6E
44
FE
42
46
3C
ENDCHAR
STARTCHAR  1D80
ENCODING  7552
SWIDTH  1000 0
DWIDTH  6 0
BBX  6 10 0 -2
BITMAP
40
40
78
44
44
44
4C
7C
04
0C
ENDCHAR
STARTCHAR  1D81
ENCODING  7553
SWIDTH  1000 0
DWIDTH  7 0
BBX  7 10 0 -2
BITMAP
04
04
3C
44
44
44
44
3E
06
0E
ENDCHAR
STARTCHAR  1D82
ENCODING  7554
SWIDTH  1000 0
DWIDTH  3 0
BBX  5 10 -1 -2
BITMAP
30
20
70
20
20
20
20
20
20
60
ENDCHAR
STARTCHAR  1D83
ENCODING  7555
SWIDTH  1000 0
DWIDTH  9 0
BBX  9 8 0 -2
BITMAP
3C00
4400
4400
4400
4780
3C80
4700
3800
ENDCHAR
STARTCHAR  1D84
ENCODING  7556
SWIDTH  1000 0
DWIDTH  6 0
BBX  6 10 0 -2
BITMAP
40
40
48
50
70
50
48
4C
04
0C
ENDCHAR
STARTCHAR  1D85
ENCODING  7557
SWIDTH  1000 0
DWIDTH  3 0
BBX  3 10 0 -2
BITMAP
40
40
40
40
40
40
40
40
40
C0
ENDCHAR
STARTCHAR  1D86
ENCODING  7558
SWIDTH  1000 0
DWIDTH  10 0
BBX  10 8 0 -2
BITMAP
7B80
4480
4480
4480
4480
44C0
00C0
01C0
ENDCHAR
STARTCHAR  1D87
ENCODING  7559
SWIDTH  1000 0
DWIDTH  7 0
BBX  7 8 0 -2
BITMAP
78
44
44
44
44
44
04
0C
ENDCHAR
STARTCHAR  1D88
ENCODING  7560
SWIDTH  1000 0
DWIDTH  6 0
BBX  6 8 0 -2
BITMAP
78
44
44
44
44
7C
44
5C
ENDCHAR
STARTCHAR  1D89
ENCODING  7561
SWIDTH  1000 0
DWIDTH  4 0
BBX  5 8 0 -2
BITMAP
70
40
40
40
40
40
40
C0
ENDCHAR
STARTCHAR  1D8A
ENCODING  7562
SWIDTH  1000 0
DWIDTH  6 0
BBX  6 8 0 -2
BITMAP
78
44
70
0C
44
7C
04
0C
ENDCHAR
STARTCHAR  1D8B
ENCODING  7563
SWIDTH  1000 0
DWIDTH  5 0
BBX  6 10 -1 -2
BITMAP
30
20
20
20
20
20
38
28
38
60
ENDCHAR
STARTCHAR  1D8C
ENCODING  7564
SWIDTH  1000 0
DWIDTH  6 0
BBX  7 8 -1 -2
BITMAP
44
64
24
28
18
1C
04
0C
ENDCHAR
STARTCHAR  1D8D
ENCODING  7565
SWIDTH  1000 0
DWIDTH  6 0
BBX  6 8 0 -2
BITMAP
48
78
30
30
48
CC
04
0C
ENDCHAR
STARTCHAR  1D8E
ENCODING  7566
SWIDTH  1000 0
DWIDTH  7 0
BBX  6 8 1 -2
BITMAP
FC
18
30
20
40
FC
08
18
ENDCHAR
STARTCHAR  1D8F
ENCODING  7567
SWIDTH  1000 0
DWIDTH  7 0
BBX  9 8 0 -2
BITMAP
7800
4400
1C00
6400
C400
7E00
0200
0300
ENDCHAR
STARTCHAR  1D90
ENCODING  7568
SWIDTH  1000 0
DWIDTH  7 0
BBX  9 8 0 -2
BITMAP
3400
4400
4400
4400
4400
3E00
0200
0300
ENDCHAR
STARTCHAR  1D91
ENCODING  7569
SWIDTH  1000 0
DWIDTH  7 0
BBX  8 10 0 -2
BITMAP
07
04
3C
44
44
44
44
3C
04
06
ENDCHAR
STARTCHAR  1D92
ENCODING  7570
SWIDTH  1000 0
DWIDTH  7 0
BBX  9 8 0 -2
BITMAP
3C00
4200
7E00
4000
4600
3E00
0200
0300
ENDCHAR
STARTCHAR  1D93
ENCODING  7571
SWIDTH  1000 0
DWIDTH  6 0
BBX  8 8 0 -2
BITMAP
78
40
30
40
44
3C
04
06
ENDCHAR
STARTCHAR  1D94
ENCODING  7572
SWIDTH  1000 0
DWIDTH  6 0
BBX  6 8 0 -2
BITMAP
38
04
18
04
44
78
40
60
ENDCHAR
STARTCHAR  1D95
ENCODING  7573
SWIDTH  1000 0
DWIDTH  8 0
BBX  9 8 0 -2
BITMAP
7800
C400
FE00
C600
4E00
3A00
0200
0300
ENDCHAR
STARTCHAR  1D96
ENCODING  7574
SWIDTH  1000 0
DWIDTH  3 0
BBX  5 10 0 -2
BITMAP
40
00
40
40
40
40
40
60
20
30
ENDCHAR
STARTCHAR  1D97
ENCODING  7575
SWIDTH  1000 0
DWIDTH  6 0
BBX  6 8 0 -2
BITMAP
38
44
04
04
44
78
40
60
ENDCHAR
STARTCHAR  1D98
ENCODING  7576
SWIDTH  1000 0
DWIDTH  3 0
BBX  5 10 -1 -2
BITMAP
38
20
20
20
20
20
20
20
40
60
ENDCHAR
STARTCHAR  1D99
ENCODING  7577
SWIDTH  1000 0
DWIDTH  7 0
BBX  9 8 0 -2
BITMAP
4400
4400
4400
4400
4400
7E00
0200
0300
ENDCHAR
STARTCHAR  1D9A
ENCODING  7578
SWIDTH  1000 0
DWIDTH  6 0
BBX  6 8 0 -2
BITMAP
7C
08
10
38
04
C4
B8
60
ENDCHAR
STARTCHAR  1D9B
ENCODING  7579
SWIDTH  1000 0
DWIDTH  5 0
BBX  5 4 0 2
BITMAP
70
48
48
70
ENDCHAR
STARTCHAR  1D9C
ENCODING  7580
SWIDTH  1000 0
DWIDTH  5 0
BBX  5 4 0 2
BITMAP
30
40
48
30
ENDCHAR
STARTCHAR  1D9D
ENCODING  7581
SWIDTH  1000 0
DWIDTH  5 0
BBX  5 5 0 1
BITMAP
70
40
50
70
00
ENDCHAR
STARTCHAR  1D9E
ENCODING  7582
SWIDTH  1000 0
DWIDTH  5 0
BBX  5 6 0 2
BITMAP
10
30
48
48
48
30
ENDCHAR
STARTCHAR  1D9F
ENCODING  7583
SWIDTH  1000 0
DWIDTH  4 0
BBX  4 4 0 2
BITMAP
70
20
10
70
ENDCHAR
STARTCHAR  1DA0
ENCODING  7584
SWIDTH  1000 0
DWIDTH  3 0
BBX  4 6 0 2
BITMAP
60
40
E0
40
40
40
ENDCHAR
STARTCHAR  1DA1
ENCODING  7585
SWIDTH  1000 0
DWIDTH  3 0
BBX  4 6 -1 1
BITMAP
20
20
70
20
20
60
ENDCHAR
STARTCHAR  1DA2
ENCODING  7586
SWIDTH  1000 0
DWIDTH  5 0
BBX  5 6 0 1
BITMAP
38
48
48
48
38
70
ENDCHAR
STARTCHAR  1DA3
ENCODING  7587
SWIDTH  1000 0
DWIDTH  6 0
BBX  5 5 0 3
BITMAP
48
48
48
78
08
ENDCHAR
STARTCHAR  1DA4
ENCODING  7588
SWIDTH  1000 0
DWIDTH  3 0
BBX  3 6 0 2
BITMAP
40
00
40
C0
40
40
ENDCHAR
STARTCHAR  1DA5
ENCODING  7589
SWIDTH  1000 0
DWIDTH  3 0
BBX  2 4 0 3
BITMAP
40
40
40
40
ENDCHAR
STARTCHAR  1DA6
ENCODING  7590
SWIDTH  1000 0
DWIDTH  3 0
BBX  2 4 0 3
BITMAP
40
40
40
40
ENDCHAR
STARTCHAR  1DA7
ENCODING  7591
SWIDTH  1000 0
DWIDTH  3 0
BBX  3 4 0 3
BITMAP
40
C0
40
40
ENDCHAR
STARTCHAR  1DA8
ENCODING  7592
SWIDTH  1000 0
DWIDTH  4 0
BBX  5 7 -1 1
BITMAP
10
00
10
10
10
78
70
ENDCHAR
STARTCHAR  1DA9
ENCODING  7593
SWIDTH  1000 0
DWIDTH  3 0
BBX  3 7 0 1
BITMAP
40
40
40
40
40
40
60
ENDCHAR
STARTCHAR  1DAA
ENCODING  7594
SWIDTH  1000 0
DWIDTH  2 0
BBX  2 7 0 1
BITMAP
40
40
40
40
40
40
C0
ENDCHAR
STARTCHAR  1DAB
ENCODING  7595
SWIDTH  1000 0
DWIDTH  4 0
BBX  4 5 0 2
BITMAP
00
40
40
40
70
ENDCHAR
STARTCHAR  1DAC
ENCODING  7596
SWIDTH  1000 0
DWIDTH  7 0
BBX  6 6 0 1
BITMAP
7C
54
54
54
04
0C
ENDCHAR
STARTCHAR  1DAD
ENCODING  7597
SWIDTH  1000 0
DWIDTH  7 0
BBX  6 5 0 1
BITMAP
54
54
54
7C
04
ENDCHAR
STARTCHAR  1DAE
ENCODING  7598
SWIDTH  1000 0
DWIDTH  6 0
BBX  6 6 -1 1
BITMAP
3C
24
24
24
20
60
ENDCHAR
STARTCHAR  1DAF
ENCODING  7599
SWIDTH  1000 0
DWIDTH  6 0
BBX  6 6 0 1
BITMAP
78
48
48
48
08
0C
ENDCHAR
STARTCHAR  1DB0
ENCODING  7600
SWIDTH  1000 0
DWIDTH  6 0
BBX  5 4 0 3
BITMAP
48
68
58
48
ENDCHAR
STARTCHAR  1DB1
ENCODING  7601
SWIDTH  1000 0
DWIDTH  6 0
BBX  4 4 1 2
BITMAP
60
F0
90
60
ENDCHAR
STARTCHAR  1DB2
ENCODING  7602
SWIDTH  1000 0
DWIDTH  5 0
BBX  5 7 0 1
BITMAP
20
20
70
70
70
20
20
ENDCHAR
STARTCHAR  1DB3
ENCODING  7603
SWIDTH  1000 0
DWIDTH  5 0
BBX  4 6 1 1
BITMAP
E0
80
60
A0
E0
C0
ENDCHAR
STARTCHAR  1DB4
ENCODING  7604
SWIDTH  1000 0
DWIDTH  3 0
BBX  5 8 -1 0
BITMAP
30
20
20
20
20
20
20
60
ENDCHAR
STARTCHAR  1DB5
ENCODING  7605
SWIDTH  1000 0
DWIDTH  3 0
BBX  3 8 0 1
BITMAP
00
40
C0
40
40
40
40
40
ENDCHAR
STARTCHAR  1DB6
ENCODING  7606
SWIDTH  1000 0
DWIDTH  6 0
BBX  6 5 0 2
BITMAP
00
48
F8
48
78
ENDCHAR
STARTCHAR  1DB7
ENCODING  7607
SWIDTH  1000 0
DWIDTH  5 0
BBX  5 4 0 2
BITMAP
78
48
48
30
ENDCHAR
STARTCHAR  1DB8
ENCODING  7608
SWIDTH  1000 0
DWIDTH  5 0
BBX  4 5 0 2
BITMAP
00
50
50
50
60
ENDCHAR
STARTCHAR  1DB9
ENCODING  7609
SWIDTH  1000 0
DWIDTH  4 0
BBX  4 5 0 2
BITMAP
70
50
50
50
20
ENDCHAR
STARTCHAR  1DBA
ENCODING  7610
SWIDTH  1000 0
DWIDTH  4 0
BBX  4 4 0 3
BITMAP
40
60
A0
90
ENDCHAR
STARTCHAR  1DBB
ENCODING  7611
SWIDTH  1000 0
DWIDTH  5 0
BBX  4 4 1 2
BITMAP
F0
20
40
F0
ENDCHAR
STARTCHAR  1DBC
ENCODING  7612
SWIDTH  1000 0
DWIDTH  5 0
BBX  6 6 0 1
BITMAP
78
10
20
40
78
0C
ENDCHAR
STARTCHAR  1DBD
ENCODING  7613
SWIDTH  1000 0
DWIDTH  5 0
BBX  4 5 1 1
BITMAP
F0
20
70
F0
00
ENDCHAR
STARTCHAR  1DBE
ENCODING  7614
SWIDTH  1000 0
DWIDTH  4 0
BBX  4 6 0 1
BITMAP
F0
20
60
10
90
60
ENDCHAR
STARTCHAR  1DBF
ENCODING  7615
SWIDTH  1000 0
DWIDTH  5 0
BBX  5 6 0 2
BITMAP
30
48
78
48
48
30
ENDCHAR
STARTCHAR  1E00
ENCODING  7680
SWIDTH  1000 0
DWIDTH  8 0
BBX  8 10 0 -2
BITMAP
18
18
24
24
7C
42
42
81
18
18
ENDCHAR
STARTCHAR  1E01
ENCODING  7681
SWIDTH  1000 0
DWIDTH  7 0
BBX  7 8 0 -2
BITMAP
38
44
1C
64
44
7C
30
30
ENDCHAR
STARTCHAR  1E02
ENCODING  7682
SWIDTH  1000 0
DWIDTH  8 0
BBX  7 10 0 0
BITMAP
10
00
7C
42
42
7C
42
42
42
7C
ENDCHAR
STARTCHAR  1E03
ENCODING  7683
SWIDTH  1000 0
DWIDTH  6 0
BBX  6 8 0 0
BITMAP
50
40
78
44
44
44
4C
78
ENDCHAR
STARTCHAR  1E04
ENCODING  7684
SWIDTH  1000 0
DWIDTH  8 0
BBX  7 10 0 -2
BITMAP
7C
42
42
7C
42
42
42
7C
00
10
ENDCHAR
STARTCHAR  1E05
ENCODING  7685
SWIDTH  1000 0
DWIDTH  6 0
BBX  6 10 0 -2
BITMAP
40
40
78
44
44
44
4C
78
00
10
ENDCHAR
STARTCHAR  1E06
ENCODING  7686
SWIDTH  1000 0
DWIDTH  8 0
BBX  7 10 0 -2
BITMAP
7C
42
42
7C
42
42
42
7C
00
3C
ENDCHAR
STARTCHAR  1E07
ENCODING  7687
SWIDTH  1000 0
DWIDTH  6 0
BBX  6 10 0 -2
BITMAP
40
40
78
44
44
44
4C
78
00
38
ENDCHAR
STARTCHAR  1E08
ENCODING  7688
SWIDTH  1000 0
DWIDTH  9 0
BBX  9 13 0 -2
BITMAP
0400
0800
0000
1E00
2100
4000
4000
4000
4100
2100
1E00
0C00
1C00
ENDCHAR
STARTCHAR  1E09
ENCODING  7689
SWIDTH  1000 0
DWIDTH  7 0
BBX  7 10 0 -2
BITMAP
18
00
3C
44
40
40
44
38
18
38
ENDCHAR
STARTCHAR  1E0A
ENCODING  7690
SWIDTH  1000 0
DWIDTH  9 0
BBX  8 10 0 0
BITMAP
08
00
7C
42
41
41
41
41
42
7C
ENDCHAR
STARTCHAR  1E0B
ENCODING  7691
SWIDTH  1000 0
DWIDTH  7 0
BBX  6 8 0 0
BITMAP
14
04
3C
44
44
44
44
3C
ENDCHAR
STARTCHAR  1E0C
ENCODING  7692
SWIDTH  1000 0
DWIDTH  9 0
BBX  8 10 0 -2
BITMAP
7C
42
41
41
41
41
42
7C
00
08
ENDCHAR
STARTCHAR  1E0D
ENCODING  7693
SWIDTH  1000 0
DWIDTH  7 0
BBX  6 10 0 -2
BITMAP
04
04
3C
44
44
44
44
3C
00
10
ENDCHAR
STARTCHAR  1E0E
ENCODING  7694
SWIDTH  1000 0
DWIDTH  9 0
BBX  8 10 0 -2
BITMAP
7C
42
41
41
41
41
42
7C
00
3C
ENDCHAR
STARTCHAR  1E0F
ENCODING  7695
SWIDTH  1000 0
DWIDTH  7 0
BBX  6 10 0 -2
BITMAP
04
04
3C
44
44
44
44
3C
00
38
ENDCHAR
STARTCHAR  1E10
ENCODING  7696
SWIDTH  1000 0
DWIDTH  9 0
BBX  8 11 0 -3
BITMAP
7C
42
41
41
41
41
42
7C
18
08
00
ENDCHAR
STARTCHAR  1E11
ENCODING  7697
SWIDTH  1000 0
DWIDTH  7 0
BBX  6 11 0 -3
BITMAP
04
04
3C
44
44
44
44
3C
10
10
00
ENDCHAR
STARTCHAR  1E12
ENCODING  7698
SWIDTH  1000 0
DWIDTH  9 0
BBX  8 10 0 -2
BITMAP
7C
42
41
41
41
41
42
7C
00
18
ENDCHAR
STARTCHAR  1E13
ENCODING  7699
SWIDTH  1000 0
DWIDTH  7 0
BBX  6 10 0 -2
BITMAP
04
04
3C
44
44
44
44
3C
00
38
ENDCHAR
STARTCHAR  1E14
ENCODING  7700
SWIDTH  1000 0
DWIDTH  8 0
BBX  8 11 0 0
BITMAP
00
10
38
7E
40
40
7E
40
40
40
7E
ENDCHAR
STARTCHAR  1E15
ENCODING  7701
SWIDTH  1000 0
DWIDTH  7 0
BBX  7 10 0 0
BITMAP
10
00
38
00
38
44
7C
40
44
38
ENDCHAR
STARTCHAR  1E16
ENCODING  7702
SWIDTH  1000 0
DWIDTH  8 0
BBX  8 11 0 0
BITMAP
00
08
38
7E
40
40
7E
40
40
40
7E
ENDCHAR
STARTCHAR  1E17
ENCODING  7703
SWIDTH  1000 0
DWIDTH  7 0
BBX  7 10 0 0
BITMAP
18
10
38
00
38
44
7C
40
44
38
ENDCHAR
STARTCHAR  1E18
ENCODING  7704
SWIDTH  1000 0
DWIDTH  8 0
BBX  8 10 0 -2
BITMAP
7E
40
40
7E
40
40
40
7E
00
18
ENDCHAR
STARTCHAR  1E19
ENCODING  7705
SWIDTH  1000 0
DWIDTH  7 0
BBX  7 8 0 -2
BITMAP
38
44
7C
40
44
38
00
38
ENDCHAR
STARTCHAR  1E1A
ENCODING  7706
SWIDTH  1000 0
DWIDTH  8 0
BBX  8 10 0 -2
BITMAP
7E
40
40
7E
40
40
40
7E
00
3C
ENDCHAR
STARTCHAR  1E1B
ENCODING  7707
SWIDTH  1000 0
DWIDTH  7 0
BBX  7 8 0 -2
BITMAP
38
44
7C
40
44
38
00
38
ENDCHAR
STARTCHAR  1E1C
ENCODING  7708
SWIDTH  1000 0
DWIDTH  8 0
BBX  8 13 0 -2
BITMAP
24
18
00
7E
40
40
7E
40
40
40
7E
10
18
ENDCHAR
STARTCHAR  1E1D
ENCODING  7709
SWIDTH  1000 0
DWIDTH  7 0
BBX  7 10 0 -2
BITMAP
38
00
38
44
7C
40
64
38
18
18
ENDCHAR
STARTCHAR  1E1E
ENCODING  7710
SWIDTH  1000 0
DWIDTH  7 0
BBX  7 10 0 0
BITMAP
10
00
7C
40
40
7C
40
40
40
40
ENDCHAR
STARTCHAR  1E1F
ENCODING  7711
SWIDTH  1000 0
DWIDTH  3 0
BBX  5 10 -1 0
BITMAP
10
00
30
20
70
20
20
20
20
20
ENDCHAR
STARTCHAR  1E20
ENCODING  7712
SWIDTH  1000 0
DWIDTH  10 0
BBX  9 10 0 0
BITMAP
1E00
0000
1E00
2100
4000
4000
4780
4080
2080
1F00
ENDCHAR
STARTCHAR  1E21
ENCODING  7713
SWIDTH  1000 0
DWIDTH  7 0
BBX  6 10 0 -2
BITMAP
38
00
3C
44
44
44
44
3C
44
38
ENDCHAR
STARTCHAR  1E22
ENCODING  7714
SWIDTH  1000 0
DWIDTH  9 0
BBX  8 10 0 0
BITMAP
08
00
41
41
41
7F
41
41
41
41
ENDCHAR
STARTCHAR  1E23
ENCODING  7715
SWIDTH  1000 0
DWIDTH  7 0
BBX  6 10 0 0
BITMAP
10
00
40
40
78
44
44
44
44
44
ENDCHAR
STARTCHAR  1E24
ENCODING  7716
SWIDTH  1000 0
DWIDTH  9 0
BBX  8 10 0 -2
BITMAP
41
41
41
7F
41
41
41
41
00
08
ENDCHAR
STARTCHAR  1E25
ENCODING  7717
SWIDTH  1000 0
DWIDTH  7 0
BBX  6 10 0 -2
BITMAP
40
40
78
44
44
44
44
44
00
10
ENDCHAR
STARTCHAR  1E26
ENCODING  7718
SWIDTH  1000 0
DWIDTH  9 0
BBX  8 10 0 0
BITMAP
14
00
41
41
41
7F
41
41
41
41
ENDCHAR
STARTCHAR  1E27
ENCODING  7719
SWIDTH  1000 0
DWIDTH  7 0
BBX  6 10 0 0
BITMAP
28
00
40
40
78
44
44
44
44
44
ENDCHAR
STARTCHAR  1E28
ENCODING  7720
SWIDTH  1000 0
DWIDTH  9 0
BBX  8 10 0 -2
BITMAP
41
41
41
7F
41
41
41
41
40
60
ENDCHAR
STARTCHAR  1E29
ENCODING  7721
SWIDTH  1000 0
DWIDTH  7 0
BBX  6 10 0 -2
BITMAP
40
40
78
44
44
44
44
44
40
60
ENDCHAR
STARTCHAR  1E2A
ENCODING  7722
SWIDTH  1000 0
DWIDTH  9 0
BBX  8 10 0 -2
BITMAP
41
41
41
7F
41
41
41
41
00
1C
ENDCHAR
STARTCHAR  1E2B
ENCODING  7723
SWIDTH  1000 0
DWIDTH  7 0
BBX  6 10 0 -2
BITMAP
40
40
78
44
44
44
44
44
00
38
ENDCHAR
STARTCHAR  1E2C
ENCODING  7724
SWIDTH  1000 0
DWIDTH  3 0
BBX  5 10 -1 -2
BITMAP
20
20
20
20
20
20
20
20
00
70
ENDCHAR
STARTCHAR  1E2D
ENCODING  7725
SWIDTH  1000 0
DWIDTH  3 0
BBX  5 10 -1 -2
BITMAP
20
00
20
20
20
20
20
20
00
70
ENDCHAR
STARTCHAR  1E2E
ENCODING  7726
SWIDTH  1000 0
DWIDTH  3 0
BBX  4 11 -1 0
BITMAP
00
20
50
20
20
20
20
20
20
20
20
ENDCHAR
STARTCHAR  1E2F
ENCODING  7727
SWIDTH  1000 0
DWIDTH  4 0
BBX  5 10 0 0
BITMAP
30
20
50
00
20
20
20
20
20
20
ENDCHAR
STARTCHAR  1E30
ENCODING  7728
SWIDTH  1000 0
DWIDTH  8 0
BBX  8 10 0 0
BITMAP
08
10
42
44
48
70
68
44
46
43
ENDCHAR
STARTCHAR  1E31
ENCODING  7729
SWIDTH  1000 0
DWIDTH  6 0
BBX  7 10 0 0
BITMAP
10
10
40
40
48
50
70
50
48
4C
ENDCHAR
STARTCHAR  1E32
ENCODING  7730
SWIDTH  1000 0
DWIDTH  8 0
BBX  9 10 0 -2
BITMAP
4300
4600
4800
7800
6C00
4400
4200
4300
0000
0800
ENDCHAR
STARTCHAR  1E33
ENCODING  7731
SWIDTH  1000 0
DWIDTH  6 0
BBX  7 10 0 -2
BITMAP
40
40
4C
50
70
58
48
44
00
10
ENDCHAR
STARTCHAR  1E34
ENCODING  7732
SWIDTH  1000 0
DWIDTH  8 0
BBX  8 10 0 -2
BITMAP
42
44
48
70
68
44
46
43
00
3C
ENDCHAR
STARTCHAR  1E35
ENCODING  7733
SWIDTH  1000 0
DWIDTH  6 0
BBX  7 10 0 -2
BITMAP
40
40
48
50
70
50
48
4C
00
78
ENDCHAR
STARTCHAR  1E36
ENCODING  7734
SWIDTH  1000 0
DWIDTH  6 0
BBX  7 10 0 -2
BITMAP
40
40
40
40
40
40
40
7C
00
10
ENDCHAR
STARTCHAR  1E37
ENCODING  7735
SWIDTH  1000 0
DWIDTH  3 0
BBX  2 10 0 -2
BITMAP
40
40
40
40
40
40
40
40
00
40
ENDCHAR
STARTCHAR  1E38
ENCODING  7736
SWIDTH  1000 0
DWIDTH  6 0
BBX  7 12 0 -2
BITMAP
38
00
40
40
40
40
40
40
40
7C
00
10
ENDCHAR
STARTCHAR  1E39
ENCODING  7737
SWIDTH  1000 0
DWIDTH  3 0
BBX  5 12 -1 -2
BITMAP
70
00
20
20
20
20
20
20
20
20
00
20
ENDCHAR
STARTCHAR  1E3A
ENCODING  7738
SWIDTH  1000 0
DWIDTH  7 0
BBX  7 10 0 -2
BITMAP
40
40
40
40
40
40
40
7C
00
38
ENDCHAR
STARTCHAR  1E3B
ENCODING  7739
SWIDTH  1000 0
DWIDTH  3 0
BBX  5 10 -1 -2
BITMAP
20
20
20
20
20
20
20
20
00
70
ENDCHAR
STARTCHAR  1E3C
ENCODING  7740
SWIDTH  1000 0
DWIDTH  7 0
BBX  7 10 0 -2
BITMAP
40
40
40
40
40
40
40
7C
00
38
ENDCHAR
STARTCHAR  1E3D
ENCODING  7741
SWIDTH  1000 0
DWIDTH  3 0
BBX  5 10 -1 -2
BITMAP
20
20
20
20
20
20
20
20
00
70
ENDCHAR
STARTCHAR  1E3E
ENCODING  7742
SWIDTH  1000 0
DWIDTH  10 0
BBX  9 10 0 0
BITMAP
0400
0800
6180
6180
6280
5280
5280
5480
4C80
4C80
ENDCHAR
STARTCHAR  1E3F
ENCODING  7743
SWIDTH  1000 0
DWIDTH  11 0
BBX  10 8 0 0
BITMAP
0600
0400
7B80
4440
4440
4440
4440
4440
ENDCHAR
STARTCHAR  1E40
ENCODING  7744
SWIDTH  1000 0
DWIDTH  11 0
BBX  10 10 0 0
BITMAP
0400
0000
60C0
60C0
5140
5140
5240
4A40
4C40
4440
ENDCHAR
STARTCHAR  1E41
ENCODING  7745
SWIDTH  1000 0
DWIDTH  11 0
BBX  10 8 0 0
BITMAP
0400
0000
7B80
4440
4440
4440
4440
4440
ENDCHAR
STARTCHAR  1E42
ENCODING  7746
SWIDTH  1000 0
DWIDTH  10 0
BBX  9 10 0 -2
BITMAP
6180
6180
5180
5280
5A80
4A80
4C80
4480
0000
0400
ENDCHAR
STARTCHAR  1E43
ENCODING  7747
SWIDTH  1000 0
DWIDTH  11 0
BBX  10 8 0 -2
BITMAP
7B80
4440
4440
4440
4440
4440
0000
0400
ENDCHAR
STARTCHAR  1E44
ENCODING  7748
SWIDTH  1000 0
DWIDTH  9 0
BBX  8 10 0 0
BITMAP
08
00
41
61
51
59
49
45
43
43
ENDCHAR
STARTCHAR  1E45
ENCODING  7749
SWIDTH  1000 0
DWIDTH  7 0
BBX  6 8 0 0
BITMAP
10
00
78
44
44
44
44
44
ENDCHAR
STARTCHAR  1E46
ENCODING  7750
SWIDTH  1000 0
DWIDTH  9 0
BBX  8 10 0 -2
BITMAP
41
61
51
59
4D
45
43
43
00
08
ENDCHAR
STARTCHAR  1E47
ENCODING  7751
SWIDTH  1000 0
DWIDTH  7 0
BBX  6 8 0 -2
BITMAP
78
44
44
44
44
44
00
10
ENDCHAR
STARTCHAR  1E48
ENCODING  7752
SWIDTH  1000 0
DWIDTH  9 0
BBX  8 10 0 -2
BITMAP
41
61
51
59
4D
45
43
43
00
3C
ENDCHAR
STARTCHAR  1E49
ENCODING  7753
SWIDTH  1000 0
DWIDTH  7 0
BBX  6 8 0 -2
BITMAP
78
44
44
44
44
44
00
38
ENDCHAR
STARTCHAR  1E4A
ENCODING  7754
SWIDTH  1000 0
DWIDTH  9 0
BBX  8 10 0 -2
BITMAP
41
61
51
59
4D
45
43
43
00
1C
ENDCHAR
STARTCHAR  1E4B
ENCODING  7755
SWIDTH  1000 0
DWIDTH  7 0
BBX  6 8 0 -2
BITMAP
78
44
44
44
44
44
00
38
ENDCHAR
STARTCHAR  1E4C
ENCODING  7756
SWIDTH  1000 0
DWIDTH  9 0
BBX  9 11 0 0
BITMAP
0600
0A00
1400
1E00
2100
4080
4080
4080
4080
2100
1E00
ENDCHAR
STARTCHAR  1E4D
ENCODING  7757
SWIDTH  1000 0
DWIDTH  7 0
BBX  7 10 0 0
BITMAP
08
10
3C
00
3C
46
42
42
46
3C
ENDCHAR
STARTCHAR  1E4E
ENCODING  7758
SWIDTH  1000 0
DWIDTH  9 0
BBX  9 10 0 0
BITMAP
0A00
1400
1E00
2100
4080
4080
4080
4080
2100
1E00
ENDCHAR
STARTCHAR  1E4F
ENCODING  7759
SWIDTH  1000 0
DWIDTH  7 0
BBX  7 10 0 0
BITMAP
24
00
3C
00
3C
46
42
42
46
3C
ENDCHAR
STARTCHAR  1E50
ENCODING  7760
SWIDTH  1000 0
DWIDTH  9 0
BBX  9 11 0 0
BITMAP
0000
0000
1C00
1E00
2100
4080
4080
4080
4080
2100
1E00
ENDCHAR
STARTCHAR  1E51
ENCODING  7761
SWIDTH  1000 0
DWIDTH  7 0
BBX  7 10 0 0
BITMAP
10
08
3C
00
3C
46
42
42
46
3C
ENDCHAR
STARTCHAR  1E52
ENCODING  7762
SWIDTH  1000 0
DWIDTH  9 0
BBX  9 11 0 0
BITMAP
0000
0800
1C00
1E00
2100
4080
4080
4080
4080
2100
1E00
ENDCHAR
STARTCHAR  1E53
ENCODING  7763
SWIDTH  1000 0
DWIDTH  7 0
BBX  7 10 0 0
BITMAP
08
10
3C
00
3C
46
42
42
46
3C
ENDCHAR
STARTCHAR  1E54
ENCODING  7764
SWIDTH  1000 0
DWIDTH  7 0
BBX  7 10 0 0
BITMAP
10
00
7C
42
42
42
7C
40
40
40
ENDCHAR
STARTCHAR  1E55
ENCODING  7765
SWIDTH  1000 0
DWIDTH  6 0
BBX  6 10 0 -2
BITMAP
10
00
78
44
44
44
44
78
40
40
ENDCHAR
STARTCHAR  1E56
ENCODING  7766
SWIDTH  1000 0
DWIDTH  7 0
BBX  7 10 0 0
BITMAP
10
00
7C
42
42
42
7C
40
40
40
ENDCHAR
STARTCHAR  1E57
ENCODING  7767
SWIDTH  1000 0
DWIDTH  6 0
BBX  6 10 0 -2
BITMAP
10
00
78
44
44
44
44
78
40
40
ENDCHAR
STARTCHAR  1E58
ENCODING  7768
SWIDTH  1000 0
DWIDTH  9 0
BBX  9 10 0 0
BITMAP
1000
0000
7E00
4100
4100
7E00
4400
4200
4300
4100
ENDCHAR
STARTCHAR  1E59
ENCODING  7769
SWIDTH  1000 0
DWIDTH  4 0
BBX  4 8 0 0
BITMAP
20
00
70
40
40
40
40
40
ENDCHAR
STARTCHAR  1E5A
ENCODING  7770
SWIDTH  1000 0
DWIDTH  9 0
BBX  9 10 0 -2
BITMAP
7E00
4100
4100
7E00
4400
4200
4300
4100
0000
0800
ENDCHAR
STARTCHAR  1E5B
ENCODING  7771
SWIDTH  1000 0
DWIDTH  4 0
BBX  5 8 0 -2
BITMAP
70
40
40
40
40
40
00
20
ENDCHAR
STARTCHAR  1E5C
ENCODING  7772
SWIDTH  1000 0
DWIDTH  9 0
BBX  9 12 0 -2
BITMAP
3C00
0000
7E00
4100
4100
7E00
4400
4200
4300
4100
0000
0800
ENDCHAR
STARTCHAR  1E5D
ENCODING  7773
SWIDTH  1000 0
DWIDTH  4 0
BBX  5 10 0 -2
BITMAP
70
00
70
40
40
40
40
40
00
20
ENDCHAR
STARTCHAR  1E5E
ENCODING  7774
SWIDTH  1000 0
DWIDTH  9 0
BBX  9 10 0 -2
BITMAP
7E00
4100
4100
7E00
4400
4200
4300
4100
0000
3C00
ENDCHAR
STARTCHAR  1E5F
ENCODING  7775
SWIDTH  1000 0
DWIDTH  4 0
BBX  5 8 0 -2
BITMAP
70
40
40
40
40
40
00
F0
ENDCHAR
STARTCHAR  1E60
ENCODING  7776
SWIDTH  1000 0
DWIDTH  8 0
BBX  7 10 0 0
BITMAP
08
00
3C
44
40
78
0E
42
42
3C
ENDCHAR
STARTCHAR  1E61
ENCODING  7777
SWIDTH  1000 0
DWIDTH  5 0
BBX  5 8 0 0
BITMAP
20
00
70
88
60
18
88
70
ENDCHAR
STARTCHAR  1E62
ENCODING  7778
SWIDTH  1000 0
DWIDTH  8 0
BBX  7 10 0 -2
BITMAP
3C
44
40
78
0E
42
42
3C
00
08
ENDCHAR
STARTCHAR  1E63
ENCODING  7779
SWIDTH  1000 0
DWIDTH  5 0
BBX  5 8 0 -2
BITMAP
70
88
60
18
88
70
00
20
ENDCHAR
STARTCHAR  1E64
ENCODING  7780
SWIDTH  1000 0
DWIDTH  8 0
BBX  7 10 0 0
BITMAP
00
10
3C
44
40
78
0E
42
42
3C
ENDCHAR
STARTCHAR  1E65
ENCODING  7781
SWIDTH  1000 0
DWIDTH  6 0
BBX  6 10 0 0
BITMAP
10
00
10
00
78
4C
70
0C
44
78
ENDCHAR
STARTCHAR  1E66
ENCODING  7782
SWIDTH  1000 0
DWIDTH  8 0
BBX  7 10 0 0
BITMAP
10
10
3C
44
40
78
0E
42
42
3C
ENDCHAR
STARTCHAR  1E67
ENCODING  7783
SWIDTH  1000 0
DWIDTH  5 0
BBX  5 10 0 0
BITMAP
20
00
50
20
70
88
60
18
88
70
ENDCHAR
STARTCHAR  1E68
ENCODING  7784
SWIDTH  1000 0
DWIDTH  8 0
BBX  7 12 0 -2
BITMAP
08
00
3C
44
40
78
0E
42
42
3C
00
08
ENDCHAR
STARTCHAR  1E69
ENCODING  7785
SWIDTH  1000 0
DWIDTH  5 0
BBX  5 10 0 -2
BITMAP
20
00
70
88
60
18
88
70
00
20
ENDCHAR
STARTCHAR  1E6A
ENCODING  7786
SWIDTH  1000 0
DWIDTH  7 0
BBX  7 10 0 0
BITMAP
10
00
FE
10
10
10
10
10
10
10
ENDCHAR
STARTCHAR  1E6B
ENCODING  7787
SWIDTH  1000 0
DWIDTH  3 0
BBX  4 10 0 0
BITMAP
40
00
40
40
E0
40
40
40
40
60
ENDCHAR
STARTCHAR  1E6C
ENCODING  7788
SWIDTH  1000 0
DWIDTH  7 0
BBX  7 10 0 -2
BITMAP
FE
10
10
10
10
10
10
10
00
10
ENDCHAR
STARTCHAR  1E6D
ENCODING  7789
SWIDTH  1000 0
DWIDTH  4 0
BBX  4 11 0 -2
BITMAP
00
40
40
E0
40
40
40
40
60
00
20
ENDCHAR
STARTCHAR  1E6E
ENCODING  7790
SWIDTH  1000 0
DWIDTH  7 0
BBX  7 10 0 -2
BITMAP
FE
10
10
10
10
10
10
10
00
38
ENDCHAR
STARTCHAR  1E6F
ENCODING  7791
SWIDTH  1000 0
DWIDTH  3 0
BBX  5 11 -1 -2
BITMAP
00
20
20
70
20
20
20
20
30
00
78
ENDCHAR
STARTCHAR  1E70
ENCODING  7792
SWIDTH  1000 0
DWIDTH  7 0
BBX  7 10 0 -2
BITMAP
FE
10
10
10
10
10
10
10
00
38
ENDCHAR
STARTCHAR  1E71
ENCODING  7793
SWIDTH  1000 0
DWIDTH  3 0
BBX  5 11 -1 -2
BITMAP
00
20
20
70
20
20
20
20
30
00
70
ENDCHAR
STARTCHAR  1E72
ENCODING  7794
SWIDTH  1000 0
DWIDTH  9 0
BBX  8 10 0 -2
BITMAP
41
41
41
41
41
41
43
3E
00
14
ENDCHAR
STARTCHAR  1E73
ENCODING  7795
SWIDTH  1000 0
DWIDTH  7 0
BBX  6 8 0 -2
BITMAP
44
44
44
44
44
7C
00
28
ENDCHAR
STARTCHAR  1E74
ENCODING  7796
SWIDTH  1000 0
DWIDTH  9 0
BBX  8 10 0 -2
BITMAP
41
41
41
41
41
41
43
3E
00
3C
ENDCHAR
STARTCHAR  1E75
ENCODING  7797
SWIDTH  1000 0
DWIDTH  7 0
BBX  6 8 0 -2
BITMAP
44
44
44
44
44
7C
00
38
ENDCHAR
STARTCHAR  1E76
ENCODING  7798
SWIDTH  1000 0
DWIDTH  9 0
BBX  8 10 0 -2
BITMAP
41
41
41
41
41
41
43
3E
00
1C
ENDCHAR
STARTCHAR  1E77
ENCODING  7799
SWIDTH  1000 0
DWIDTH  7 0
BBX  6 8 0 -2
BITMAP
44
44
44
44
44
7C
00
38
ENDCHAR
STARTCHAR  1E78
ENCODING  7800
SWIDTH  1000 0
DWIDTH  9 0
BBX  8 11 0 0
BITMAP
04
10
0C
41
41
41
41
41
41
43
3E
ENDCHAR
STARTCHAR  1E79
ENCODING  7801
SWIDTH  1000 0
DWIDTH  7 0
BBX  6 10 0 0
BITMAP
10
10
38
00
44
44
44
44
44
3C
ENDCHAR
STARTCHAR  1E7A
ENCODING  7802
SWIDTH  1000 0
DWIDTH  9 0
BBX  8 10 0 0
BITMAP
14
1C
41
41
41
41
41
41
43
3E
ENDCHAR
STARTCHAR  1E7B
ENCODING  7803
SWIDTH  1000 0
DWIDTH  7 0
BBX  6 9 0 0
BITMAP
28
38
00
44
44
44
44
44
3C
ENDCHAR
STARTCHAR  1E7C
ENCODING  7804
SWIDTH  1000 0
DWIDTH  8 0
BBX  8 10 0 0
BITMAP
3C
00
81
42
42
24
24
24
18
18
ENDCHAR
STARTCHAR  1E7D
ENCODING  7805
SWIDTH  1000 0
DWIDTH  6 0
BBX  6 8 0 0
BITMAP
78
00
84
48
48
38
30
30
ENDCHAR
STARTCHAR  1E7E
ENCODING  7806
SWIDTH  1000 0
DWIDTH  7 0
BBX  9 10 -1 -2
BITMAP
4100
4100
2200
2200
2400
1400
1400
0800
0000
0800
ENDCHAR
STARTCHAR  1E7F
ENCODING  7807
SWIDTH  1000 0
DWIDTH  6 0
BBX  7 8 0 -2
BITMAP
44
44
28
28
30
10
00
10
ENDCHAR
STARTCHAR  1E80
ENCODING  7808
SWIDTH  1000 0
DWIDTH  11 0
BBX  12 10 0 0
BITMAP
0400
0400
8620
4620
4A40
4A40
4940
3140
3180
3080
ENDCHAR
STARTCHAR  1E81
ENCODING  7809
SWIDTH  1000 0
DWIDTH  9 0
BBX  9 8 0 0
BITMAP
1000
0800
8900
5900
5500
5600
6600
2600
ENDCHAR
STARTCHAR  1E82
ENCODING  7810
SWIDTH  1000 0
DWIDTH  11 0
BBX  12 10 0 0
BITMAP
0200
0400
8620
4620
4A40
4A40
4940
3140
3180
3080
ENDCHAR
STARTCHAR  1E83
ENCODING  7811
SWIDTH  1000 0
DWIDTH  9 0
BBX  9 8 0 0
BITMAP
0800
0800
8900
5900
5500
5600
6600
2600
ENDCHAR
STARTCHAR  1E84
ENCODING  7812
SWIDTH  1000 0
DWIDTH  11 0
BBX  11 10 0 0
BITMAP
0A00
0000
8420
CA40
4A40
4A40
5240
3180
3180
3180
ENDCHAR
STARTCHAR  1E85
ENCODING  7813
SWIDTH  1000 0
DWIDTH  9 0
BBX  9 8 0 0
BITMAP
1400
0000
8900
5900
5900
5600
3600
2600
ENDCHAR
STARTCHAR  1E86
ENCODING  7814
SWIDTH  1000 0
DWIDTH  11 0
BBX  12 10 -1 0
BITMAP
0200
0000
4230
6620
2520
2520
2940
18C0
18C0
18C0
ENDCHAR
STARTCHAR  1E87
ENCODING  7815
SWIDTH  1000 0
DWIDTH  9 0
BBX  9 8 0 0
BITMAP
0800
0000
8900
4900
5500
5600
3600
2600
ENDCHAR
STARTCHAR  1E88
ENCODING  7816
SWIDTH  1000 0
DWIDTH  11 0
BBX  12 11 -1 -3
BITMAP
4210
4520
2520
2520
2920
28C0
18C0
18C0
0000
0200
0000
ENDCHAR
STARTCHAR  1E89
ENCODING  7817
SWIDTH  1000 0
DWIDTH  9 0
BBX  9 9 0 -3
BITMAP
8980
4900
5500
5500
3600
2600
0000
0800
0000
ENDCHAR
STARTCHAR  1E8A
ENCODING  7818
SWIDTH  1000 0
DWIDTH  8 0
BBX  9 10 0 0
BITMAP
0800
0000
6200
2600
1400
0800
1800
3400
2200
4300
ENDCHAR
STARTCHAR  1E8B
ENCODING  7819
SWIDTH  1000 0
DWIDTH  5 0
BBX  7 8 -1 0
BITMAP
10
00
4C
28
10
30
28
44
ENDCHAR
STARTCHAR  1E8C
ENCODING  7820
SWIDTH  1000 0
DWIDTH  8 0
BBX  9 10 0 0
BITMAP
1400
0000
6200
2600
1400
0800
1800
3400
2200
4300
ENDCHAR
STARTCHAR  1E8D
ENCODING  7821
SWIDTH  1000 0
DWIDTH  5 0
BBX  7 8 -1 0
BITMAP
28
00
4C
28
10
30
28
44
ENDCHAR
STARTCHAR  1E8E
ENCODING  7822
SWIDTH  1000 0
DWIDTH  7 0
BBX  9 10 -1 0
BITMAP
0800
0000
4300
2200
3400
1400
0800
0800
0800
0800
ENDCHAR
STARTCHAR  1E8F
ENCODING  7823
SWIDTH  1000 0
DWIDTH  6 0
BBX  7 10 0 -2
BITMAP
10
00
44
44
28
28
10
10
10
60
ENDCHAR
STARTCHAR  1E90
ENCODING  7824
SWIDTH  1000 0
DWIDTH  8 0
BBX  7 10 1 0
BITMAP
18
28
FE
04
08
10
30
60
C0
FE
ENDCHAR
STARTCHAR  1E91
ENCODING  7825
SWIDTH  1000 0
DWIDTH  7 0
BBX  6 8 1 0
BITMAP
30
00
FC
18
10
20
40
FC
ENDCHAR
STARTCHAR  1E92
ENCODING  7826
SWIDTH  1000 0
DWIDTH  8 0
BBX  9 10 0 -2
BITMAP
7F00
0200
0400
0C00
1800
3000
6000
7F00
0000
0800
ENDCHAR
STARTCHAR  1E93
ENCODING  7827
SWIDTH  1000 0
DWIDTH  6 0
BBX  7 8 0 -2
BITMAP
7C
08
10
30
60
7C
00
10
ENDCHAR
STARTCHAR  1E94
ENCODING  7828
SWIDTH  1000 0
DWIDTH  8 0
BBX  7 10 1 -2
BITMAP
FE
04
08
10
30
60
C0
FE
00
38
ENDCHAR
STARTCHAR  1E95
ENCODING  7829
SWIDTH  1000 0
DWIDTH  7 0
BBX  6 8 1 -2
BITMAP
FC
18
10
20
40
FC
00
78
ENDCHAR
STARTCHAR  1E96
ENCODING  7830
SWIDTH  1000 0
DWIDTH  7 0
BBX  6 10 0 -2
BITMAP
40
40
78
44
44
44
44
44
00
38
ENDCHAR
STARTCHAR  1E97
ENCODING  7831
SWIDTH  1000 0
DWIDTH  5 0
BBX  5 10 0 0
BITMAP
50
00
20
20
70
20
20
20
20
30
ENDCHAR
STARTCHAR  1E98
ENCODING  7832
SWIDTH  1000 0
DWIDTH  8 0
BBX  10 8 -1 0
BITMAP
0C00
0C00
4C80
4C80
2D00
3500
3300
3200
ENDCHAR
STARTCHAR  1E99
ENCODING  7833
SWIDTH  1000 0
DWIDTH  6 0
BBX  6 10 0 -2
BITMAP
30
30
C4
48
48
30
30
10
20
60
ENDCHAR
STARTCHAR  1E9A
ENCODING  7834
SWIDTH  1000 0
DWIDTH  7 0
BBX  7 8 0 0
BITMAP
10
10
38
44
1C
64
44
7C
ENDCHAR
STARTCHAR  1E9B
ENCODING  7835
SWIDTH  1000 0
DWIDTH  3 0
BBX  4 10 0 0
BITMAP
20
00
60
40
40
40
40
40
40
40
ENDCHAR
STARTCHAR  1EA0
ENCODING  7840
SWIDTH  1000 0
DWIDTH  7 0
BBX  9 10 -1 -2
BITMAP
0800
1400
1400
3400
2200
3E00
4300
4100
0000
0800
ENDCHAR
STARTCHAR  1EA1
ENCODING  7841
SWIDTH  1000 0
DWIDTH  7 0
BBX  7 8 0 -2
BITMAP
38
44
1C
64
44
7C
00
10
ENDCHAR
STARTCHAR  1EA2
ENCODING  7842
SWIDTH  1000 0
DWIDTH  8 0
BBX  9 10 -1 0
BITMAP
1C00
0C00
0800
1400
1400
1200
2200
3F00
6100
4180
ENDCHAR
STARTCHAR  1EA3
ENCODING  7843
SWIDTH  1000 0
DWIDTH  7 0
BBX  7 9 0 0
BITMAP
18
08
00
38
44
1C
64
44
7C
ENDCHAR
STARTCHAR  1EA4
ENCODING  7844
SWIDTH  1000 0
DWIDTH  8 0
BBX  10 10 -1 0
BITMAP
0400
0C00
0C00
0C00
1600
1200
3200
3F00
2100
4180
ENDCHAR
STARTCHAR  1EA5
ENCODING  7845
SWIDTH  1000 0
DWIDTH  7 0
BBX  7 10 0 0
BITMAP
18
10
10
28
38
44
1C
64
44
7C
ENDCHAR
STARTCHAR  1EA6
ENCODING  7846
SWIDTH  1000 0
DWIDTH  8 0
BBX  10 10 -1 0
BITMAP
0800
0C00
0C00
0C00
1600
1200
3200
3F00
2100
4180
ENDCHAR
STARTCHAR  1EA7
ENCODING  7847
SWIDTH  1000 0
DWIDTH  7 0
BBX  7 10 0 0
BITMAP
30
10
10
28
38
44
1C
64
44
7C
ENDCHAR
STARTCHAR  1EA8
ENCODING  7848
SWIDTH  1000 0
DWIDTH  8 0
BBX  10 10 -1 0
BITMAP
0400
1C00
0C00
0C00
1600
1200
3200
3F00
2100
4180
ENDCHAR
STARTCHAR  1EA9
ENCODING  7849
SWIDTH  1000 0
DWIDTH  7 0
BBX  7 10 0 0
BITMAP
18
18
10
00
38
44
1C
64
44
7C
ENDCHAR
STARTCHAR  1EAA
ENCODING  7850
SWIDTH  1000 0
DWIDTH  8 0
BBX  10 10 -1 0
BITMAP
1E00
1600
0C00
0C00
1600
1200
3200
3F00
2100
4180
ENDCHAR
STARTCHAR  1EAB
ENCODING  7851
SWIDTH  1000 0
DWIDTH  7 0
BBX  7 10 0 0
BITMAP
38
00
10
00
38
44
1C
64
44
7C
ENDCHAR
STARTCHAR  1EAC
ENCODING  7852
SWIDTH  1000 0
DWIDTH  7 0
BBX  9 11 -1 -2
BITMAP
1C00
0800
1400
1400
3400
2200
3E00
4300
4100
0000
0800
ENDCHAR
STARTCHAR  1EAD
ENCODING  7853
SWIDTH  1000 0
DWIDTH  7 0
BBX  7 10 0 -2
BITMAP
10
00
38
44
1C
64
44
7C
00
10
ENDCHAR
STARTCHAR  1EAE
ENCODING  7854
SWIDTH  1000 0
DWIDTH  8 0
BBX  10 10 -1 0
BITMAP
0800
0C00
0C00
0C00
1600
1200
3200
3F00
2100
4180
ENDCHAR
STARTCHAR  1EAF
ENCODING  7855
SWIDTH  1000 0
DWIDTH  7 0
BBX  7 10 0 0
BITMAP
18
10
38
00
38
44
1C
64
44
7C
ENDCHAR
STARTCHAR  1EB0
ENCODING  7856
SWIDTH  1000 0
DWIDTH  8 0
BBX  10 10 -1 0
BITMAP
0000
0C00
0C00
0C00
1600
1200
3200
3F00
2100
4180
ENDCHAR
STARTCHAR  1EB1
ENCODING  7857
SWIDTH  1000 0
DWIDTH  7 0
BBX  7 10 0 0
BITMAP
10
10
38
00
38
44
1C
64
44
7C
ENDCHAR
STARTCHAR  1EB2
ENCODING  7858
SWIDTH  1000 0
DWIDTH  8 0
BBX  10 10 -1 0
BITMAP
0400
0C00
0C00
0C00
1600
1200
3200
3F00
2100
4180
ENDCHAR
STARTCHAR  1EB3
ENCODING  7859
SWIDTH  1000 0
DWIDTH  7 0
BBX  7 10 0 0
BITMAP
18
18
38
00
38
44
1C
64
44
7C
ENDCHAR
STARTCHAR  1EB4
ENCODING  7860
SWIDTH  1000 0
DWIDTH  8 0
BBX  10 10 -1 0
BITMAP
1E00
0C00
0C00
0C00
1600
1200
3200
3F00
2100
4180
ENDCHAR
STARTCHAR  1EB5
ENCODING  7861
SWIDTH  1000 0
DWIDTH  7 0
BBX  7 10 0 0
BITMAP
38
00
38
00
38
44
1C
64
44
7C
ENDCHAR
STARTCHAR  1EB6
ENCODING  7862
SWIDTH  1000 0
DWIDTH  7 0
BBX  9 11 -1 -2
BITMAP
1C00
0800
1400
1400
3400
2200
3E00
4300
4100
0000
0800
ENDCHAR
STARTCHAR  1EB7
ENCODING  7863
SWIDTH  1000 0
DWIDTH  7 0
BBX  7 10 0 -2
BITMAP
38
00
38
44
1C
64
44
7C
00
10
ENDCHAR
STARTCHAR  1EB8
ENCODING  7864
SWIDTH  1000 0
DWIDTH  8 0
BBX  8 10 0 -2
BITMAP
7E
40
40
7E
40
40
40
7F
00
08
ENDCHAR
STARTCHAR  1EB9
ENCODING  7865
SWIDTH  1000 0
DWIDTH  7 0
BBX  7 8 0 -2
BITMAP
38
44
7C
40
44
38
00
10
ENDCHAR
STARTCHAR  1EBA
ENCODING  7866
SWIDTH  1000 0
DWIDTH  8 0
BBX  8 10 0 0
BITMAP
18
08
7E
40
40
7E
40
40
40
7E
ENDCHAR
STARTCHAR  1EBB
ENCODING  7867
SWIDTH  1000 0
DWIDTH  7 0
BBX  7 9 0 0
BITMAP
18
08
00
38
44
7C
40
44
38
ENDCHAR
STARTCHAR  1EBC
ENCODING  7868
SWIDTH  1000 0
DWIDTH  8 0
BBX  8 10 0 0
BITMAP
3C
00
7E
40
40
7E
40
40
40
7E
ENDCHAR
STARTCHAR  1EBD
ENCODING  7869
SWIDTH  1000 0
DWIDTH  7 0
BBX  7 8 0 0
BITMAP
38
00
38
44
7C
40
44
38
ENDCHAR
STARTCHAR  1EBE
ENCODING  7870
SWIDTH  1000 0
DWIDTH  8 0
BBX  8 10 0 0
BITMAP
08
18
7E
40
40
7E
40
40
40
7E
ENDCHAR
STARTCHAR  1EBF
ENCODING  7871
SWIDTH  1000 0
DWIDTH  7 0
BBX  7 10 0 0
BITMAP
08
10
10
28
38
44
7C
40
44
38
ENDCHAR
STARTCHAR  1EC0
ENCODING  7872
SWIDTH  1000 0
DWIDTH  8 0
BBX  8 10 0 0
BITMAP
10
18
7E
40
40
7E
40
40
40
7E
ENDCHAR
STARTCHAR  1EC1
ENCODING  7873
SWIDTH  1000 0
DWIDTH  7 0
BBX  7 10 0 0
BITMAP
30
10
10
28
38
44
7C
40
44
38
ENDCHAR
STARTCHAR  1EC2
ENCODING  7874
SWIDTH  1000 0
DWIDTH  8 0
BBX  8 10 0 0
BITMAP
08
38
7E
40
40
7E
40
40
40
7E
ENDCHAR
STARTCHAR  1EC3
ENCODING  7875
SWIDTH  1000 0
DWIDTH  7 0
BBX  7 10 0 0
BITMAP
18
18
18
00
38
44
7C
40
44
38
ENDCHAR
STARTCHAR  1EC4
ENCODING  7876
SWIDTH  1000 0
DWIDTH  8 0
BBX  8 10 0 0
BITMAP
3C
2C
7E
40
40
7E
40
40
40
7E
ENDCHAR
STARTCHAR  1EC5
ENCODING  7877
SWIDTH  1000 0
DWIDTH  7 0
BBX  7 10 0 0
BITMAP
38
00
18
00
38
44
7C
40
44
38
ENDCHAR
STARTCHAR  1EC6
ENCODING  7878
SWIDTH  1000 0
DWIDTH  8 0
BBX  8 11 0 -2
BITMAP
3C
7E
40
40
7E
40
40
40
7F
00
08
ENDCHAR
STARTCHAR  1EC7
ENCODING  7879
SWIDTH  1000 0
DWIDTH  7 0
BBX  7 10 0 -2
BITMAP
30
00
38
44
7C
40
44
38
00
10
ENDCHAR
STARTCHAR  1EC8
ENCODING  7880
SWIDTH  1000 0
DWIDTH  3 0
BBX  3 10 0 0
BITMAP
E0
60
40
40
40
40
40
40
40
40
ENDCHAR
STARTCHAR  1EC9
ENCODING  7881
SWIDTH  1000 0
DWIDTH  3 0
BBX  3 9 0 0
BITMAP
E0
20
00
40
40
40
40
40
40
ENDCHAR
STARTCHAR  1ECA
ENCODING  7882
SWIDTH  1000 0
DWIDTH  3 0
BBX  2 10 0 -2
BITMAP
40
40
40
40
40
40
40
40
00
40
ENDCHAR
STARTCHAR  1ECB
ENCODING  7883
SWIDTH  1000 0
DWIDTH  3 0
BBX  2 10 0 -2
BITMAP
40
00
40
40
40
40
40
40
00
40
ENDCHAR
STARTCHAR  1ECC
ENCODING  7884
SWIDTH  1000 0
DWIDTH  9 0
BBX  9 10 0 -2
BITMAP
1E00
2100
4080
4080
4080
4080
2100
1E00
0000
0400
ENDCHAR
STARTCHAR  1ECD
ENCODING  7885
SWIDTH  1000 0
DWIDTH  7 0
BBX  7 8 0 -2
BITMAP
3C
46
42
42
46
3C
00
10
ENDCHAR
STARTCHAR  1ECE
ENCODING  7886
SWIDTH  1000 0
DWIDTH  9 0
BBX  9 11 0 0
BITMAP
0C00
0400
0000
1E00
2100
4080
4080
4080
4080
2100
1E00
ENDCHAR
STARTCHAR  1ECF
ENCODING  7887
SWIDTH  1000 0
DWIDTH  7 0
BBX  7 9 0 0
BITMAP
18
08
00
3C
46
42
42
46
3C
ENDCHAR
STARTCHAR  1ED0
ENCODING  7888
SWIDTH  1000 0
DWIDTH  9 0
BBX  9 10 0 0
BITMAP
0400
0C00
1E00
2100
4080
4080
4080
4080
2100
1E00
ENDCHAR
STARTCHAR  1ED1
ENCODING  7889
SWIDTH  1000 0
DWIDTH  7 0
BBX  7 10 0 0
BITMAP
08
10
18
3C
3C
46
42
42
46
3C
ENDCHAR
STARTCHAR  1ED2
ENCODING  7890
SWIDTH  1000 0
DWIDTH  9 0
BBX  9 10 0 0
BITMAP
0800
0C00
1E00
2100
4080
4080
4080
4080
2100
1E00
ENDCHAR
STARTCHAR  1ED3
ENCODING  7891
SWIDTH  1000 0
DWIDTH  7 0
BBX  7 10 0 0
BITMAP
10
10
18
3C
3C
46
42
42
46
3C
ENDCHAR
STARTCHAR  1ED4
ENCODING  7892
SWIDTH  1000 0
DWIDTH  9 0
BBX  9 11 0 0
BITMAP
0C00
0400
0C00
1E00
2100
4080
4080
4080
4080
2100
1E00
ENDCHAR
STARTCHAR  1ED5
ENCODING  7893
SWIDTH  1000 0
DWIDTH  7 0
BBX  7 10 0 0
BITMAP
18
08
18
00
3C
46
42
42
46
3C
ENDCHAR
STARTCHAR  1ED6
ENCODING  7894
SWIDTH  1000 0
DWIDTH  9 0
BBX  9 11 0 0
BITMAP
1A00
1400
1E00
1E00
2100
4080
4080
4080
4080
2100
1E00
ENDCHAR
STARTCHAR  1ED7
ENCODING  7895
SWIDTH  1000 0
DWIDTH  7 0
BBX  7 10 0 0
BITMAP
3C
00
18
00
3C
46
42
42
46
3C
ENDCHAR
STARTCHAR  1ED8
ENCODING  7896
SWIDTH  1000 0
DWIDTH  9 0
BBX  9 11 0 -2
BITMAP
1E00
1E00
2100
4080
4080
4080
4080
2100
1E00
0000
0400
ENDCHAR
STARTCHAR  1ED9
ENCODING  7897
SWIDTH  1000 0
DWIDTH  7 0
BBX  7 10 0 -2
BITMAP
18
00
3C
46
42
42
46
3C
00
10
ENDCHAR
STARTCHAR  1EDA
ENCODING  7898
SWIDTH  1000 0
DWIDTH  11 0
BBX  11 11 0 0
BITMAP
0400
0C00
0000
1E40
2140
4080
4080
4080
4080
2100
1E00
ENDCHAR
STARTCHAR  1EDB
ENCODING  7899
SWIDTH  1000 0
DWIDTH  8 0
BBX  8 8 0 0
BITMAP
08
00
3D
47
42
42
46
3C
ENDCHAR
STARTCHAR  1EDC
ENCODING  7900
SWIDTH  1000 0
DWIDTH  11 0
BBX  11 11 0 0
BITMAP
1800
0800
0000
1E40
2140
4080
4080
4080
4080
2100
1E00
ENDCHAR
STARTCHAR  1EDD
ENCODING  7901
SWIDTH  1000 0
DWIDTH  8 0
BBX  8 8 0 0
BITMAP
10
00
3D
47
42
42
46
3C
ENDCHAR
STARTCHAR  1EDE
ENCODING  7902
SWIDTH  1000 0
DWIDTH  11 0
BBX  11 11 0 0
BITMAP
0C00
0400
0000
1E40
2140
4080
4080
4080
4080
2100
1E00
ENDCHAR
STARTCHAR  1EDF
ENCODING  7903
SWIDTH  1000 0
DWIDTH  8 0
BBX  8 9 0 0
BITMAP
18
08
00
3D
47
42
42
46
3C
ENDCHAR
STARTCHAR  1EE0
ENCODING  7904
SWIDTH  1000 0
DWIDTH  11 0
BBX  11 10 0 0
BITMAP
1E00
0000
1E40
2140
4080
4080
4080
4080
2100
1E00
ENDCHAR
STARTCHAR  1EE1
ENCODING  7905
SWIDTH  1000 0
DWIDTH  8 0
BBX  8 8 0 0
BITMAP
3C
00
3D
47
42
42
46
3C
ENDCHAR
STARTCHAR  1EE2
ENCODING  7906
SWIDTH  1000 0
DWIDTH  11 0
BBX  11 10 0 -2
BITMAP
1E40
2140
4080
4080
4080
4080
2100
1E00
0000
0400
ENDCHAR
STARTCHAR  1EE3
ENCODING  7907
SWIDTH  1000 0
DWIDTH  8 0
BBX  8 8 0 -2
BITMAP
3D
47
42
42
46
3C
00
10
ENDCHAR
STARTCHAR  1EE4
ENCODING  7908
SWIDTH  1000 0
DWIDTH  9 0
BBX  8 10 0 -2
BITMAP
41
41
41
41
41
41
43
3E
00
08
ENDCHAR
STARTCHAR  1EE5
ENCODING  7909
SWIDTH  1000 0
DWIDTH  7 0
BBX  6 8 0 -2
BITMAP
44
44
44
44
44
7C
00
10
ENDCHAR
STARTCHAR  1EE6
ENCODING  7910
SWIDTH  1000 0
DWIDTH  9 0
BBX  8 11 0 0
BITMAP
1C
0C
00
41
41
41
41
41
41
43
3E
ENDCHAR
STARTCHAR  1EE7
ENCODING  7911
SWIDTH  1000 0
DWIDTH  7 0
BBX  6 9 0 0
BITMAP
30
08
00
44
44
44
44
44
3C
ENDCHAR
STARTCHAR  1EE8
ENCODING  7912
SWIDTH  1000 0
DWIDTH  10 0
BBX  10 11 0 0
BITMAP
0C00
0800
0000
4140
4140
4180
4100
4100
4100
6300
3E00
ENDCHAR
STARTCHAR  1EE9
ENCODING  7913
SWIDTH  1000 0
DWIDTH  8 0
BBX  8 8 0 0
BITMAP
18
10
45
45
46
44
44
3C
ENDCHAR
STARTCHAR  1EEA
ENCODING  7914
SWIDTH  1000 0
DWIDTH  10 0
BBX  10 11 0 0
BITMAP
1000
0800
0000
4140
4140
4180
4100
4100
4100
6300
3E00
ENDCHAR
STARTCHAR  1EEB
ENCODING  7915
SWIDTH  1000 0
DWIDTH  8 0
BBX  8 8 0 0
BITMAP
30
10
45
45
46
44
44
3C
ENDCHAR
STARTCHAR  1EEC
ENCODING  7916
SWIDTH  1000 0
DWIDTH  10 0
BBX  10 11 0 0
BITMAP
1C00
0C00
0000
4140
4140
4180
4100
4100
4100
6300
3E00
ENDCHAR
STARTCHAR  1EED
ENCODING  7917
SWIDTH  1000 0
DWIDTH  8 0
BBX  8 9 0 0
BITMAP
30
08
00
45
45
46
44
44
3C
ENDCHAR
STARTCHAR  1EEE
ENCODING  7918
SWIDTH  1000 0
DWIDTH  10 0
BBX  10 10 0 0
BITMAP
3E00
0000
4140
4140
4180
4100
4100
4100
6300
3E00
ENDCHAR
STARTCHAR  1EEF
ENCODING  7919
SWIDTH  1000 0
DWIDTH  8 0
BBX  8 8 0 0
BITMAP
38
00
45
45
46
44
44
3C
ENDCHAR
STARTCHAR  1EF0
ENCODING  7920
SWIDTH  1000 0
DWIDTH  10 0
BBX  10 10 0 -2
BITMAP
4140
4140
4180
4100
4100
4100
6300
3E00
0000
0800
ENDCHAR
STARTCHAR  1EF1
ENCODING  7921
SWIDTH  1000 0
DWIDTH  8 0
BBX  8 8 0 -2
BITMAP
45
45
46
44
44
7C
00
10
ENDCHAR
STARTCHAR  1EF2
ENCODING  7922
SWIDTH  1000 0
DWIDTH  7 0
BBX  9 10 -1 0
BITMAP
1800
0800
4100
2200
3600
1400
0800
0800
0800
0800
ENDCHAR
STARTCHAR  1EF3
ENCODING  7923
SWIDTH  1000 0
DWIDTH  6 0
BBX  6 10 0 -2
BITMAP
20
10
C4
48
48
30
30
30
20
60
ENDCHAR
STARTCHAR  1EF4
ENCODING  7924
SWIDTH  1000 0
DWIDTH  7 0
BBX  9 10 -1 -2
BITMAP
4100
2200
3600
1400
0800
0800
0800
0800
0000
0800
ENDCHAR
STARTCHAR  1EF5
ENCODING  7925
SWIDTH  1000 0
DWIDTH  6 0
BBX  6 8 0 -2
BITMAP
88
48
48
30
30
20
28
40
ENDCHAR
STARTCHAR  1EF6
ENCODING  7926
SWIDTH  1000 0
DWIDTH  8 0
BBX  9 10 -1 0
BITMAP
1C00
0C00
4100
2200
3600
1400
0800
0800
0800
0800
ENDCHAR
STARTCHAR  1EF7
ENCODING  7927
SWIDTH  1000 0
DWIDTH  6 0
BBX  7 11 -1 -2
BITMAP
38
08
00
44
44
28
28
18
10
10
60
ENDCHAR
STARTCHAR  1EF8
ENCODING  7928
SWIDTH  1000 0
DWIDTH  7 0
BBX  9 10 -1 0
BITMAP
1C00
0000
4100
2200
3600
1400
0800
0800
0800
0800
ENDCHAR
STARTCHAR  1EF9
ENCODING  7929
SWIDTH  1000 0
DWIDTH  6 0
BBX  6 10 0 -2
BITMAP
78
00
C4
48
48
30
30
30
20
60
ENDCHAR
STARTCHAR  2000
ENCODING  8192
SWIDTH  1000 0
DWIDTH  6 0
BBX  0 0 0 0
BITMAP
ENDCHAR
STARTCHAR  2001
ENCODING  8193
SWIDTH  1000 0
DWIDTH  12 0
BBX  0 0 0 0
BITMAP
ENDCHAR
STARTCHAR  2002
ENCODING  8194
SWIDTH  1000 0
DWIDTH  6 0
BBX  0 0 0 0
BITMAP
ENDCHAR
STARTCHAR  2003
ENCODING  8195
SWIDTH  1000 0
DWIDTH  12 0
BBX  0 0 0 0
BITMAP
ENDCHAR
STARTCHAR  2004
ENCODING  8196
SWIDTH  1000 0
DWIDTH  4 0
BBX  0 0 0 0
BITMAP
ENDCHAR
STARTCHAR  2005
ENCODING  8197
SWIDTH  1000 0
DWIDTH  3 0
BBX  0 0 0 0
BITMAP
ENDCHAR
STARTCHAR  2006
ENCODING  8198
SWIDTH  1000 0
DWIDTH  2 0
BBX  0 0 0 0
BITMAP
ENDCHAR
STARTCHAR  2007
ENCODING  8199
SWIDTH  1000 0
DWIDTH  7 0
BBX  0 0 0 0
BITMAP
ENDCHAR
STARTCHAR  2008
ENCODING  8200
SWIDTH  1000 0
DWIDTH  3 0
BBX  0 0 0 0
BITMAP
ENDCHAR
STARTCHAR  2009
ENCODING  8201
SWIDTH  1000 0
DWIDTH  2 0
BBX  0 0 0 0
BITMAP
ENDCHAR
STARTCHAR  200A
ENCODING  8202
SWIDTH  1000 0
DWIDTH  1 0
BBX  0 0 0 0
BITMAP
ENDCHAR
STARTCHAR  200B
ENCODING  8203
SWIDTH  1000 0
DWIDTH  0 0
BBX  0 0 0 0
BITMAP
ENDCHAR
STARTCHAR  200C
ENCODING  8204
SWIDTH  1000 0
DWIDTH  0 0
BBX  2 9 -1 -2
BITMAP
40
40
40
40
40
40
40
40
40
ENDCHAR
STARTCHAR  200D
ENCODING  8205
SWIDTH  1000 0
DWIDTH  0 0
BBX  5 10 -2 -2
BITMAP
00
40
70
20
20
20
20
20
20
20
ENDCHAR
STARTCHAR  200E
ENCODING  8206
SWIDTH  1000 0
DWIDTH  0 0
BBX  5 10 -1 -2
BITMAP
00
70
40
40
40
40
40
40
40
40
ENDCHAR
STARTCHAR  200F
ENCODING  8207
SWIDTH  1000 0
DWIDTH  0 0
BBX  4 10 -3 -2
BITMAP
40
70
50
10
10
10
10
10
10
10
ENDCHAR
STARTCHAR  2012
ENCODING  8210
SWIDTH  1000 0
DWIDTH  7 0
BBX  8 1 -1 2
BITMAP
7F
ENDCHAR
STARTCHAR  2013
ENCODING  8211
SWIDTH  1000 0
DWIDTH  7 0
BBX  8 1 -1 2
BITMAP
7F
ENDCHAR
STARTCHAR  2014
ENCODING  8212
SWIDTH  1000 0
DWIDTH  12 0
BBX  12 1 0 2
BITMAP
FFF0
ENDCHAR
STARTCHAR  2015
ENCODING  8213
SWIDTH  1000 0
DWIDTH  12 0
BBX  12 1 0 2
BITMAP
FFF0
ENDCHAR
STARTCHAR  2016
ENCODING  8214
SWIDTH  1000 0
DWIDTH  5 0
BBX  4 8 0 0
BITMAP
50
50
50
50
50
50
50
50
ENDCHAR
STARTCHAR  2017
ENCODING  8215
SWIDTH  1000 0
DWIDTH  7 0
BBX  8 3 -1 -4
BITMAP
7F
00
7F
ENDCHAR
STARTCHAR  2018
ENCODING  8216
SWIDTH  1000 0
DWIDTH  3 0
BBX  2 3 1 6
BITMAP
00
80
80
ENDCHAR
STARTCHAR  2019
ENCODING  8217
SWIDTH  1000 0
DWIDTH  3 0
BBX  2 3 0 5
BITMAP
40
40
00
ENDCHAR
STARTCHAR  201A
ENCODING  8218
SWIDTH  1000 0
DWIDTH  3 0
BBX  2 3 0 -2
BITMAP
40
40
00
ENDCHAR
STARTCHAR  201B
ENCODING  8219
SWIDTH  1000 0
DWIDTH  3 0
BBX  2 3 1 5
BITMAP
80
80
00
ENDCHAR
STARTCHAR  201C
ENCODING  8220
SWIDTH  1000 0
DWIDTH  5 0
BBX  4 3 1 6
BITMAP
00
A0
A0
ENDCHAR
STARTCHAR  201D
ENCODING  8221
SWIDTH  1000 0
DWIDTH  5 0
BBX  4 3 0 5
BITMAP
50
50
00
ENDCHAR
STARTCHAR  201E
ENCODING  8222
SWIDTH  1000 0
DWIDTH  5 0
BBX  4 3 0 -2
BITMAP
50
50
00
ENDCHAR
STARTCHAR  201F
ENCODING  8223
SWIDTH  1000 0
DWIDTH  5 0
BBX  4 3 1 5
BITMAP
A0
A0
00
ENDCHAR
STARTCHAR  2020
ENCODING  8224
SWIDTH  1000 0
DWIDTH  7 0
BBX  7 10 0 -2
BITMAP
10
10
7C
10
10
10
10
10
10
10
ENDCHAR
STARTCHAR  2021
ENCODING  8225
SWIDTH  1000 0
DWIDTH  7 0
BBX  7 10 0 -2
BITMAP
10
10
7C
10
10
10
10
7C
10
10
ENDCHAR
STARTCHAR  2022
ENCODING  8226
SWIDTH  1000 0
DWIDTH  5 0
BBX  3 3 1 3
BITMAP
40
E0
E0
ENDCHAR
STARTCHAR  2026
ENCODING  8230
SWIDTH  1000 0
DWIDTH  12 0
BBX  10 1 1 0
BITMAP
4440
ENDCHAR
STARTCHAR  202A
ENCODING  8234
SWIDTH  1000 0
DWIDTH  0 0
BBX  5 9 -1 -2
BITMAP
70
40
40
40
40
40
40
40
40
ENDCHAR
STARTCHAR  202B
ENCODING  8235
SWIDTH  1000 0
DWIDTH  0 0
BBX  4 9 -3 -2
BITMAP
70
10
10
10
10
10
10
10
10
ENDCHAR
STARTCHAR  202C
ENCODING  8236
SWIDTH  1000 0
DWIDTH  0 0
BBX  3 10 -1 -2
BITMAP
00
E0
E0
40
40
40
40
40
40
40
ENDCHAR
STARTCHAR  202D
ENCODING  8237
SWIDTH  1000 0
DWIDTH  0 0
BBX  5 10 -2 -2
BITMAP
70
40
70
20
20
20
20
20
20
20
ENDCHAR
STARTCHAR  202E
ENCODING  8238
SWIDTH  1000 0
DWIDTH  0 0
BBX  4 10 -2 -2
BITMAP
70
10
70
20
20
20
20
20
20
20
ENDCHAR
STARTCHAR  202F
ENCODING  8239
SWIDTH  1000 0
DWIDTH  2 0
BBX  0 0 0 0
BITMAP
ENDCHAR
STARTCHAR  2030
ENCODING  8240
SWIDTH  1000 0
DWIDTH  13 0
BBX  13 8 0 0
BITMAP
7200
5400
5400
6800
0B30
14C8
14C8
0770
ENDCHAR
STARTCHAR  2032
ENCODING  8242
SWIDTH  1000 0
DWIDTH  2 0
BBX  2 3 1 5
BITMAP
80
80
80
ENDCHAR
STARTCHAR  2033
ENCODING  8243
SWIDTH  1000 0
DWIDTH  4 0
BBX  4 3 1 5
BITMAP
A0
E0
C0
ENDCHAR
STARTCHAR  2034
ENCODING  8244
SWIDTH  1000 0
DWIDTH  5 0
BBX  6 3 0 5
BITMAP
A8
F8
D0
ENDCHAR
STARTCHAR  2039
ENCODING  8249
SWIDTH  1000 0
DWIDTH  4 0
BBX  4 5 0 0
BITMAP
20
40
40
40
20
ENDCHAR
STARTCHAR  203A
ENCODING  8250
SWIDTH  1000 0
DWIDTH  4 0
BBX  4 5 0 0
BITMAP
40
40
20
40
40
ENDCHAR
STARTCHAR  203C
ENCODING  8252
SWIDTH  1000 0
DWIDTH  6 0
BBX  5 8 0 0
BITMAP
48
48
48
48
48
48
00
48
ENDCHAR
STARTCHAR  203E
ENCODING  8254
SWIDTH  1000 0
DWIDTH  4 0
BBX  6 1 -1 7
BITMAP
78
ENDCHAR
STARTCHAR  2044
ENCODING  8260
SWIDTH  1000 0
DWIDTH  2 0
BBX  8 9 -3 -1
BITMAP
02
02
04
08
10
10
20
40
80
ENDCHAR
STARTCHAR  205E
ENCODING  8286
SWIDTH  1000 0
DWIDTH  3 0
BBX  2 8 0 0
BITMAP
40
00
40
00
00
40
00
40
ENDCHAR
STARTCHAR  206A
ENCODING  8298
SWIDTH  1000 0
DWIDTH  0 0
BBX  5 10 -2 -2
BITMAP
70
20
70
20
20
20
20
20
20
20
ENDCHAR
STARTCHAR  206B
ENCODING  8299
SWIDTH  1000 0
DWIDTH  0 0
BBX  5 10 -2 -2
BITMAP
70
50
70
20
20
20
20
20
20
20
ENDCHAR
STARTCHAR  206C
ENCODING  8300
SWIDTH  1000 0
DWIDTH  0 0
BBX  5 9 -2 -2
BITMAP
70
20
20
20
20
20
20
20
20
ENDCHAR
STARTCHAR  206D
ENCODING  8301
SWIDTH  1000 0
DWIDTH  0 0
BBX  5 10 -2 -2
BITMAP
00
20
70
20
20
20
20
20
20
20
ENDCHAR
STARTCHAR  206E
ENCODING  8302
SWIDTH  1000 0
DWIDTH  0 0
BBX  5 10 -2 -2
BITMAP
00
70
60
20
20
20
20
20
20
20
ENDCHAR
STARTCHAR  206F
ENCODING  8303
SWIDTH  1000 0
DWIDTH  0 0
BBX  5 10 -2 -2
BITMAP
60
20
70
20
20
20
20
20
20
20
ENDCHAR
STARTCHAR  207F
ENCODING  8319
SWIDTH  1000 0
DWIDTH  4 0
BBX  4 4 0 3
BITMAP
70
50
50
50
ENDCHAR
STARTCHAR  2090
ENCODING  8336
SWIDTH  1000 0
DWIDTH  5 0
BBX  5 4 0 -1
BITMAP
30
10
70
68
ENDCHAR
STARTCHAR  2091
ENCODING  8337
SWIDTH  1000 0
DWIDTH  4 0
BBX  4 4 0 -1
BITMAP
60
F0
90
60
ENDCHAR
STARTCHAR  2092
ENCODING  8338
SWIDTH  1000 0
DWIDTH  5 0
BBX  5 4 0 -1
BITMAP
30
48
48
30
ENDCHAR
STARTCHAR  2093
ENCODING  8339
SWIDTH  1000 0
DWIDTH  4 0
BBX  4 4 0 -1
BITMAP
80
60
60
90
ENDCHAR
STARTCHAR  2094
ENCODING  8340
SWIDTH  1000 0
DWIDTH  4 0
BBX  4 4 0 -1
BITMAP
60
F0
90
60
ENDCHAR
STARTCHAR  20AB
ENCODING  8363
SWIDTH  1000 0
DWIDTH  6 0
BBX  6 7 0 1
BITMAP
1C
38
48
48
48
38
7C
ENDCHAR
STARTCHAR  20AC
ENCODING  8364
SWIDTH  1000 0
DWIDTH  7 0
BBX  8 8 -1 0
BITMAP
1E
30
20
7E
7C
20
20
1E
ENDCHAR
STARTCHAR  2116
ENCODING  8470
SWIDTH  1000 0
DWIDTH  13 0
BBX  13 9 0 0
BITMAP
4200
6200
6260
5290
5A90
4A90
4E60
46F0
4200
ENDCHAR
STARTCHAR  FB01
ENCODING  64257
SWIDTH  1000 0
DWIDTH  6 0
BBX  6 8 -1 0
BITMAP
34
20
74
24
24
24
24
24
ENDCHAR
STARTCHAR  FB02
ENCODING  64258
SWIDTH  1000 0
DWIDTH  6 0
BBX  6 8 -1 0
BITMAP
34
24
74
24
24
24
24
24
ENDCHAR
ENDFONT
